<?xml version="1.0" encoding="UTF-8"?>
<svg xmlns="http://www.w3.org/2000/svg" viewBox="0 0 414 896" width="414" height="896">
<rect x="0" y="0" width="414" height="24" fill="#000000"/>
<text x="16" y="17" font-family="JetBrains Mono, DejaVu Sans Mono, monospace" font-size="10" fill="#FFFFFF" text-anchor="start" font-weight="normal">9:41</text>
<text x="398" y="17" font-family="JetBrains Mono, DejaVu Sans Mono, monospace" font-size="10" fill="#FFFFFF" text-anchor="end" font-weight="normal">Wi-Fi</text>
<rect x="0" y="0" width="414" height="32" fill="#1A1A2E"/>
<line x1="0" y1="31" x2="414" y2="31" stroke="#3A3A5A" stroke-width="1"/>
<text x="212" y="19" font-family="JetBrains Mono, DejaVu Sans Mono, monospace" font-size="12" fill="rgba(224,224,224,0.55)" text-anchor="middle" font-weight="normal">⊞</text>
<text x="256" y="19" font-family="JetBrains Mono, DejaVu Sans Mono, monospace" font-size="12" fill="rgba(224,224,224,0.55)" text-anchor="middle" font-weight="normal">⚡</text>
<rect x="278" y="2" width="44" height="30" fill="rgba(0,188,212,0.12)" rx="6"/>
<text x="300" y="19" font-family="JetBrains Mono, DejaVu Sans Mono, monospace" font-size="12" fill="#00BCD4" text-anchor="middle" font-weight="normal">⚙</text>
<text x="344" y="19" font-family="JetBrains Mono, DejaVu Sans Mono, monospace" font-size="12" fill="rgba(224,224,224,0.55)" text-anchor="middle" font-weight="normal">📄</text>
<text x="388" y="19" font-family="JetBrains Mono, DejaVu Sans Mono, monospace" font-size="12" fill="rgba(224,224,224,0.55)" text-anchor="middle" font-weight="normal">⚙</text>
<rect x="0" y="32" width="414" height="84" fill="#1A1A2E"/>
<line x1="0" y1="115" x2="414" y2="115" stroke="#3A3A5A" stroke-width="1"/>
<circle cx="16" cy="54" r="6.666666666666667" fill="none" stroke="#00BCD4" stroke-width="2"/>
<circle cx="16" cy="54" r="3.3333333333333335" fill="none" stroke="#00BCD4" stroke-width="1.5"/>
<text x="42" y="56" font-family="JetBrains Mono, DejaVu Sans Mono, monospace" font-size="15" fill="#E0E0E0" text-anchor="start" font-weight="bold">Diagnostic Config</text>
<text x="41" y="96" font-family="JetBrains Mono, DejaVu Sans Mono, monospace" font-size="12" fill="#00BCD4" text-anchor="middle" font-weight="bold">G1</text>
<rect x="0" y="112" width="82" height="2" fill="#00BCD4"/>
<text x="123" y="96" font-family="JetBrains Mono, DejaVu Sans Mono, monospace" font-size="12" fill="#A0A0B8" text-anchor="middle" font-weight="normal">G2</text>
<text x="205" y="96" font-family="JetBrains Mono, DejaVu Sans Mono, monospace" font-size="12" fill="#A0A0B8" text-anchor="middle" font-weight="normal">G3</text>
<text x="287" y="96" font-family="JetBrains Mono, DejaVu Sans Mono, monospace" font-size="12" fill="#A0A0B8" text-anchor="middle" font-weight="normal">G4</text>
<text x="369" y="96" font-family="JetBrains Mono, DejaVu Sans Mono, monospace" font-size="12" fill="#A0A0B8" text-anchor="middle" font-weight="normal">G5</text>
<rect x="0" y="116" width="414" height="60" fill="rgba(22,33,62,0.5)" stroke="#2A2A4A" stroke-width="1"/>
<text x="16" y="140" font-family="JetBrains Mono, DejaVu Sans Mono, monospace" font-size="14" fill="#E0E0E0" text-anchor="start" font-weight="bold">G1 System &amp; Adapters</text>
<text x="16" y="158" font-family="JetBrains Mono, DejaVu Sans Mono, monospace" font-size="11" fill="#A0A0B8" text-anchor="start" font-weight="normal">8 diagnostics</text>
<rect x="174" y="130" width="110" height="32" fill="transparent" stroke="#3A3A5A" stroke-width="1" rx="6"/>
<text x="229" y="148" font-family="JetBrains Mono, DejaVu Sans Mono, monospace" font-size="11" fill="#E0E0E0" text-anchor="middle" font-weight="normal">Select All</text>
<rect x="292" y="130" width="110" height="32" fill="transparent" stroke="#3A3A5A" stroke-width="1" rx="6"/>
<text x="347" y="148" font-family="JetBrains Mono, DejaVu Sans Mono, monospace" font-size="11" fill="#E0E0E0" text-anchor="middle" font-weight="normal">Deselect All</text>
<line x1="16" y1="229" x2="398" y2="229" stroke="#2A2A4A" stroke-width="1"/>
<circle cx="28" cy="203" r="7" fill="#4ADE80"/>
<text x="50" y="196" font-family="JetBrains Mono, DejaVu Sans Mono, monospace" font-size="13" fill="#E0E0E0" text-anchor="start" font-weight="normal">Network Adapters</text>
<text x="50" y="212" font-family="JetBrains Mono, DejaVu Sans Mono, monospace" font-size="10" fill="rgba(160,160,184,0.6)" text-anchor="start" font-weight="normal">List all network adapters and their operational st</text>
<rect x="354" y="193" width="40" height="20" fill="#0078D4" rx="10"/>
<circle cx="384" cy="203" r="8" fill="#FFFFFF"/>
<line x1="16" y1="283" x2="398" y2="283" stroke="#2A2A4A" stroke-width="1"/>
<circle cx="28" cy="257" r="7" fill="#4ADE80"/>
<text x="50" y="250" font-family="JetBrains Mono, DejaVu Sans Mono, monospace" font-size="13" fill="#E0E0E0" text-anchor="start" font-weight="normal">NIC Advanced</text>
<text x="50" y="266" font-family="JetBrains Mono, DejaVu Sans Mono, monospace" font-size="10" fill="rgba(160,160,184,0.6)" text-anchor="start" font-weight="normal">Driver version, hardware info, and negotiated link</text>
<rect x="354" y="247" width="40" height="20" fill="#0078D4" rx="10"/>
<circle cx="384" cy="257" r="8" fill="#FFFFFF"/>
<line x1="16" y1="337" x2="398" y2="337" stroke="#2A2A4A" stroke-width="1"/>
<circle cx="28" cy="311" r="7" fill="#4ADE80"/>
<text x="50" y="304" font-family="JetBrains Mono, DejaVu Sans Mono, monospace" font-size="13" fill="#E0E0E0" text-anchor="start" font-weight="normal">WiFi Information</text>
<text x="50" y="320" font-family="JetBrains Mono, DejaVu Sans Mono, monospace" font-size="10" fill="rgba(160,160,184,0.6)" text-anchor="start" font-weight="normal">Signal strength, SSID, channel, and link quality</text>
<rect x="354" y="301" width="40" height="20" fill="#0078D4" rx="10"/>
<circle cx="384" cy="311" r="8" fill="#FFFFFF"/>
<line x1="16" y1="391" x2="398" y2="391" stroke="#2A2A4A" stroke-width="1"/>
<circle cx="28" cy="365" r="7" fill="#4ADE80"/>
<text x="50" y="358" font-family="JetBrains Mono, DejaVu Sans Mono, monospace" font-size="13" fill="#E0E0E0" text-anchor="start" font-weight="normal">Wired Information</text>
<text x="50" y="374" font-family="JetBrains Mono, DejaVu Sans Mono, monospace" font-size="10" fill="rgba(160,160,184,0.6)" text-anchor="start" font-weight="normal">Ethernet link status, speed, and duplex mode</text>
<rect x="354" y="355" width="40" height="20" fill="#0078D4" rx="10"/>
<circle cx="384" cy="365" r="8" fill="#FFFFFF"/>
<line x1="16" y1="445" x2="398" y2="445" stroke="#2A2A4A" stroke-width="1"/>
<circle cx="28" cy="419" r="7" fill="#606080"/>
<text x="50" y="412" font-family="JetBrains Mono, DejaVu Sans Mono, monospace" font-size="13" fill="#E0E0E0" text-anchor="start" font-weight="normal">DHCP Status</text>
<text x="50" y="428" font-family="JetBrains Mono, DejaVu Sans Mono, monospace" font-size="10" fill="rgba(160,160,184,0.6)" text-anchor="start" font-weight="normal">DHCP lease info, server address, and expiration</text>
<rect x="354" y="409" width="40" height="20" fill="#5A5A7A" rx="10"/>
<circle cx="364" cy="419" r="8" fill="#FFFFFF"/>
<line x1="16" y1="499" x2="398" y2="499" stroke="#2A2A4A" stroke-width="1"/>
<circle cx="28" cy="473" r="7" fill="#4ADE80"/>
<text x="50" y="466" font-family="JetBrains Mono, DejaVu Sans Mono, monospace" font-size="13" fill="#E0E0E0" text-anchor="start" font-weight="normal">IP Configuration</text>
<text x="50" y="482" font-family="JetBrains Mono, DejaVu Sans Mono, monospace" font-size="10" fill="rgba(160,160,184,0.6)" text-anchor="start" font-weight="normal">IP addresses, subnet mask, default gateway, DNS se</text>
<rect x="354" y="463" width="40" height="20" fill="#0078D4" rx="10"/>
<circle cx="384" cy="473" r="8" fill="#FFFFFF"/>
<line x1="16" y1="553" x2="398" y2="553" stroke="#2A2A4A" stroke-width="1"/>
<circle cx="28" cy="527" r="7" fill="#4ADE80"/>
<text x="50" y="520" font-family="JetBrains Mono, DejaVu Sans Mono, monospace" font-size="13" fill="#E0E0E0" text-anchor="start" font-weight="normal">Active Connections</text>
<text x="50" y="536" font-family="JetBrains Mono, DejaVu Sans Mono, monospace" font-size="10" fill="rgba(160,160,184,0.6)" text-anchor="start" font-weight="normal">TCP/UDP connections: ESTABLISHED, LISTENING, etc.</text>
<rect x="354" y="517" width="40" height="20" fill="#0078D4" rx="10"/>
<circle cx="384" cy="527" r="8" fill="#FFFFFF"/>
<line x1="16" y1="607" x2="398" y2="607" stroke="#2A2A4A" stroke-width="1"/>
<circle cx="28" cy="581" r="7" fill="#4ADE80"/>
<text x="50" y="574" font-family="JetBrains Mono, DejaVu Sans Mono, monospace" font-size="13" fill="#E0E0E0" text-anchor="start" font-weight="normal">Network Profile</text>
<text x="50" y="590" font-family="JetBrains Mono, DejaVu Sans Mono, monospace" font-size="10" fill="rgba(160,160,184,0.6)" text-anchor="start" font-weight="normal">Active network profile type (Domain/Private/Public</text>
<rect x="354" y="571" width="40" height="20" fill="#0078D4" rx="10"/>
<circle cx="384" cy="581" r="8" fill="#FFFFFF"/>
<rect x="0" y="846" width="414" height="50" fill="#1A1A2E"/>
<line x1="0" y1="846" x2="414" y2="846" stroke="#3A3A5A" stroke-width="1"/>
<text x="41" y="873" font-family="JetBrains Mono, DejaVu Sans Mono, monospace" font-size="9" fill="#606080" text-anchor="middle" font-weight="normal">Dashboar</text>
<text x="123" y="873" font-family="JetBrains Mono, DejaVu Sans Mono, monospace" font-size="9" fill="#606080" text-anchor="middle" font-weight="normal">Diag</text>
<text x="205" y="873" font-family="JetBrains Mono, DejaVu Sans Mono, monospace" font-size="9" fill="#00BCD4" text-anchor="middle" font-weight="normal">Config</text>
<text x="287" y="873" font-family="JetBrains Mono, DejaVu Sans Mono, monospace" font-size="9" fill="#606080" text-anchor="middle" font-weight="normal">Report</text>
<text x="369" y="873" font-family="JetBrains Mono, DejaVu Sans Mono, monospace" font-size="9" fill="#606080" text-anchor="middle" font-weight="normal">Settings</text>
</svg>