<?xml version="1.0" encoding="UTF-8"?>
<svg xmlns="http://www.w3.org/2000/svg" viewBox="0 0 414 896" width="414" height="896">
<rect x="0.0" y="0.0" width="414.0" height="32.0" fill="#1A1A2E"/>
<text x="212.0" y="19.0" font-family="JetBrains Mono, Noto Sans Mono CJK SC, Microsoft YaHei" font-size="14" fill="rgba(224,224,224,0.55)" text-anchor="middle" font-weight="normal">⊞</text>
<rect x="234.0" y="0.0" width="44.0" height="32.0" rx="6" fill="rgba(0,188,212,0.12)"/>
<text x="256.0" y="19.0" font-family="JetBrains Mono, Noto Sans Mono CJK SC, Microsoft YaHei" font-size="14" fill="#00BCD4" text-anchor="middle" font-weight="normal">⚡</text>
<text x="300.0" y="19.0" font-family="JetBrains Mono, Noto Sans Mono CJK SC, Microsoft YaHei" font-size="14" fill="rgba(224,224,224,0.55)" text-anchor="middle" font-weight="normal">⚙</text>
<text x="344.0" y="19.0" font-family="JetBrains Mono, Noto Sans Mono CJK SC, Microsoft YaHei" font-size="14" fill="rgba(224,224,224,0.55)" text-anchor="middle" font-weight="normal">📄</text>
<text x="388.0" y="19.0" font-family="JetBrains Mono, Noto Sans Mono CJK SC, Microsoft YaHei" font-size="14" fill="rgba(224,224,224,0.55)" text-anchor="middle" font-weight="normal">⚙</text>
<rect x="0.0" y="32.0" width="414.0" height="250.0" fill="#252538"/>
<rect x="0.0" y="32.0" width="414.0" height="48.0" fill="transparent" stroke="#3A3A5A" stroke-width="1"/>
<text x="16.0" y="62.0" font-family="JetBrains Mono, Noto Sans Mono CJK SC, Microsoft YaHei" font-size="16" fill="#E0E0E0" text-anchor="start" font-weight="bold">NetDiagnostics</text>
<text x="12.0" y="92.0" font-family="JetBrains Mono, Noto Sans Mono CJK SC, Microsoft YaHei" font-size="11" fill="#A0A0B8" text-anchor="start" font-weight="bold">Target</text>
<rect x="12.0" y="104.0" width="390.0" height="40.0" rx="8" fill="#2A2A4A" stroke="#3A3A5A" stroke-width="1"/>
<text x="22.0" y="129.0" font-family="JetBrains Mono, Noto Sans Mono CJK SC, Microsoft YaHei" font-size="12" fill="rgba(160,160,184,0.4)" text-anchor="start" font-weight="normal">Enter URL, IP address, or hostname...</text>
<rect x="12.0" y="152.0" width="342.0" height="38.0" rx="8" fill="#0078D4"/>
<text x="183.0" y="177.0" font-family="JetBrains Mono, Noto Sans Mono CJK SC, Microsoft YaHei" font-size="12" fill="#FFFFFF" text-anchor="middle" font-weight="bold">▶ Run Diagnostics</text>
<rect x="360.0" y="152.0" width="42.0" height="38.0" rx="8" fill="transparent" stroke="rgba(239,68,68,0.5)" stroke-width="1"/>
<text x="381.0" y="177.0" font-family="JetBrains Mono, Noto Sans Mono CJK SC, Microsoft YaHei" font-size="11" fill="#EF4444" text-anchor="middle" font-weight="normal">■</text>
<line x1="0.0" y1="282.0" x2="414.0" y2="282.0" stroke="#3A3A5A" stroke-width="1"/>
<rect x="0.0" y="283.0" width="414.0" height="41.0" fill="#1A1A2E"/>
<text x="16.0" y="309.0" font-family="JetBrains Mono, Noto Sans Mono CJK SC, Microsoft YaHei" font-size="15" fill="#E0E0E0" text-anchor="start" font-weight="bold">Results</text>
<text x="398.0" y="309.0" font-family="JetBrains Mono, Noto Sans Mono CJK SC, Microsoft YaHei" font-size="12" fill="#00BCD4" text-anchor="end" font-weight="bold">38 / 38</text>
<rect x="8.0" y="328.0" width="398.0" height="88.0" rx="10" fill="#16213E" stroke="#2A2A4A" stroke-width="1"/>
<rect x="20.0" y="336.0" width="3.0" height="22.0" rx="2" fill="#0078D4"/>
<text x="31.0" y="340.0" font-family="JetBrains Mono, Noto Sans Mono CJK SC, Microsoft YaHei" font-size="13" fill="#E0E0E0" text-anchor="start" font-weight="bold">G1: System &amp; Adapters</text>
<text x="378.0" y="350.0" font-family="JetBrains Mono, Noto Sans Mono CJK SC, Microsoft YaHei" font-size="11" fill="#A0A0B8" text-anchor="end" font-weight="normal">8/8</text>
<rect x="322.0" y="336.0" width="26.0" height="18.0" rx="4" fill="rgba(74,222,128,0.15)"/>
<text x="335.0" y="348.0" font-family="JetBrains Mono, Noto Sans Mono CJK SC, Microsoft YaHei" font-size="10" fill="#4ADE80" text-anchor="middle" font-weight="bold">8</text>
<text x="392.0" y="340.0" font-family="JetBrains Mono, Noto Sans Mono CJK SC, Microsoft YaHei" font-size="10" fill="#A0A0B8" text-anchor="end" font-weight="normal">▼</text>
<rect x="20.0" y="366.0" width="374.0" height="4.0" rx="2" fill="#2A2A4A"/>
<rect x="20.0" y="366.0" width="374.0" height="4.0" rx="2" fill="#4ADE80"/>
<line x1="20.0" y1="374.0" x2="394.0" y2="374.0" stroke="#2A2A4A" stroke-width="1"/>
<rect x="28.0" y="378.0" width="2.0" height="12.0" fill="#2A2A4A"/>
<circle cx="36.0" cy="384.0" r="4.0" fill="#4ADE80"/>
<text x="44.0" y="387.0" font-family="JetBrains Mono, Noto Sans Mono CJK SC, Microsoft YaHei" font-size="12" fill="#A0A0B8" text-anchor="start" font-weight="normal">Test 1.1</text>
<rect x="346.0" y="380.0" width="40.0" height="18.0" rx="4" fill="#2A2A4A"/>
<text x="390.0" y="387.0" font-family="JetBrains Mono, Noto Sans Mono CJK SC, Microsoft YaHei" font-size="10" fill="#A0A0B8" text-anchor="end" font-weight="normal">10ms</text>
<rect x="28.0" y="392.0" width="2.0" height="12.0" fill="#2A2A4A"/>
<circle cx="36.0" cy="398.0" r="4.0" fill="#4ADE80"/>
<text x="44.0" y="401.0" font-family="JetBrains Mono, Noto Sans Mono CJK SC, Microsoft YaHei" font-size="12" fill="#A0A0B8" text-anchor="start" font-weight="normal">Test 1.2</text>
<rect x="346.0" y="394.0" width="40.0" height="18.0" rx="4" fill="#2A2A4A"/>
<text x="390.0" y="401.0" font-family="JetBrains Mono, Noto Sans Mono CJK SC, Microsoft YaHei" font-size="10" fill="#A0A0B8" text-anchor="end" font-weight="normal">15ms</text>
<rect x="8.0" y="420.0" width="398.0" height="88.0" rx="10" fill="#16213E" stroke="#2A2A4A" stroke-width="1"/>
<rect x="20.0" y="428.0" width="3.0" height="22.0" rx="2" fill="#0078D4"/>
<text x="31.0" y="432.0" font-family="JetBrains Mono, Noto Sans Mono CJK SC, Microsoft YaHei" font-size="13" fill="#E0E0E0" text-anchor="start" font-weight="bold">G2: Connectivity &amp; Security</text>
<text x="378.0" y="442.0" font-family="JetBrains Mono, Noto Sans Mono CJK SC, Microsoft YaHei" font-size="11" fill="#A0A0B8" text-anchor="end" font-weight="normal">6/6</text>
<rect x="322.0" y="428.0" width="26.0" height="18.0" rx="4" fill="rgba(74,222,128,0.15)"/>
<text x="335.0" y="440.0" font-family="JetBrains Mono, Noto Sans Mono CJK SC, Microsoft YaHei" font-size="10" fill="#4ADE80" text-anchor="middle" font-weight="bold">6</text>
<text x="392.0" y="432.0" font-family="JetBrains Mono, Noto Sans Mono CJK SC, Microsoft YaHei" font-size="10" fill="#A0A0B8" text-anchor="end" font-weight="normal">▼</text>
<rect x="20.0" y="458.0" width="374.0" height="4.0" rx="2" fill="#2A2A4A"/>
<rect x="20.0" y="458.0" width="374.0" height="4.0" rx="2" fill="#4ADE80"/>
<line x1="20.0" y1="466.0" x2="394.0" y2="466.0" stroke="#2A2A4A" stroke-width="1"/>
<rect x="28.0" y="470.0" width="2.0" height="12.0" fill="#2A2A4A"/>
<circle cx="36.0" cy="476.0" r="4.0" fill="#4ADE80"/>
<text x="44.0" y="479.0" font-family="JetBrains Mono, Noto Sans Mono CJK SC, Microsoft YaHei" font-size="12" fill="#A0A0B8" text-anchor="start" font-weight="normal">Test 2.1</text>
<rect x="346.0" y="472.0" width="40.0" height="18.0" rx="4" fill="#2A2A4A"/>
<text x="390.0" y="479.0" font-family="JetBrains Mono, Noto Sans Mono CJK SC, Microsoft YaHei" font-size="10" fill="#A0A0B8" text-anchor="end" font-weight="normal">10ms</text>
<rect x="28.0" y="484.0" width="2.0" height="12.0" fill="#2A2A4A"/>
<circle cx="36.0" cy="490.0" r="4.0" fill="#4ADE80"/>
<text x="44.0" y="493.0" font-family="JetBrains Mono, Noto Sans Mono CJK SC, Microsoft YaHei" font-size="12" fill="#A0A0B8" text-anchor="start" font-weight="normal">Test 2.2</text>
<rect x="346.0" y="486.0" width="40.0" height="18.0" rx="4" fill="#2A2A4A"/>
<text x="390.0" y="493.0" font-family="JetBrains Mono, Noto Sans Mono CJK SC, Microsoft YaHei" font-size="10" fill="#A0A0B8" text-anchor="end" font-weight="normal">15ms</text>
<rect x="8.0" y="512.0" width="398.0" height="72.0" rx="10" fill="#16213E" stroke="#2A2A4A" stroke-width="1"/>
<rect x="20.0" y="520.0" width="3.0" height="22.0" rx="2" fill="#0078D4"/>
<text x="31.0" y="524.0" font-family="JetBrains Mono, Noto Sans Mono CJK SC, Microsoft YaHei" font-size="13" fill="#E0E0E0" text-anchor="start" font-weight="bold">G3: Internet &amp; DNS</text>
<text x="378.0" y="534.0" font-family="JetBrains Mono, Noto Sans Mono CJK SC, Microsoft YaHei" font-size="11" fill="#A0A0B8" text-anchor="end" font-weight="normal">4/5</text>
<rect x="322.0" y="520.0" width="26.0" height="18.0" rx="4" fill="rgba(250,204,21,0.15)"/>
<text x="335.0" y="532.0" font-family="JetBrains Mono, Noto Sans Mono CJK SC, Microsoft YaHei" font-size="10" fill="#FACC15" text-anchor="middle" font-weight="bold">1</text>
<rect x="294.0" y="520.0" width="26.0" height="18.0" rx="4" fill="rgba(74,222,128,0.15)"/>
<text x="307.0" y="532.0" font-family="JetBrains Mono, Noto Sans Mono CJK SC, Microsoft YaHei" font-size="10" fill="#4ADE80" text-anchor="middle" font-weight="bold">4</text>
<text x="392.0" y="524.0" font-family="JetBrains Mono, Noto Sans Mono CJK SC, Microsoft YaHei" font-size="10" fill="#A0A0B8" text-anchor="end" font-weight="normal">▼</text>
<rect x="20.0" y="550.0" width="374.0" height="4.0" rx="2" fill="#2A2A4A"/>
<rect x="20.0" y="550.0" width="299.2" height="4.0" rx="2" fill="#4ADE80"/>
<line x1="20.0" y1="558.0" x2="394.0" y2="558.0" stroke="#2A2A4A" stroke-width="1"/>
<rect x="28.0" y="562.0" width="2.0" height="12.0" fill="#2A2A4A"/>
<circle cx="36.0" cy="568.0" r="4.0" fill="#4ADE80"/>
<text x="44.0" y="571.0" font-family="JetBrains Mono, Noto Sans Mono CJK SC, Microsoft YaHei" font-size="12" fill="#A0A0B8" text-anchor="start" font-weight="normal">Test 3.1</text>
<rect x="346.0" y="564.0" width="40.0" height="18.0" rx="4" fill="#2A2A4A"/>
<text x="390.0" y="571.0" font-family="JetBrains Mono, Noto Sans Mono CJK SC, Microsoft YaHei" font-size="10" fill="#A0A0B8" text-anchor="end" font-weight="normal">10ms</text>
<rect x="28.0" y="576.0" width="2.0" height="12.0" fill="#2A2A4A"/>
<circle cx="36.0" cy="582.0" r="4.0" fill="#4ADE80"/>
<text x="44.0" y="585.0" font-family="JetBrains Mono, Noto Sans Mono CJK SC, Microsoft YaHei" font-size="12" fill="#A0A0B8" text-anchor="start" font-weight="normal">Test 3.2</text>
<rect x="346.0" y="578.0" width="40.0" height="18.0" rx="4" fill="#2A2A4A"/>
<text x="390.0" y="585.0" font-family="JetBrains Mono, Noto Sans Mono CJK SC, Microsoft YaHei" font-size="10" fill="#A0A0B8" text-anchor="end" font-weight="normal">15ms</text>
<rect x="8.0" y="588.0" width="398.0" height="60.0" rx="10" fill="#16213E" stroke="#2A2A4A" stroke-width="1"/>
<rect x="20.0" y="596.0" width="3.0" height="22.0" rx="2" fill="#0078D4"/>
<text x="31.0" y="600.0" font-family="JetBrains Mono, Noto Sans Mono CJK SC, Microsoft YaHei" font-size="13" fill="#E0E0E0" text-anchor="start" font-weight="bold">G4: Remote Host</text>
<text x="378.0" y="610.0" font-family="JetBrains Mono, Noto Sans Mono CJK SC, Microsoft YaHei" font-size="11" fill="#A0A0B8" text-anchor="end" font-weight="normal">6/6</text>
<rect x="322.0" y="596.0" width="26.0" height="18.0" rx="4" fill="rgba(74,222,128,0.15)"/>
<text x="335.0" y="608.0" font-family="JetBrains Mono, Noto Sans Mono CJK SC, Microsoft YaHei" font-size="10" fill="#4ADE80" text-anchor="middle" font-weight="bold">6</text>
<text x="392.0" y="600.0" font-family="JetBrains Mono, Noto Sans Mono CJK SC, Microsoft YaHei" font-size="10" fill="#A0A0B8" text-anchor="end" font-weight="normal">▼</text>
<rect x="20.0" y="626.0" width="374.0" height="4.0" rx="2" fill="#2A2A4A"/>
<rect x="20.0" y="626.0" width="374.0" height="4.0" rx="2" fill="#4ADE80"/>
<line x1="20.0" y1="634.0" x2="394.0" y2="634.0" stroke="#2A2A4A" stroke-width="1"/>
<rect x="28.0" y="638.0" width="2.0" height="12.0" fill="#2A2A4A"/>
<circle cx="36.0" cy="644.0" r="4.0" fill="#4ADE80"/>
<text x="44.0" y="647.0" font-family="JetBrains Mono, Noto Sans Mono CJK SC, Microsoft YaHei" font-size="12" fill="#A0A0B8" text-anchor="start" font-weight="normal">Test 4.1</text>
<rect x="346.0" y="640.0" width="40.0" height="18.0" rx="4" fill="#2A2A4A"/>
<text x="390.0" y="647.0" font-family="JetBrains Mono, Noto Sans Mono CJK SC, Microsoft YaHei" font-size="10" fill="#A0A0B8" text-anchor="end" font-weight="normal">10ms</text>
<rect x="8.0" y="652.0" width="398.0" height="60.0" rx="10" fill="#16213E" stroke="#2A2A4A" stroke-width="1"/>
<rect x="20.0" y="660.0" width="3.0" height="22.0" rx="2" fill="#0078D4"/>
<text x="31.0" y="664.0" font-family="JetBrains Mono, Noto Sans Mono CJK SC, Microsoft YaHei" font-size="13" fill="#E0E0E0" text-anchor="start" font-weight="bold">G5: Website / URL</text>
<text x="378.0" y="674.0" font-family="JetBrains Mono, Noto Sans Mono CJK SC, Microsoft YaHei" font-size="11" fill="#A0A0B8" text-anchor="end" font-weight="normal">8/13</text>
<rect x="322.0" y="660.0" width="26.0" height="18.0" rx="4" fill="rgba(136,136,136,0.15)"/>
<text x="335.0" y="672.0" font-family="JetBrains Mono, Noto Sans Mono CJK SC, Microsoft YaHei" font-size="10" fill="#888888" text-anchor="middle" font-weight="bold">1</text>
<rect x="294.0" y="660.0" width="26.0" height="18.0" rx="4" fill="rgba(239,68,68,0.15)"/>
<text x="307.0" y="672.0" font-family="JetBrains Mono, Noto Sans Mono CJK SC, Microsoft YaHei" font-size="10" fill="#EF4444" text-anchor="middle" font-weight="bold">1</text>
<rect x="266.0" y="660.0" width="26.0" height="18.0" rx="4" fill="rgba(250,204,21,0.15)"/>
<text x="279.0" y="672.0" font-family="JetBrains Mono, Noto Sans Mono CJK SC, Microsoft YaHei" font-size="10" fill="#FACC15" text-anchor="middle" font-weight="bold">3</text>
<rect x="238.0" y="660.0" width="26.0" height="18.0" rx="4" fill="rgba(74,222,128,0.15)"/>
<text x="251.0" y="672.0" font-family="JetBrains Mono, Noto Sans Mono CJK SC, Microsoft YaHei" font-size="10" fill="#4ADE80" text-anchor="middle" font-weight="bold">8</text>
<text x="392.0" y="664.0" font-family="JetBrains Mono, Noto Sans Mono CJK SC, Microsoft YaHei" font-size="10" fill="#A0A0B8" text-anchor="end" font-weight="normal">▼</text>
<rect x="20.0" y="690.0" width="374.0" height="4.0" rx="2" fill="#2A2A4A"/>
<rect x="20.0" y="690.0" width="230.2" height="4.0" rx="2" fill="#4ADE80"/>
<line x1="20.0" y1="698.0" x2="394.0" y2="698.0" stroke="#2A2A4A" stroke-width="1"/>
<rect x="28.0" y="702.0" width="2.0" height="12.0" fill="#2A2A4A"/>
<circle cx="36.0" cy="708.0" r="4.0" fill="#4ADE80"/>
<text x="44.0" y="711.0" font-family="JetBrains Mono, Noto Sans Mono CJK SC, Microsoft YaHei" font-size="12" fill="#A0A0B8" text-anchor="start" font-weight="normal">Test 5.1</text>
<rect x="346.0" y="704.0" width="40.0" height="18.0" rx="4" fill="#2A2A4A"/>
<text x="390.0" y="711.0" font-family="JetBrains Mono, Noto Sans Mono CJK SC, Microsoft YaHei" font-size="10" fill="#A0A0B8" text-anchor="end" font-weight="normal">10ms</text>
</svg>