<?xml version="1.0" encoding="UTF-8"?>
<svg xmlns="http://www.w3.org/2000/svg" viewBox="0 0 414 896" width="414" height="896">
<rect x="0.0" y="0.0" width="414.0" height="32.0" fill="#1A1A2E"/>
<text x="212.0" y="19.0" font-family="JetBrains Mono, Noto Sans Mono CJK SC, Microsoft YaHei" font-size="14" fill="rgba(224,224,224,0.55)" text-anchor="middle" font-weight="normal">⊞</text>
<rect x="234.0" y="0.0" width="44.0" height="32.0" rx="6" fill="rgba(0,188,212,0.12)"/>
<text x="256.0" y="19.0" font-family="JetBrains Mono, Noto Sans Mono CJK SC, Microsoft YaHei" font-size="14" fill="#00BCD4" text-anchor="middle" font-weight="normal">⚡</text>
<text x="300.0" y="19.0" font-family="JetBrains Mono, Noto Sans Mono CJK SC, Microsoft YaHei" font-size="14" fill="rgba(224,224,224,0.55)" text-anchor="middle" font-weight="normal">⚙</text>
<text x="344.0" y="19.0" font-family="JetBrains Mono, Noto Sans Mono CJK SC, Microsoft YaHei" font-size="14" fill="rgba(224,224,224,0.55)" text-anchor="middle" font-weight="normal">📄</text>
<text x="388.0" y="19.0" font-family="JetBrains Mono, Noto Sans Mono CJK SC, Microsoft YaHei" font-size="14" fill="rgba(224,224,224,0.55)" text-anchor="middle" font-weight="normal">⚙</text>
<rect x="0.0" y="32.0" width="414.0" height="251.0" fill="#252538"/>
<rect x="0.0" y="32.0" width="414.0" height="48.0" fill="transparent" stroke="#3A3A5A" stroke-width="1"/>
<text x="16.0" y="62.0" font-family="JetBrains Mono, Noto Sans Mono CJK SC, Microsoft YaHei" font-size="16" fill="#E0E0E0" text-anchor="start" font-weight="bold">NetDiagnostics</text>
<text x="12.0" y="92.0" font-family="JetBrains Mono, Noto Sans Mono CJK SC, Microsoft YaHei" font-size="11" fill="#A0A0B8" text-anchor="start" font-weight="bold">Target</text>
<rect x="12.0" y="110.0" width="390.0" height="40.0" rx="8" fill="#2A2A4A" stroke="#3A3A5A" stroke-width="1"/>
<text x="22.0" y="135.0" font-family="JetBrains Mono, Noto Sans Mono CJK SC, Microsoft YaHei" font-size="11" fill="rgba(160,160,184,0.4)" text-anchor="start" font-weight="normal">Enter URL, IP address, or hostname...</text>
<rect x="12.0" y="158.0" width="342.0" height="38.0" rx="8" fill="#0078D4"/>
<text x="183.0" y="183.0" font-family="JetBrains Mono, Noto Sans Mono CJK SC, Microsoft YaHei" font-size="12" fill="#FFFFFF" text-anchor="middle" font-weight="bold">▶ Run Diagnostics</text>
<rect x="360.0" y="158.0" width="42.0" height="38.0" rx="8" fill="transparent" stroke="rgba(239,68,68,0.5)" stroke-width="1"/>
<text x="381.0" y="183.0" font-family="JetBrains Mono, Noto Sans Mono CJK SC, Microsoft YaHei" font-size="12" fill="#EF4444" text-anchor="middle" font-weight="normal">■</text>
<line x1="0.0" y1="282.0" x2="414.0" y2="282.0" stroke="#3A3A5A" stroke-width="1"/>
<rect x="0.0" y="283.0" width="414.0" height="41.0" fill="#1A1A2E"/>
<text x="16.0" y="309.0" font-family="JetBrains Mono, Noto Sans Mono CJK SC, Microsoft YaHei" font-size="15" fill="#E0E0E0" text-anchor="start" font-weight="bold">Results</text>
<text x="398.0" y="309.0" font-family="JetBrains Mono, Noto Sans Mono CJK SC, Microsoft YaHei" font-size="12" fill="#00BCD4" text-anchor="end" font-weight="bold">38 / 38</text>
<rect x="8.0" y="328.0" width="398.0" height="95.0" rx="10" fill="#16213E" stroke="#2A2A4A" stroke-width="1"/>
<rect x="20.0" y="336.0" width="3.0" height="22.0" rx="2" fill="#0078D4"/>
<text x="31.0" y="340.0" font-family="JetBrains Mono, Noto Sans Mono CJK SC, Microsoft YaHei" font-size="13" fill="#E0E0E0" text-anchor="start" font-weight="bold">G1: System &amp; Adapters</text>
<text x="376.0" y="350.0" font-family="JetBrains Mono, Noto Sans Mono CJK SC, Microsoft YaHei" font-size="11" fill="#A0A0B8" text-anchor="end" font-weight="normal">8/8</text>
<text x="390.0" y="340.0" font-family="JetBrains Mono, Noto Sans Mono CJK SC, Microsoft YaHei" font-size="10" fill="#A0A0B8" text-anchor="end" font-weight="normal">▼</text>
<rect x="328.0" y="336.0" width="26.0" height="18.0" rx="4" fill="rgba(74,222,128,0.15)"/>
<text x="341.0" y="348.0" font-family="JetBrains Mono, Noto Sans Mono CJK SC, Microsoft YaHei" font-size="10" fill="#4ADE80" text-anchor="middle" font-weight="bold">8</text>
<rect x="20.0" y="366.0" width="374.0" height="4.0" rx="2" fill="#2A2A4A"/>
<rect x="20.0" y="366.0" width="374.0" height="4.0" rx="2" fill="#4ADE80"/>
<line x1="20.0" y1="374.0" x2="394.0" y2="374.0" stroke="#2A2A4A" stroke-width="1"/>
<rect x="28.0" y="378.0" width="2.0" height="12.0" fill="#2A2A4A"/>
<circle cx="36.0" cy="384.0" r="4.0" fill="#4ADE80"/>
<text x="44.0" y="387.0" font-family="JetBrains Mono, Noto Sans Mono CJK SC, Microsoft YaHei" font-size="10" fill="#A0A0B8" text-anchor="start" font-weight="normal">Test 1.1</text>
<text x="390.0" y="387.0" font-family="JetBrains Mono, Noto Sans Mono CJK SC, Microsoft YaHei" font-size="10" fill="rgba(160,160,184,0.6)" text-anchor="end" font-weight="normal">10ms</text>
<rect x="28.0" y="392.0" width="2.0" height="12.0" fill="#2A2A4A"/>
<circle cx="36.0" cy="398.0" r="4.0" fill="#4ADE80"/>
<text x="44.0" y="401.0" font-family="JetBrains Mono, Noto Sans Mono CJK SC, Microsoft YaHei" font-size="10" fill="#A0A0B8" text-anchor="start" font-weight="normal">Test 1.2</text>
<text x="390.0" y="401.0" font-family="JetBrains Mono, Noto Sans Mono CJK SC, Microsoft YaHei" font-size="10" fill="rgba(160,160,184,0.6)" text-anchor="end" font-weight="normal">15ms</text>
<rect x="28.0" y="406.0" width="2.0" height="12.0" fill="#2A2A4A"/>
<circle cx="36.0" cy="412.0" r="4.0" fill="#4ADE80"/>
<text x="44.0" y="415.0" font-family="JetBrains Mono, Noto Sans Mono CJK SC, Microsoft YaHei" font-size="10" fill="#A0A0B8" text-anchor="start" font-weight="normal">Test 1.3</text>
<text x="390.0" y="415.0" font-family="JetBrains Mono, Noto Sans Mono CJK SC, Microsoft YaHei" font-size="10" fill="rgba(160,160,184,0.6)" text-anchor="end" font-weight="normal">20ms</text>
<rect x="8.0" y="427.0" width="398.0" height="89.0" rx="10" fill="#16213E" stroke="#2A2A4A" stroke-width="1"/>
<rect x="20.0" y="435.0" width="3.0" height="22.0" rx="2" fill="#0078D4"/>
<text x="31.0" y="439.0" font-family="JetBrains Mono, Noto Sans Mono CJK SC, Microsoft YaHei" font-size="13" fill="#E0E0E0" text-anchor="start" font-weight="bold">G2: Connectivity &amp; Security</text>
<text x="376.0" y="449.0" font-family="JetBrains Mono, Noto Sans Mono CJK SC, Microsoft YaHei" font-size="11" fill="#A0A0B8" text-anchor="end" font-weight="normal">6/6</text>
<text x="390.0" y="439.0" font-family="JetBrains Mono, Noto Sans Mono CJK SC, Microsoft YaHei" font-size="10" fill="#A0A0B8" text-anchor="end" font-weight="normal">▼</text>
<rect x="328.0" y="435.0" width="26.0" height="18.0" rx="4" fill="rgba(74,222,128,0.15)"/>
<text x="341.0" y="447.0" font-family="JetBrains Mono, Noto Sans Mono CJK SC, Microsoft YaHei" font-size="10" fill="#4ADE80" text-anchor="middle" font-weight="bold">6</text>
<rect x="20.0" y="465.0" width="374.0" height="4.0" rx="2" fill="#2A2A4A"/>
<rect x="20.0" y="465.0" width="374.0" height="4.0" rx="2" fill="#4ADE80"/>
<line x1="20.0" y1="473.0" x2="394.0" y2="473.0" stroke="#2A2A4A" stroke-width="1"/>
<rect x="28.0" y="477.0" width="2.0" height="12.0" fill="#2A2A4A"/>
<circle cx="36.0" cy="483.0" r="4.0" fill="#4ADE80"/>
<text x="44.0" y="486.0" font-family="JetBrains Mono, Noto Sans Mono CJK SC, Microsoft YaHei" font-size="10" fill="#A0A0B8" text-anchor="start" font-weight="normal">Test 2.1</text>
<text x="390.0" y="486.0" font-family="JetBrains Mono, Noto Sans Mono CJK SC, Microsoft YaHei" font-size="10" fill="rgba(160,160,184,0.6)" text-anchor="end" font-weight="normal">10ms</text>
<rect x="28.0" y="491.0" width="2.0" height="12.0" fill="#2A2A4A"/>
<circle cx="36.0" cy="497.0" r="4.0" fill="#4ADE80"/>
<text x="44.0" y="500.0" font-family="JetBrains Mono, Noto Sans Mono CJK SC, Microsoft YaHei" font-size="10" fill="#A0A0B8" text-anchor="start" font-weight="normal">Test 2.2</text>
<text x="390.0" y="500.0" font-family="JetBrains Mono, Noto Sans Mono CJK SC, Microsoft YaHei" font-size="10" fill="rgba(160,160,184,0.6)" text-anchor="end" font-weight="normal">15ms</text>
<rect x="28.0" y="505.0" width="2.0" height="12.0" fill="#2A2A4A"/>
<circle cx="36.0" cy="511.0" r="4.0" fill="#4ADE80"/>
<text x="44.0" y="514.0" font-family="JetBrains Mono, Noto Sans Mono CJK SC, Microsoft YaHei" font-size="10" fill="#A0A0B8" text-anchor="start" font-weight="normal">Test 2.3</text>
<text x="390.0" y="514.0" font-family="JetBrains Mono, Noto Sans Mono CJK SC, Microsoft YaHei" font-size="10" fill="rgba(160,160,184,0.6)" text-anchor="end" font-weight="normal">20ms</text>
<rect x="8.0" y="520.0" width="398.0" height="71.0" rx="10" fill="#16213E" stroke="#2A2A4A" stroke-width="1"/>
<rect x="20.0" y="528.0" width="3.0" height="22.0" rx="2" fill="#0078D4"/>
<text x="31.0" y="532.0" font-family="JetBrains Mono, Noto Sans Mono CJK SC, Microsoft YaHei" font-size="13" fill="#E0E0E0" text-anchor="start" font-weight="bold">G3: Internet &amp; DNS</text>
<text x="376.0" y="542.0" font-family="JetBrains Mono, Noto Sans Mono CJK SC, Microsoft YaHei" font-size="11" fill="#A0A0B8" text-anchor="end" font-weight="normal">4/5</text>
<text x="390.0" y="532.0" font-family="JetBrains Mono, Noto Sans Mono CJK SC, Microsoft YaHei" font-size="10" fill="#A0A0B8" text-anchor="end" font-weight="normal">▼</text>
<rect x="328.0" y="528.0" width="26.0" height="18.0" rx="4" fill="rgba(250,204,21,0.15)"/>
<text x="341.0" y="540.0" font-family="JetBrains Mono, Noto Sans Mono CJK SC, Microsoft YaHei" font-size="10" fill="#FACC15" text-anchor="middle" font-weight="bold">1</text>
<rect x="300.0" y="528.0" width="26.0" height="18.0" rx="4" fill="rgba(74,222,128,0.15)"/>
<text x="313.0" y="540.0" font-family="JetBrains Mono, Noto Sans Mono CJK SC, Microsoft YaHei" font-size="10" fill="#4ADE80" text-anchor="middle" font-weight="bold">4</text>
<rect x="20.0" y="558.0" width="374.0" height="4.0" rx="2" fill="#2A2A4A"/>
<rect x="20.0" y="558.0" width="299.2" height="4.0" rx="2" fill="#FACC15"/>
<line x1="20.0" y1="566.0" x2="394.0" y2="566.0" stroke="#2A2A4A" stroke-width="1"/>
<rect x="28.0" y="570.0" width="2.0" height="12.0" fill="#2A2A4A"/>
<circle cx="36.0" cy="576.0" r="4.0" fill="#4ADE80"/>
<text x="44.0" y="579.0" font-family="JetBrains Mono, Noto Sans Mono CJK SC, Microsoft YaHei" font-size="10" fill="#A0A0B8" text-anchor="start" font-weight="normal">Test 3.1</text>
<text x="390.0" y="579.0" font-family="JetBrains Mono, Noto Sans Mono CJK SC, Microsoft YaHei" font-size="10" fill="rgba(160,160,184,0.6)" text-anchor="end" font-weight="normal">10ms</text>
<rect x="28.0" y="584.0" width="2.0" height="12.0" fill="#2A2A4A"/>
<circle cx="36.0" cy="590.0" r="4.0" fill="#4ADE80"/>
<text x="44.0" y="593.0" font-family="JetBrains Mono, Noto Sans Mono CJK SC, Microsoft YaHei" font-size="10" fill="#A0A0B8" text-anchor="start" font-weight="normal">Test 3.2</text>
<text x="390.0" y="593.0" font-family="JetBrains Mono, Noto Sans Mono CJK SC, Microsoft YaHei" font-size="10" fill="rgba(160,160,184,0.6)" text-anchor="end" font-weight="normal">15ms</text>
<rect x="8.0" y="595.0" width="398.0" height="70.0" rx="10" fill="#16213E" stroke="#2A2A4A" stroke-width="1"/>
<rect x="20.0" y="603.0" width="3.0" height="22.0" rx="2" fill="#0078D4"/>
<text x="31.0" y="607.0" font-family="JetBrains Mono, Noto Sans Mono CJK SC, Microsoft YaHei" font-size="13" fill="#E0E0E0" text-anchor="start" font-weight="bold">G4: Remote Host</text>
<text x="376.0" y="617.0" font-family="JetBrains Mono, Noto Sans Mono CJK SC, Microsoft YaHei" font-size="11" fill="#A0A0B8" text-anchor="end" font-weight="normal">6/6</text>
<text x="390.0" y="607.0" font-family="JetBrains Mono, Noto Sans Mono CJK SC, Microsoft YaHei" font-size="10" fill="#A0A0B8" text-anchor="end" font-weight="normal">▼</text>
<rect x="328.0" y="603.0" width="26.0" height="18.0" rx="4" fill="rgba(74,222,128,0.15)"/>
<text x="341.0" y="615.0" font-family="JetBrains Mono, Noto Sans Mono CJK SC, Microsoft YaHei" font-size="10" fill="#4ADE80" text-anchor="middle" font-weight="bold">6</text>
<rect x="20.0" y="633.0" width="374.0" height="4.0" rx="2" fill="#2A2A4A"/>
<rect x="20.0" y="633.0" width="374.0" height="4.0" rx="2" fill="#4ADE80"/>
<line x1="20.0" y1="641.0" x2="394.0" y2="641.0" stroke="#2A2A4A" stroke-width="1"/>
<rect x="28.0" y="645.0" width="2.0" height="12.0" fill="#2A2A4A"/>
<circle cx="36.0" cy="651.0" r="4.0" fill="#4ADE80"/>
<text x="44.0" y="654.0" font-family="JetBrains Mono, Noto Sans Mono CJK SC, Microsoft YaHei" font-size="10" fill="#A0A0B8" text-anchor="start" font-weight="normal">Test 4.1</text>
<text x="390.0" y="654.0" font-family="JetBrains Mono, Noto Sans Mono CJK SC, Microsoft YaHei" font-size="10" fill="rgba(160,160,184,0.6)" text-anchor="end" font-weight="normal">10ms</text>
<rect x="28.0" y="659.0" width="2.0" height="12.0" fill="#2A2A4A"/>
<circle cx="36.0" cy="665.0" r="4.0" fill="#4ADE80"/>
<text x="44.0" y="668.0" font-family="JetBrains Mono, Noto Sans Mono CJK SC, Microsoft YaHei" font-size="10" fill="#A0A0B8" text-anchor="start" font-weight="normal">Test 4.2</text>
<text x="390.0" y="668.0" font-family="JetBrains Mono, Noto Sans Mono CJK SC, Microsoft YaHei" font-size="10" fill="rgba(160,160,184,0.6)" text-anchor="end" font-weight="normal">15ms</text>
<rect x="8.0" y="669.0" width="398.0" height="70.0" rx="10" fill="#16213E" stroke="#2A2A4A" stroke-width="1"/>
<rect x="20.0" y="677.0" width="3.0" height="22.0" rx="2" fill="#0078D4"/>
<text x="31.0" y="681.0" font-family="JetBrains Mono, Noto Sans Mono CJK SC, Microsoft YaHei" font-size="13" fill="#E0E0E0" text-anchor="start" font-weight="bold">G5: Website / URL</text>
<text x="376.0" y="691.0" font-family="JetBrains Mono, Noto Sans Mono CJK SC, Microsoft YaHei" font-size="11" fill="#A0A0B8" text-anchor="end" font-weight="normal">8/13</text>
<text x="390.0" y="681.0" font-family="JetBrains Mono, Noto Sans Mono CJK SC, Microsoft YaHei" font-size="10" fill="#A0A0B8" text-anchor="end" font-weight="normal">▼</text>
<rect x="328.0" y="677.0" width="26.0" height="18.0" rx="4" fill="rgba(136,136,136,0.15)"/>
<text x="341.0" y="689.0" font-family="JetBrains Mono, Noto Sans Mono CJK SC, Microsoft YaHei" font-size="10" fill="#888888" text-anchor="middle" font-weight="bold">1</text>
<rect x="300.0" y="677.0" width="26.0" height="18.0" rx="4" fill="rgba(239,68,68,0.15)"/>
<text x="313.0" y="689.0" font-family="JetBrains Mono, Noto Sans Mono CJK SC, Microsoft YaHei" font-size="10" fill="#EF4444" text-anchor="middle" font-weight="bold">1</text>
<rect x="272.0" y="677.0" width="26.0" height="18.0" rx="4" fill="rgba(250,204,21,0.15)"/>
<text x="285.0" y="689.0" font-family="JetBrains Mono, Noto Sans Mono CJK SC, Microsoft YaHei" font-size="10" fill="#FACC15" text-anchor="middle" font-weight="bold">3</text>
<rect x="244.0" y="677.0" width="26.0" height="18.0" rx="4" fill="rgba(74,222,128,0.15)"/>
<text x="257.0" y="689.0" font-family="JetBrains Mono, Noto Sans Mono CJK SC, Microsoft YaHei" font-size="10" fill="#4ADE80" text-anchor="middle" font-weight="bold">8</text>
<rect x="20.0" y="707.0" width="374.0" height="4.0" rx="2" fill="#2A2A4A"/>
<rect x="20.0" y="707.0" width="230.2" height="4.0" rx="2" fill="#EF4444"/>
<line x1="20.0" y1="715.0" x2="394.0" y2="715.0" stroke="#2A2A4A" stroke-width="1"/>
<rect x="28.0" y="719.0" width="2.0" height="12.0" fill="#2A2A4A"/>
<circle cx="36.0" cy="725.0" r="4.0" fill="#4ADE80"/>
<text x="44.0" y="728.0" font-family="JetBrains Mono, Noto Sans Mono CJK SC, Microsoft YaHei" font-size="10" fill="#A0A0B8" text-anchor="start" font-weight="normal">Test 5.1</text>
<text x="390.0" y="728.0" font-family="JetBrains Mono, Noto Sans Mono CJK SC, Microsoft YaHei" font-size="10" fill="rgba(160,160,184,0.6)" text-anchor="end" font-weight="normal">10ms</text>
<rect x="28.0" y="733.0" width="2.0" height="12.0" fill="#2A2A4A"/>
<circle cx="36.0" cy="739.0" r="4.0" fill="#4ADE80"/>
<text x="44.0" y="742.0" font-family="JetBrains Mono, Noto Sans Mono CJK SC, Microsoft YaHei" font-size="10" fill="#A0A0B8" text-anchor="start" font-weight="normal">Test 5.2</text>
<text x="390.0" y="742.0" font-family="JetBrains Mono, Noto Sans Mono CJK SC, Microsoft YaHei" font-size="10" fill="rgba(160,160,184,0.6)" text-anchor="end" font-weight="normal">15ms</text>
</svg>