<?xml version="1.0" encoding="UTF-8"?>
<svg xmlns="http://www.w3.org/2000/svg" viewBox="0 0 375 812" width="375" height="812">
<rect width="375" height="812" fill="#1E1E2E"/>
<g>
<rect x="0" y="0" width="375" height="44" fill="#000"></rect><text x="16" y="32" fill="#00BCD4" font-family="JetBrains Mono,monospace" font-size="13" font-weight="bold">Report</text><g>
<rect x="0" y="762" width="75" height="50" fill="transparent" stroke="#3A3A5A" stroke-width="1"></rect><text x="17" y="791" fill="#606080" font-family="JetBrains Mono,monospace" font-size="9">Dashboard</text><rect x="75" y="762" width="75" height="50" fill="transparent" stroke="#3A3A5A" stroke-width="1"></rect><text x="92" y="791" fill="#606080" font-family="JetBrains Mono,monospace" font-size="9">Diag</text><rect x="150" y="762" width="75" height="50" fill="transparent" stroke="#3A3A5A" stroke-width="1"></rect><text x="167" y="791" fill="#606080" font-family="JetBrains Mono,monospace" font-size="9">Config</text><rect x="225" y="762" width="75" height="50" fill="#00BCD4" stroke="#3A3A5A" stroke-width="1"></rect><text x="242" y="791" fill="#00BCD4" font-family="JetBrains Mono,monospace" font-size="9">Report</text><rect x="300" y="762" width="75" height="50" fill="transparent" stroke="#3A3A5A" stroke-width="1"></rect><text x="317" y="791" fill="#606080" font-family="JetBrains Mono,monospace" font-size="9">Settings</text>
</g><rect x="151" y="84" width="72" height="72" fill="#00BCD414" rx="24" stroke="#00BCD433" stroke-width="1"></rect><text x="187" y="172" fill="#E0E0E0" font-family="JetBrains Mono,monospace" font-size="19" font-weight="bold">Report Preview</text><text x="187" y="200" fill="#A0A0B8" font-family="JetBrains Mono,monospace" font-size="12">Export your diagnostic results</text><text x="187" y="220" fill="#A0A0B8" font-family="JetBrains Mono,monospace" font-size="12">as PDF or HTML.</text><g>
<rect x="37" y="250" width="300" height="36" fill="#00BCD4" rx="6" stroke="transparent" stroke-width="1"></rect><text x="187" y="272" fill="#1E1E2E" font-family="JetBrains Mono,monospace" font-size="11" font-weight="bold">Preview PDF (summary)</text>
</g><g>
<rect x="37" y="296" width="300" height="36" fill="#0078D4" rx="6" stroke="transparent" stroke-width="1"></rect><text x="187" y="318" fill="#1E1E2E" font-family="JetBrains Mono,monospace" font-size="11" font-weight="bold">Preview HTML (full)</text>
</g><rect x="37" y="352" width="300" height="120" fill="#16213E" rx="10" stroke="#3A3A5A" stroke-width="1"></rect><text x="187" y="372" fill="#FACC15" font-family="JetBrains Mono,monospace" font-size="12" font-weight="bold">PREMIUM FEATURE</text><text x="187" y="390" fill="#A0A0B8" font-family="JetBrains Mono,monospace" font-size="10">Sharing is a Premium feature.</text><text x="187" y="404" fill="#A0A0B8" font-family="JetBrains Mono,monospace" font-size="10">One-time purchase for all devices.</text><g>
<rect x="51" y="420" width="272" height="34" fill="#FACC15" rx="6" stroke="transparent" stroke-width="1"></rect><text x="187" y="441" fill="#1E1E2E" font-family="JetBrains Mono,monospace" font-size="11" font-weight="bold">Unlock Premium</text>
</g><rect x="67" y="432" width="240" height="34" fill="#4ADE8014" rx="8" stroke="#4ADE8033" stroke-width="1"></rect><text x="187" y="454" fill="#4ADE80" font-family="JetBrains Mono,monospace" font-size="11">38 results available</text>
</g>
</svg>