<?xml version="1.0" encoding="UTF-8"?>
<svg xmlns="http://www.w3.org/2000/svg" viewBox="0 0 375 812" width="375" height="812">
<rect width="375" height="812" fill="#1E1E2E"/>
<g>
<rect x="0" y="0" width="375" height="44" fill="#000"></rect><text x="16" y="32" fill="#00BCD4" font-family="JetBrains Mono,monospace" font-size="13" font-weight="bold">Settings</text><g>
<rect x="0" y="762" width="75" height="50" fill="transparent" stroke="#3A3A5A" stroke-width="1"></rect><text x="17" y="791" fill="#606080" font-family="JetBrains Mono,monospace" font-size="9">Dashboard</text><rect x="75" y="762" width="75" height="50" fill="transparent" stroke="#3A3A5A" stroke-width="1"></rect><text x="92" y="791" fill="#606080" font-family="JetBrains Mono,monospace" font-size="9">Diag</text><rect x="150" y="762" width="75" height="50" fill="transparent" stroke="#3A3A5A" stroke-width="1"></rect><text x="167" y="791" fill="#606080" font-family="JetBrains Mono,monospace" font-size="9">Config</text><rect x="225" y="762" width="75" height="50" fill="transparent" stroke="#3A3A5A" stroke-width="1"></rect><text x="242" y="791" fill="#606080" font-family="JetBrains Mono,monospace" font-size="9">Report</text><rect x="300" y="762" width="75" height="50" fill="#00BCD4" stroke="#3A3A5A" stroke-width="1"></rect><text x="317" y="791" fill="#00BCD4" font-family="JetBrains Mono,monospace" font-size="9">Settings</text>
</g><g>
<rect x="16" y="60" width="343" height="82" fill="#16213E" rx="8" stroke="#3A3A5A" stroke-width="1"></rect><text x="30" y="84" fill="#00BCD4" font-family="JetBrains Mono,monospace" font-size="12" font-weight="bold">Language</text><text x="30" y="118" fill="#A0A0B8" font-family="JetBrains Mono,monospace" font-size="10">Interface Language</text><text x="309" y="118" fill="#E0E0E0" font-family="JetBrains Mono,monospace" font-size="10">English  ▼</text>
</g><g>
<rect x="16" y="130" width="343" height="82" fill="#16213E" rx="8" stroke="#3A3A5A" stroke-width="1"></rect><text x="30" y="154" fill="#00BCD4" font-family="JetBrains Mono,monospace" font-size="12" font-weight="bold">Premium Feature</text><text x="30" y="188" fill="#A0A0B8" font-family="JetBrains Mono,monospace" font-size="10">Status</text><text x="309" y="188" fill="#E0E0E0" font-family="JetBrains Mono,monospace" font-size="10">Locked</text>
</g><g>
<rect x="30" y="210" width="315" height="36" fill="transparent" rx="6" stroke="#FACC15" stroke-width="1"></rect><text x="187" y="232" fill="#FACC15" font-family="JetBrains Mono,monospace" font-size="11" font-weight="bold">Restore Purchases</text>
</g><g>
<rect x="16" y="262" width="343" height="126" fill="#16213E" rx="8" stroke="#3A3A5A" stroke-width="1"></rect><text x="30" y="286" fill="#00BCD4" font-family="JetBrains Mono,monospace" font-size="12" font-weight="bold">About</text><text x="30" y="320" fill="#A0A0B8" font-family="JetBrains Mono,monospace" font-size="10">NetDiagnostics PRO</text><text x="309" y="320" fill="#E0E0E0" font-family="JetBrains Mono,monospace" font-size="10">v0.0.1</text><text x="30" y="342" fill="#A0A0B8" font-family="JetBrains Mono,monospace" font-size="10"></text><text x="309" y="342" fill="#E0E0E0" font-family="JetBrains Mono,monospace" font-size="10">Cross-platform network</text><text x="30" y="364" fill="#A0A0B8" font-family="JetBrains Mono,monospace" font-size="10"></text><text x="309" y="364" fill="#E0E0E0" font-family="JetBrains Mono,monospace" font-size="10">diagnostic toolkit.</text>
</g>
</g>
</svg>