<svg xmlns="http://www.w3.org/2000/svg" viewBox="0 0 24 24" fill="none" stroke="currentColor" stroke-width="2" stroke-linecap="round" stroke-linejoin="round">
  <!-- Bug body -->
  <path d="M8 4h8"/>
  <path d="M8 4a4 4 0 0 0-4 4v2"/>
  <path d="M16 4a4 4 0 0 1 4 4v2"/>
  <!-- Wings -->
  <path d="M6 10h12v5a3 3 0 0 1-3 3H9a3 3 0 0 1-3-3Z"/>
  <!-- Legs -->
  <path d="M6 12 2 9"/>
  <path d="M6 14 2 16"/>
  <path d="M18 12l4-3"/>
  <path d="M18 14l4 2"/>
  <!-- Antennae -->
  <path d="M9 4 8 1"/>
  <path d="M15 4l1-3"/>
</svg>