<?xml version="1.0" encoding="UTF-8"?>
<svg xmlns="http://www.w3.org/2000/svg" viewBox="0 0 450 980" width="450" height="980">
<rect x="0.0" y="0.0" width="450.0" height="32.0" fill="#1A1A2E"/>
<text x="248.0" y="19.0" font-family="JetBrains Mono, Noto Sans Mono CJK SC, Microsoft YaHei" font-size="14" fill="rgba(224,224,224,0.55)" text-anchor="middle" font-weight="normal">⊞</text>
<rect x="270.0" y="0.0" width="44.0" height="32.0" rx="6" fill="rgba(0,188,212,0.12)"/>
<text x="292.0" y="19.0" font-family="JetBrains Mono, Noto Sans Mono CJK SC, Microsoft YaHei" font-size="14" fill="#00BCD4" text-anchor="middle" font-weight="normal">⚡</text>
<text x="336.0" y="19.0" font-family="JetBrains Mono, Noto Sans Mono CJK SC, Microsoft YaHei" font-size="14" fill="rgba(224,224,224,0.55)" text-anchor="middle" font-weight="normal">⚙</text>
<text x="380.0" y="19.0" font-family="JetBrains Mono, Noto Sans Mono CJK SC, Microsoft YaHei" font-size="14" fill="rgba(224,224,224,0.55)" text-anchor="middle" font-weight="normal">📄</text>
<text x="424.0" y="19.0" font-family="JetBrains Mono, Noto Sans Mono CJK SC, Microsoft YaHei" font-size="14" fill="rgba(224,224,224,0.55)" text-anchor="middle" font-weight="normal">⚙</text>
<rect x="0.0" y="32.0" width="450.0" height="274.0" fill="#252538"/>
<rect x="0.0" y="32.0" width="450.0" height="48.0" fill="transparent" stroke="#3A3A5A" stroke-width="1"/>
<text x="16.0" y="62.0" font-family="JetBrains Mono, Noto Sans Mono CJK SC, Microsoft YaHei" font-size="16" fill="#E0E0E0" text-anchor="start" font-weight="bold">NetDiagnostics</text>
<text x="12.0" y="92.0" font-family="JetBrains Mono, Noto Sans Mono CJK SC, Microsoft YaHei" font-size="11" fill="#A0A0B8" text-anchor="start" font-weight="bold">Target</text>
<rect x="12.0" y="104.0" width="426.0" height="40.0" rx="8" fill="#2A2A4A" stroke="#3A3A5A" stroke-width="1"/>
<text x="22.0" y="129.0" font-family="JetBrains Mono, Noto Sans Mono CJK SC, Microsoft YaHei" font-size="12" fill="rgba(160,160,184,0.4)" text-anchor="start" font-weight="normal">Enter URL, IP address, or hostname...</text>
<rect x="12.0" y="152.0" width="378.0" height="38.0" rx="8" fill="#0078D4"/>
<text x="201.0" y="177.0" font-family="JetBrains Mono, Noto Sans Mono CJK SC, Microsoft YaHei" font-size="12" fill="#FFFFFF" text-anchor="middle" font-weight="bold">▶ Run Diagnostics</text>
<rect x="396.0" y="152.0" width="42.0" height="38.0" rx="8" fill="transparent" stroke="rgba(239,68,68,0.5)" stroke-width="1"/>
<text x="417.0" y="177.0" font-family="JetBrains Mono, Noto Sans Mono CJK SC, Microsoft YaHei" font-size="11" fill="#EF4444" text-anchor="middle" font-weight="normal">■</text>
<line x1="0.0" y1="306.0" x2="450.0" y2="306.0" stroke="#3A3A5A" stroke-width="1"/>
<rect x="0.0" y="307.0" width="450.0" height="41.0" fill="#1A1A2E"/>
<text x="16.0" y="333.0" font-family="JetBrains Mono, Noto Sans Mono CJK SC, Microsoft YaHei" font-size="15" fill="#E0E0E0" text-anchor="start" font-weight="bold">Results</text>
<text x="434.0" y="333.0" font-family="JetBrains Mono, Noto Sans Mono CJK SC, Microsoft YaHei" font-size="12" fill="#00BCD4" text-anchor="end" font-weight="bold">38 / 38</text>
<rect x="8.0" y="352.0" width="434.0" height="88.0" rx="10" fill="#16213E" stroke="#2A2A4A" stroke-width="1"/>
<rect x="20.0" y="360.0" width="3.0" height="22.0" rx="2" fill="#0078D4"/>
<text x="31.0" y="364.0" font-family="JetBrains Mono, Noto Sans Mono CJK SC, Microsoft YaHei" font-size="13" fill="#E0E0E0" text-anchor="start" font-weight="bold">G1: System &amp; Adapters</text>
<text x="414.0" y="374.0" font-family="JetBrains Mono, Noto Sans Mono CJK SC, Microsoft YaHei" font-size="11" fill="#A0A0B8" text-anchor="end" font-weight="normal">8/8</text>
<rect x="358.0" y="360.0" width="26.0" height="18.0" rx="4" fill="rgba(74,222,128,0.15)"/>
<text x="371.0" y="372.0" font-family="JetBrains Mono, Noto Sans Mono CJK SC, Microsoft YaHei" font-size="10" fill="#4ADE80" text-anchor="middle" font-weight="bold">8</text>
<text x="428.0" y="364.0" font-family="JetBrains Mono, Noto Sans Mono CJK SC, Microsoft YaHei" font-size="10" fill="#A0A0B8" text-anchor="end" font-weight="normal">▼</text>
<rect x="20.0" y="390.0" width="410.0" height="4.0" rx="2" fill="#2A2A4A"/>
<rect x="20.0" y="390.0" width="410.0" height="4.0" rx="2" fill="#4ADE80"/>
<line x1="20.0" y1="398.0" x2="430.0" y2="398.0" stroke="#2A2A4A" stroke-width="1"/>
<rect x="28.0" y="402.0" width="2.0" height="12.0" fill="#2A2A4A"/>
<circle cx="36.0" cy="408.0" r="4.0" fill="#4ADE80"/>
<text x="44.0" y="411.0" font-family="JetBrains Mono, Noto Sans Mono CJK SC, Microsoft YaHei" font-size="12" fill="#A0A0B8" text-anchor="start" font-weight="normal">Test 1.1</text>
<rect x="382.0" y="404.0" width="40.0" height="18.0" rx="4" fill="#2A2A4A"/>
<text x="426.0" y="411.0" font-family="JetBrains Mono, Noto Sans Mono CJK SC, Microsoft YaHei" font-size="10" fill="#A0A0B8" text-anchor="end" font-weight="normal">10ms</text>
<rect x="28.0" y="416.0" width="2.0" height="12.0" fill="#2A2A4A"/>
<circle cx="36.0" cy="422.0" r="4.0" fill="#4ADE80"/>
<text x="44.0" y="425.0" font-family="JetBrains Mono, Noto Sans Mono CJK SC, Microsoft YaHei" font-size="12" fill="#A0A0B8" text-anchor="start" font-weight="normal">Test 1.2</text>
<rect x="382.0" y="418.0" width="40.0" height="18.0" rx="4" fill="#2A2A4A"/>
<text x="426.0" y="425.0" font-family="JetBrains Mono, Noto Sans Mono CJK SC, Microsoft YaHei" font-size="10" fill="#A0A0B8" text-anchor="end" font-weight="normal">15ms</text>
<rect x="8.0" y="444.0" width="434.0" height="88.0" rx="10" fill="#16213E" stroke="#2A2A4A" stroke-width="1"/>
<rect x="20.0" y="452.0" width="3.0" height="22.0" rx="2" fill="#0078D4"/>
<text x="31.0" y="456.0" font-family="JetBrains Mono, Noto Sans Mono CJK SC, Microsoft YaHei" font-size="13" fill="#E0E0E0" text-anchor="start" font-weight="bold">G2: Connectivity &amp; Security</text>
<text x="414.0" y="466.0" font-family="JetBrains Mono, Noto Sans Mono CJK SC, Microsoft YaHei" font-size="11" fill="#A0A0B8" text-anchor="end" font-weight="normal">6/6</text>
<rect x="358.0" y="452.0" width="26.0" height="18.0" rx="4" fill="rgba(74,222,128,0.15)"/>
<text x="371.0" y="464.0" font-family="JetBrains Mono, Noto Sans Mono CJK SC, Microsoft YaHei" font-size="10" fill="#4ADE80" text-anchor="middle" font-weight="bold">6</text>
<text x="428.0" y="456.0" font-family="JetBrains Mono, Noto Sans Mono CJK SC, Microsoft YaHei" font-size="10" fill="#A0A0B8" text-anchor="end" font-weight="normal">▼</text>
<rect x="20.0" y="482.0" width="410.0" height="4.0" rx="2" fill="#2A2A4A"/>
<rect x="20.0" y="482.0" width="410.0" height="4.0" rx="2" fill="#4ADE80"/>
<line x1="20.0" y1="490.0" x2="430.0" y2="490.0" stroke="#2A2A4A" stroke-width="1"/>
<rect x="28.0" y="494.0" width="2.0" height="12.0" fill="#2A2A4A"/>
<circle cx="36.0" cy="500.0" r="4.0" fill="#4ADE80"/>
<text x="44.0" y="503.0" font-family="JetBrains Mono, Noto Sans Mono CJK SC, Microsoft YaHei" font-size="12" fill="#A0A0B8" text-anchor="start" font-weight="normal">Test 2.1</text>
<rect x="382.0" y="496.0" width="40.0" height="18.0" rx="4" fill="#2A2A4A"/>
<text x="426.0" y="503.0" font-family="JetBrains Mono, Noto Sans Mono CJK SC, Microsoft YaHei" font-size="10" fill="#A0A0B8" text-anchor="end" font-weight="normal">10ms</text>
<rect x="28.0" y="508.0" width="2.0" height="12.0" fill="#2A2A4A"/>
<circle cx="36.0" cy="514.0" r="4.0" fill="#4ADE80"/>
<text x="44.0" y="517.0" font-family="JetBrains Mono, Noto Sans Mono CJK SC, Microsoft YaHei" font-size="12" fill="#A0A0B8" text-anchor="start" font-weight="normal">Test 2.2</text>
<rect x="382.0" y="510.0" width="40.0" height="18.0" rx="4" fill="#2A2A4A"/>
<text x="426.0" y="517.0" font-family="JetBrains Mono, Noto Sans Mono CJK SC, Microsoft YaHei" font-size="10" fill="#A0A0B8" text-anchor="end" font-weight="normal">15ms</text>
<rect x="8.0" y="536.0" width="434.0" height="84.0" rx="10" fill="#16213E" stroke="#2A2A4A" stroke-width="1"/>
<rect x="20.0" y="544.0" width="3.0" height="22.0" rx="2" fill="#0078D4"/>
<text x="31.0" y="548.0" font-family="JetBrains Mono, Noto Sans Mono CJK SC, Microsoft YaHei" font-size="13" fill="#E0E0E0" text-anchor="start" font-weight="bold">G3: Internet &amp; DNS</text>
<text x="414.0" y="558.0" font-family="JetBrains Mono, Noto Sans Mono CJK SC, Microsoft YaHei" font-size="11" fill="#A0A0B8" text-anchor="end" font-weight="normal">4/5</text>
<rect x="358.0" y="544.0" width="26.0" height="18.0" rx="4" fill="rgba(250,204,21,0.15)"/>
<text x="371.0" y="556.0" font-family="JetBrains Mono, Noto Sans Mono CJK SC, Microsoft YaHei" font-size="10" fill="#FACC15" text-anchor="middle" font-weight="bold">1</text>
<rect x="330.0" y="544.0" width="26.0" height="18.0" rx="4" fill="rgba(74,222,128,0.15)"/>
<text x="343.0" y="556.0" font-family="JetBrains Mono, Noto Sans Mono CJK SC, Microsoft YaHei" font-size="10" fill="#4ADE80" text-anchor="middle" font-weight="bold">4</text>
<text x="428.0" y="548.0" font-family="JetBrains Mono, Noto Sans Mono CJK SC, Microsoft YaHei" font-size="10" fill="#A0A0B8" text-anchor="end" font-weight="normal">▼</text>
<rect x="20.0" y="574.0" width="410.0" height="4.0" rx="2" fill="#2A2A4A"/>
<rect x="20.0" y="574.0" width="328.0" height="4.0" rx="2" fill="#4ADE80"/>
<line x1="20.0" y1="582.0" x2="430.0" y2="582.0" stroke="#2A2A4A" stroke-width="1"/>
<rect x="28.0" y="586.0" width="2.0" height="12.0" fill="#2A2A4A"/>
<circle cx="36.0" cy="592.0" r="4.0" fill="#4ADE80"/>
<text x="44.0" y="595.0" font-family="JetBrains Mono, Noto Sans Mono CJK SC, Microsoft YaHei" font-size="12" fill="#A0A0B8" text-anchor="start" font-weight="normal">Test 3.1</text>
<rect x="382.0" y="588.0" width="40.0" height="18.0" rx="4" fill="#2A2A4A"/>
<text x="426.0" y="595.0" font-family="JetBrains Mono, Noto Sans Mono CJK SC, Microsoft YaHei" font-size="10" fill="#A0A0B8" text-anchor="end" font-weight="normal">10ms</text>
<rect x="28.0" y="600.0" width="2.0" height="12.0" fill="#2A2A4A"/>
<circle cx="36.0" cy="606.0" r="4.0" fill="#4ADE80"/>
<text x="44.0" y="609.0" font-family="JetBrains Mono, Noto Sans Mono CJK SC, Microsoft YaHei" font-size="12" fill="#A0A0B8" text-anchor="start" font-weight="normal">Test 3.2</text>
<rect x="382.0" y="602.0" width="40.0" height="18.0" rx="4" fill="#2A2A4A"/>
<text x="426.0" y="609.0" font-family="JetBrains Mono, Noto Sans Mono CJK SC, Microsoft YaHei" font-size="10" fill="#A0A0B8" text-anchor="end" font-weight="normal">15ms</text>
<rect x="8.0" y="624.0" width="434.0" height="67.0" rx="10" fill="#16213E" stroke="#2A2A4A" stroke-width="1"/>
<rect x="20.0" y="632.0" width="3.0" height="22.0" rx="2" fill="#0078D4"/>
<text x="31.0" y="636.0" font-family="JetBrains Mono, Noto Sans Mono CJK SC, Microsoft YaHei" font-size="13" fill="#E0E0E0" text-anchor="start" font-weight="bold">G4: Remote Host</text>
<text x="414.0" y="646.0" font-family="JetBrains Mono, Noto Sans Mono CJK SC, Microsoft YaHei" font-size="11" fill="#A0A0B8" text-anchor="end" font-weight="normal">6/6</text>
<rect x="358.0" y="632.0" width="26.0" height="18.0" rx="4" fill="rgba(74,222,128,0.15)"/>
<text x="371.0" y="644.0" font-family="JetBrains Mono, Noto Sans Mono CJK SC, Microsoft YaHei" font-size="10" fill="#4ADE80" text-anchor="middle" font-weight="bold">6</text>
<text x="428.0" y="636.0" font-family="JetBrains Mono, Noto Sans Mono CJK SC, Microsoft YaHei" font-size="10" fill="#A0A0B8" text-anchor="end" font-weight="normal">▼</text>
<rect x="20.0" y="662.0" width="410.0" height="4.0" rx="2" fill="#2A2A4A"/>
<rect x="20.0" y="662.0" width="410.0" height="4.0" rx="2" fill="#4ADE80"/>
<line x1="20.0" y1="670.0" x2="430.0" y2="670.0" stroke="#2A2A4A" stroke-width="1"/>
<rect x="28.0" y="674.0" width="2.0" height="12.0" fill="#2A2A4A"/>
<circle cx="36.0" cy="680.0" r="4.0" fill="#4ADE80"/>
<text x="44.0" y="683.0" font-family="JetBrains Mono, Noto Sans Mono CJK SC, Microsoft YaHei" font-size="12" fill="#A0A0B8" text-anchor="start" font-weight="normal">Test 4.1</text>
<rect x="382.0" y="676.0" width="40.0" height="18.0" rx="4" fill="#2A2A4A"/>
<text x="426.0" y="683.0" font-family="JetBrains Mono, Noto Sans Mono CJK SC, Microsoft YaHei" font-size="10" fill="#A0A0B8" text-anchor="end" font-weight="normal">10ms</text>
<rect x="8.0" y="695.0" width="434.0" height="60.0" rx="10" fill="#16213E" stroke="#2A2A4A" stroke-width="1"/>
<rect x="20.0" y="703.0" width="3.0" height="22.0" rx="2" fill="#0078D4"/>
<text x="31.0" y="707.0" font-family="JetBrains Mono, Noto Sans Mono CJK SC, Microsoft YaHei" font-size="13" fill="#E0E0E0" text-anchor="start" font-weight="bold">G5: Website / URL</text>
<text x="414.0" y="717.0" font-family="JetBrains Mono, Noto Sans Mono CJK SC, Microsoft YaHei" font-size="11" fill="#A0A0B8" text-anchor="end" font-weight="normal">8/13</text>
<rect x="358.0" y="703.0" width="26.0" height="18.0" rx="4" fill="rgba(136,136,136,0.15)"/>
<text x="371.0" y="715.0" font-family="JetBrains Mono, Noto Sans Mono CJK SC, Microsoft YaHei" font-size="10" fill="#888888" text-anchor="middle" font-weight="bold">1</text>
<rect x="330.0" y="703.0" width="26.0" height="18.0" rx="4" fill="rgba(239,68,68,0.15)"/>
<text x="343.0" y="715.0" font-family="JetBrains Mono, Noto Sans Mono CJK SC, Microsoft YaHei" font-size="10" fill="#EF4444" text-anchor="middle" font-weight="bold">1</text>
<rect x="302.0" y="703.0" width="26.0" height="18.0" rx="4" fill="rgba(250,204,21,0.15)"/>
<text x="315.0" y="715.0" font-family="JetBrains Mono, Noto Sans Mono CJK SC, Microsoft YaHei" font-size="10" fill="#FACC15" text-anchor="middle" font-weight="bold">3</text>
<rect x="274.0" y="703.0" width="26.0" height="18.0" rx="4" fill="rgba(74,222,128,0.15)"/>
<text x="287.0" y="715.0" font-family="JetBrains Mono, Noto Sans Mono CJK SC, Microsoft YaHei" font-size="10" fill="#4ADE80" text-anchor="middle" font-weight="bold">8</text>
<text x="428.0" y="707.0" font-family="JetBrains Mono, Noto Sans Mono CJK SC, Microsoft YaHei" font-size="10" fill="#A0A0B8" text-anchor="end" font-weight="normal">▼</text>
<rect x="20.0" y="733.0" width="410.0" height="4.0" rx="2" fill="#2A2A4A"/>
<rect x="20.0" y="733.0" width="252.3" height="4.0" rx="2" fill="#4ADE80"/>
<line x1="20.0" y1="741.0" x2="430.0" y2="741.0" stroke="#2A2A4A" stroke-width="1"/>
<rect x="28.0" y="745.0" width="2.0" height="12.0" fill="#2A2A4A"/>
<circle cx="36.0" cy="751.0" r="4.0" fill="#4ADE80"/>
<text x="44.0" y="754.0" font-family="JetBrains Mono, Noto Sans Mono CJK SC, Microsoft YaHei" font-size="12" fill="#A0A0B8" text-anchor="start" font-weight="normal">Test 5.1</text>
<rect x="382.0" y="747.0" width="40.0" height="18.0" rx="4" fill="#2A2A4A"/>
<text x="426.0" y="754.0" font-family="JetBrains Mono, Noto Sans Mono CJK SC, Microsoft YaHei" font-size="10" fill="#A0A0B8" text-anchor="end" font-weight="normal">10ms</text>
</svg>