<?xml version="1.0" encoding="UTF-8"?>
<svg xmlns="http://www.w3.org/2000/svg" viewBox="0 0 360 800" width="360" height="800">
<rect x="0.0" y="0.0" width="360.0" height="32.0" fill="#1A1A2E"/>
<text x="158.0" y="19.0" font-family="JetBrains Mono, Noto Sans Mono CJK SC, Microsoft YaHei" font-size="14" fill="rgba(224,224,224,0.55)" text-anchor="middle" font-weight="normal">⊞</text>
<text x="202.0" y="19.0" font-family="JetBrains Mono, Noto Sans Mono CJK SC, Microsoft YaHei" font-size="14" fill="rgba(224,224,224,0.55)" text-anchor="middle" font-weight="normal">⚡</text>
<rect x="224.0" y="0.0" width="44.0" height="32.0" rx="6" fill="rgba(0,188,212,0.12)"/>
<text x="246.0" y="19.0" font-family="JetBrains Mono, Noto Sans Mono CJK SC, Microsoft YaHei" font-size="14" fill="#00BCD4" text-anchor="middle" font-weight="normal">⚙</text>
<text x="290.0" y="19.0" font-family="JetBrains Mono, Noto Sans Mono CJK SC, Microsoft YaHei" font-size="14" fill="rgba(224,224,224,0.55)" text-anchor="middle" font-weight="normal">📄</text>
<text x="334.0" y="19.0" font-family="JetBrains Mono, Noto Sans Mono CJK SC, Microsoft YaHei" font-size="14" fill="rgba(224,224,224,0.55)" text-anchor="middle" font-weight="normal">⚙</text>
<rect x="0.0" y="32.0" width="360.0" height="84.0" fill="#1A1A2E"/>
<line x1="0.0" y1="115.0" x2="360.0" y2="115.0" stroke="#3A3A5A" stroke-width="1"/>
<text x="42.0" y="58.0" font-family="JetBrains Mono, Noto Sans Mono CJK SC, Microsoft YaHei" font-size="15" fill="#E0E0E0" text-anchor="start" font-weight="bold">Diagnostic Config</text>
<rect x="0.0" y="112.0" width="72.0" height="2.0" fill="#00BCD4"/>
<text x="36.0" y="98.0" font-family="JetBrains Mono, Noto Sans Mono CJK SC, Microsoft YaHei" font-size="12" fill="#00BCD4" text-anchor="middle" font-weight="bold">G1</text>
<text x="108.0" y="98.0" font-family="JetBrains Mono, Noto Sans Mono CJK SC, Microsoft YaHei" font-size="12" fill="#A0A0B8" text-anchor="middle" font-weight="normal">G2</text>
<text x="180.0" y="98.0" font-family="JetBrains Mono, Noto Sans Mono CJK SC, Microsoft YaHei" font-size="12" fill="#A0A0B8" text-anchor="middle" font-weight="normal">G3</text>
<text x="252.0" y="98.0" font-family="JetBrains Mono, Noto Sans Mono CJK SC, Microsoft YaHei" font-size="12" fill="#A0A0B8" text-anchor="middle" font-weight="normal">G4</text>
<text x="324.0" y="98.0" font-family="JetBrains Mono, Noto Sans Mono CJK SC, Microsoft YaHei" font-size="12" fill="#A0A0B8" text-anchor="middle" font-weight="normal">G5</text>
<rect x="0.0" y="116.0" width="360.0" height="60.0" fill="rgba(22,33,62,0.5)" stroke="#2A2A4A" stroke-width="1"/>
<text x="16.0" y="140.0" font-family="JetBrains Mono, Noto Sans Mono CJK SC, Microsoft YaHei" font-size="14" fill="#E0E0E0" text-anchor="start" font-weight="bold">G1 System &amp; Adapters</text>
<text x="16.0" y="158.0" font-family="JetBrains Mono, Noto Sans Mono CJK SC, Microsoft YaHei" font-size="11" fill="#A0A0B8" text-anchor="start" font-weight="normal">8 diagnostics</text>
<rect x="116.0" y="130.0" width="110.0" height="32.0" rx="6" fill="transparent" stroke="#3A3A5A" stroke-width="1"/>
<text x="171.0" y="148.0" font-family="JetBrains Mono, Noto Sans Mono CJK SC, Microsoft YaHei" font-size="11" fill="#E0E0E0" text-anchor="middle" font-weight="normal">Select All</text>
<rect x="234.0" y="130.0" width="110.0" height="32.0" rx="6" fill="transparent" stroke="#3A3A5A" stroke-width="1"/>
<text x="289.0" y="148.0" font-family="JetBrains Mono, Noto Sans Mono CJK SC, Microsoft YaHei" font-size="11" fill="#E0E0E0" text-anchor="middle" font-weight="normal">Deselect All</text>
<line x1="16.0" y1="229.0" x2="344.0" y2="229.0" stroke="#2A2A4A" stroke-width="1"/>
<circle cx="28.0" cy="203.0" r="7.0" fill="#4ADE80"/>
<text x="50.0" y="196.0" font-family="JetBrains Mono, Noto Sans Mono CJK SC, Microsoft YaHei" font-size="13" fill="#E0E0E0" text-anchor="start" font-weight="normal">Network Adapters</text>
<text x="50.0" y="212.0" font-family="JetBrains Mono, Noto Sans Mono CJK SC, Microsoft YaHei" font-size="10" fill="rgba(160,160,184,0.6)" text-anchor="start" font-weight="normal">List all network adapters and their operational state</text>
<rect x="300.0" y="192.0" width="40.0" height="22.0" rx="11" fill="#0078D4"/>
<circle cx="329.0" cy="203.0" r="9.0" fill="#FFFFFF"/>
<line x1="16.0" y1="283.0" x2="344.0" y2="283.0" stroke="#2A2A4A" stroke-width="1"/>
<circle cx="28.0" cy="257.0" r="7.0" fill="#4ADE80"/>
<text x="50.0" y="250.0" font-family="JetBrains Mono, Noto Sans Mono CJK SC, Microsoft YaHei" font-size="13" fill="#E0E0E0" text-anchor="start" font-weight="normal">NIC Advanced</text>
<text x="50.0" y="266.0" font-family="JetBrains Mono, Noto Sans Mono CJK SC, Microsoft YaHei" font-size="10" fill="rgba(160,160,184,0.6)" text-anchor="start" font-weight="normal">Driver version, hardware info, and negotiated link speed</text>
<rect x="300.0" y="246.0" width="40.0" height="22.0" rx="11" fill="#0078D4"/>
<circle cx="329.0" cy="257.0" r="9.0" fill="#FFFFFF"/>
<line x1="16.0" y1="337.0" x2="344.0" y2="337.0" stroke="#2A2A4A" stroke-width="1"/>
<circle cx="28.0" cy="311.0" r="7.0" fill="#4ADE80"/>
<text x="50.0" y="304.0" font-family="JetBrains Mono, Noto Sans Mono CJK SC, Microsoft YaHei" font-size="13" fill="#E0E0E0" text-anchor="start" font-weight="normal">WiFi Information</text>
<text x="50.0" y="320.0" font-family="JetBrains Mono, Noto Sans Mono CJK SC, Microsoft YaHei" font-size="10" fill="rgba(160,160,184,0.6)" text-anchor="start" font-weight="normal">Signal strength, SSID, channel, and link quality</text>
<rect x="300.0" y="300.0" width="40.0" height="22.0" rx="11" fill="#0078D4"/>
<circle cx="329.0" cy="311.0" r="9.0" fill="#FFFFFF"/>
<line x1="16.0" y1="391.0" x2="344.0" y2="391.0" stroke="#2A2A4A" stroke-width="1"/>
<circle cx="28.0" cy="365.0" r="7.0" fill="#4ADE80"/>
<text x="50.0" y="358.0" font-family="JetBrains Mono, Noto Sans Mono CJK SC, Microsoft YaHei" font-size="13" fill="#E0E0E0" text-anchor="start" font-weight="normal">Wired Information</text>
<text x="50.0" y="374.0" font-family="JetBrains Mono, Noto Sans Mono CJK SC, Microsoft YaHei" font-size="10" fill="rgba(160,160,184,0.6)" text-anchor="start" font-weight="normal">Ethernet link status, speed, and duplex mode</text>
<rect x="300.0" y="354.0" width="40.0" height="22.0" rx="11" fill="#0078D4"/>
<circle cx="329.0" cy="365.0" r="9.0" fill="#FFFFFF"/>
<line x1="16.0" y1="445.0" x2="344.0" y2="445.0" stroke="#2A2A4A" stroke-width="1"/>
<circle cx="28.0" cy="419.0" r="7.0" fill="#606080"/>
<text x="50.0" y="412.0" font-family="JetBrains Mono, Noto Sans Mono CJK SC, Microsoft YaHei" font-size="13" fill="#E0E0E0" text-anchor="start" font-weight="normal">DHCP Status</text>
<text x="50.0" y="428.0" font-family="JetBrains Mono, Noto Sans Mono CJK SC, Microsoft YaHei" font-size="10" fill="rgba(160,160,184,0.6)" text-anchor="start" font-weight="normal">DHCP lease info, server address, and expiration</text>
<rect x="300.0" y="408.0" width="40.0" height="22.0" rx="11" fill="#5A5A7A"/>
<circle cx="311.0" cy="419.0" r="9.0" fill="#FFFFFF"/>
<line x1="16.0" y1="499.0" x2="344.0" y2="499.0" stroke="#2A2A4A" stroke-width="1"/>
<circle cx="28.0" cy="473.0" r="7.0" fill="#4ADE80"/>
<text x="50.0" y="466.0" font-family="JetBrains Mono, Noto Sans Mono CJK SC, Microsoft YaHei" font-size="13" fill="#E0E0E0" text-anchor="start" font-weight="normal">IP Configuration</text>
<rect x="300.0" y="462.0" width="40.0" height="22.0" rx="11" fill="#0078D4"/>
<circle cx="329.0" cy="473.0" r="9.0" fill="#FFFFFF"/>
<line x1="16.0" y1="553.0" x2="344.0" y2="553.0" stroke="#2A2A4A" stroke-width="1"/>
<circle cx="28.0" cy="527.0" r="7.0" fill="#4ADE80"/>
<text x="50.0" y="520.0" font-family="JetBrains Mono, Noto Sans Mono CJK SC, Microsoft YaHei" font-size="13" fill="#E0E0E0" text-anchor="start" font-weight="normal">Active Connections</text>
<rect x="300.0" y="516.0" width="40.0" height="22.0" rx="11" fill="#0078D4"/>
<circle cx="329.0" cy="527.0" r="9.0" fill="#FFFFFF"/>
<line x1="16.0" y1="607.0" x2="344.0" y2="607.0" stroke="#2A2A4A" stroke-width="1"/>
<circle cx="28.0" cy="581.0" r="7.0" fill="#4ADE80"/>
<text x="50.0" y="574.0" font-family="JetBrains Mono, Noto Sans Mono CJK SC, Microsoft YaHei" font-size="13" fill="#E0E0E0" text-anchor="start" font-weight="normal">Network Profile</text>
<rect x="300.0" y="570.0" width="40.0" height="22.0" rx="11" fill="#0078D4"/>
<circle cx="329.0" cy="581.0" r="9.0" fill="#FFFFFF"/>
</svg>