<?xml version="1.0" encoding="UTF-8"?>
<svg xmlns="http://www.w3.org/2000/svg" viewBox="0 0 1024 720" width="1024" height="720">
<rect width="1024" height="720" fill="#1E1E2E"/>
<g>
<g>
<rect x="0" y="0" width="200" height="720" fill="#252538"></rect><rect x="0" y="0" width="1" height="720" fill="#3A3A5A"></rect><rect x="10" y="52" width="180" height="36" fill="#00BCD4" rx="6"></rect><text x="46" y="76" fill="#1E1E2E" font-family="JetBrains Mono,monospace" font-size="11">Dashboard</text><rect x="10" y="96" width="180" height="36" fill="transparent" rx="6"></rect><text x="46" y="120" fill="#E0E0E0" font-family="JetBrains Mono,monospace" font-size="11">Diagnostics</text><rect x="10" y="140" width="180" height="36" fill="transparent" rx="6"></rect><text x="46" y="164" fill="#E0E0E0" font-family="JetBrains Mono,monospace" font-size="11">Config</text><rect x="10" y="184" width="180" height="36" fill="transparent" rx="6"></rect><text x="46" y="208" fill="#E0E0E0" font-family="JetBrains Mono,monospace" font-size="11">Report</text><rect x="10" y="228" width="180" height="36" fill="transparent" rx="6"></rect><text x="46" y="252" fill="#E0E0E0" font-family="JetBrains Mono,monospace" font-size="11">Settings</text>
</g><g>
<rect x="216" y="16" width="792" height="148" fill="#16213E" rx="8" stroke="#3A3A5A" stroke-width="1"></rect><text x="230" y="40" fill="#00BCD4" font-family="JetBrains Mono,monospace" font-size="12" font-weight="bold">Diagnostic Run Complete</text><text x="230" y="74" fill="#A0A0B8" font-family="JetBrains Mono,monospace" font-size="10">Target</text><text x="958" y="74" fill="#E0E0E0" font-family="JetBrains Mono,monospace" font-size="10">192.168.1.1</text><text x="230" y="96" fill="#A0A0B8" font-family="JetBrains Mono,monospace" font-size="10">Total Tests</text><text x="958" y="96" fill="#E0E0E0" font-family="JetBrains Mono,monospace" font-size="10">38</text><text x="230" y="118" fill="#A0A0B8" font-family="JetBrains Mono,monospace" font-size="10">Total Time</text><text x="958" y="118" fill="#E0E0E0" font-family="JetBrains Mono,monospace" font-size="10">12.4s</text><text x="230" y="140" fill="#A0A0B8" font-family="JetBrains Mono,monospace" font-size="10">Completed</text><text x="958" y="140" fill="#E0E0E0" font-family="JetBrains Mono,monospace" font-size="10">38</text>
</g><g>
<rect x="216" y="126" width="792" height="148" fill="#16213E" rx="8" stroke="#3A3A5A" stroke-width="1"></rect><text x="230" y="150" fill="#00BCD4" font-family="JetBrains Mono,monospace" font-size="12" font-weight="bold">Summary</text><text x="230" y="184" fill="#A0A0B8" font-family="JetBrains Mono,monospace" font-size="10">Pass</text><text x="958" y="184" fill="#E0E0E0" font-family="JetBrains Mono,monospace" font-size="10">32</text><text x="230" y="206" fill="#A0A0B8" font-family="JetBrains Mono,monospace" font-size="10">Warning</text><text x="958" y="206" fill="#E0E0E0" font-family="JetBrains Mono,monospace" font-size="10">4</text><text x="230" y="228" fill="#A0A0B8" font-family="JetBrains Mono,monospace" font-size="10">Fail</text><text x="958" y="228" fill="#E0E0E0" font-family="JetBrains Mono,monospace" font-size="10">1</text><text x="230" y="250" fill="#A0A0B8" font-family="JetBrains Mono,monospace" font-size="10">Skipped</text><text x="958" y="250" fill="#E0E0E0" font-family="JetBrains Mono,monospace" font-size="10">1</text>
</g><g>
<rect x="216" y="256" width="792" height="170" fill="#16213E" rx="8" stroke="#3A3A5A" stroke-width="1"></rect><text x="230" y="280" fill="#00BCD4" font-family="JetBrains Mono,monospace" font-size="12" font-weight="bold">Per-Group Results</text><text x="230" y="314" fill="#A0A0B8" font-family="JetBrains Mono,monospace" font-size="10">G1 System & Adapters</text><text x="958" y="314" fill="#E0E0E0" font-family="JetBrains Mono,monospace" font-size="10">8/8</text><text x="230" y="336" fill="#A0A0B8" font-family="JetBrains Mono,monospace" font-size="10">G2 Connectivity</text><text x="958" y="336" fill="#E0E0E0" font-family="JetBrains Mono,monospace" font-size="10">6/6</text><text x="230" y="358" fill="#A0A0B8" font-family="JetBrains Mono,monospace" font-size="10">G3 Internet & DNS</text><text x="958" y="358" fill="#E0E0E0" font-family="JetBrains Mono,monospace" font-size="10">4/5</text><text x="230" y="380" fill="#A0A0B8" font-family="JetBrains Mono,monospace" font-size="10">G4 Remote Host</text><text x="958" y="380" fill="#E0E0E0" font-family="JetBrains Mono,monospace" font-size="10">6/6</text><text x="230" y="402" fill="#A0A0B8" font-family="JetBrains Mono,monospace" font-size="10">G5 Website / URL</text><text x="958" y="402" fill="#E0E0E0" font-family="JetBrains Mono,monospace" font-size="10">12/13</text>
</g>
</g>
</svg>