<?xml version="1.0" encoding="UTF-8"?>
<svg xmlns="http://www.w3.org/2000/svg" viewBox="0 0 1024 720" width="1024" height="720">
<rect width="1024" height="720" fill="#1E1E2E"/>
<g>
<g>
<rect x="0" y="0" width="200" height="720" fill="#252538"></rect><rect x="0" y="0" width="1" height="720" fill="#3A3A5A"></rect><rect x="10" y="52" width="180" height="36" fill="transparent" rx="6"></rect><text x="46" y="76" fill="#E0E0E0" font-family="JetBrains Mono,monospace" font-size="11">Dashboard</text><rect x="10" y="96" width="180" height="36" fill="#00BCD4" rx="6"></rect><text x="46" y="120" fill="#1E1E2E" font-family="JetBrains Mono,monospace" font-size="11">Diagnostics</text><rect x="10" y="140" width="180" height="36" fill="transparent" rx="6"></rect><text x="46" y="164" fill="#E0E0E0" font-family="JetBrains Mono,monospace" font-size="11">Config</text><rect x="10" y="184" width="180" height="36" fill="transparent" rx="6"></rect><text x="46" y="208" fill="#E0E0E0" font-family="JetBrains Mono,monospace" font-size="11">Report</text><rect x="10" y="228" width="180" height="36" fill="transparent" rx="6"></rect><text x="46" y="252" fill="#E0E0E0" font-family="JetBrains Mono,monospace" font-size="11">Settings</text>
</g><g>
<rect x="216" y="16" width="792" height="126" fill="#16213E" rx="8" stroke="#3A3A5A" stroke-width="1"></rect><text x="230" y="40" fill="#00BCD4" font-family="JetBrains Mono,monospace" font-size="12" font-weight="bold">G1: System & Adapters (8)</text><rect x="948" y="26" width="48" height="18" fill="#4ADE8026" rx="4"></rect><text x="952" y="40" fill="#4ADE80" font-family="JetBrains Mono,monospace" font-size="10">Running...</text><text x="230" y="74" fill="#A0A0B8" font-family="JetBrains Mono,monospace" font-size="10">Network Adapters</text><text x="958" y="74" fill="#E0E0E0" font-family="JetBrains Mono,monospace" font-size="10">Pass</text><text x="230" y="96" fill="#A0A0B8" font-family="JetBrains Mono,monospace" font-size="10">DHCP Status</text><text x="958" y="96" fill="#E0E0E0" font-family="JetBrains Mono,monospace" font-size="10">Pass</text><text x="230" y="118" fill="#A0A0B8" font-family="JetBrains Mono,monospace" font-size="10">IP Configuration</text><text x="958" y="118" fill="#E0E0E0" font-family="JetBrains Mono,monospace" font-size="10">Warn</text>
</g><g>
<rect x="216" y="116" width="792" height="126" fill="#16213E" rx="8" stroke="#3A3A5A" stroke-width="1"></rect><text x="230" y="140" fill="#00BCD4" font-family="JetBrains Mono,monospace" font-size="12" font-weight="bold">G2: Connectivity & Security (6)</text><text x="230" y="174" fill="#A0A0B8" font-family="JetBrains Mono,monospace" font-size="10">Network Adapters</text><text x="958" y="174" fill="#E0E0E0" font-family="JetBrains Mono,monospace" font-size="10">Pass</text><text x="230" y="196" fill="#A0A0B8" font-family="JetBrains Mono,monospace" font-size="10">DHCP Status</text><text x="958" y="196" fill="#E0E0E0" font-family="JetBrains Mono,monospace" font-size="10">Pass</text><text x="230" y="218" fill="#A0A0B8" font-family="JetBrains Mono,monospace" font-size="10">IP Configuration</text><text x="958" y="218" fill="#E0E0E0" font-family="JetBrains Mono,monospace" font-size="10">Warn</text>
</g><g>
<rect x="216" y="216" width="792" height="126" fill="#16213E" rx="8" stroke="#3A3A5A" stroke-width="1"></rect><text x="230" y="240" fill="#00BCD4" font-family="JetBrains Mono,monospace" font-size="12" font-weight="bold">G3: Internet & DNS (5)</text><text x="230" y="274" fill="#A0A0B8" font-family="JetBrains Mono,monospace" font-size="10">Network Adapters</text><text x="958" y="274" fill="#E0E0E0" font-family="JetBrains Mono,monospace" font-size="10">Pass</text><text x="230" y="296" fill="#A0A0B8" font-family="JetBrains Mono,monospace" font-size="10">DHCP Status</text><text x="958" y="296" fill="#E0E0E0" font-family="JetBrains Mono,monospace" font-size="10">Pass</text><text x="230" y="318" fill="#A0A0B8" font-family="JetBrains Mono,monospace" font-size="10">IP Configuration</text><text x="958" y="318" fill="#E0E0E0" font-family="JetBrains Mono,monospace" font-size="10">Warn</text>
</g><g>
<rect x="216" y="316" width="792" height="126" fill="#16213E" rx="8" stroke="#3A3A5A" stroke-width="1"></rect><text x="230" y="340" fill="#00BCD4" font-family="JetBrains Mono,monospace" font-size="12" font-weight="bold">G4: Remote Host (6)</text><text x="230" y="374" fill="#A0A0B8" font-family="JetBrains Mono,monospace" font-size="10">Network Adapters</text><text x="958" y="374" fill="#E0E0E0" font-family="JetBrains Mono,monospace" font-size="10">Pass</text><text x="230" y="396" fill="#A0A0B8" font-family="JetBrains Mono,monospace" font-size="10">DHCP Status</text><text x="958" y="396" fill="#E0E0E0" font-family="JetBrains Mono,monospace" font-size="10">Pass</text><text x="230" y="418" fill="#A0A0B8" font-family="JetBrains Mono,monospace" font-size="10">IP Configuration</text><text x="958" y="418" fill="#E0E0E0" font-family="JetBrains Mono,monospace" font-size="10">Warn</text>
</g><g>
<rect x="216" y="416" width="792" height="126" fill="#16213E" rx="8" stroke="#3A3A5A" stroke-width="1"></rect><text x="230" y="440" fill="#00BCD4" font-family="JetBrains Mono,monospace" font-size="12" font-weight="bold">G5: Website / URL (13)</text><text x="230" y="474" fill="#A0A0B8" font-family="JetBrains Mono,monospace" font-size="10">Network Adapters</text><text x="958" y="474" fill="#E0E0E0" font-family="JetBrains Mono,monospace" font-size="10">Pass</text><text x="230" y="496" fill="#A0A0B8" font-family="JetBrains Mono,monospace" font-size="10">DHCP Status</text><text x="958" y="496" fill="#E0E0E0" font-family="JetBrains Mono,monospace" font-size="10">Pass</text><text x="230" y="518" fill="#A0A0B8" font-family="JetBrains Mono,monospace" font-size="10">IP Configuration</text><text x="958" y="518" fill="#E0E0E0" font-family="JetBrains Mono,monospace" font-size="10">Warn</text>
</g>
</g>
</svg>