<?xml version="1.0" encoding="UTF-8"?>
<svg xmlns="http://www.w3.org/2000/svg" viewBox="0 0 1024 720" width="1024" height="720">
<rect width="1024" height="720" fill="#1E1E2E"/>
<g>
<g>
<rect x="0" y="0" width="200" height="720" fill="#252538"></rect><rect x="0" y="0" width="1" height="720" fill="#3A3A5A"></rect><rect x="10" y="52" width="180" height="36" fill="transparent" rx="6"></rect><text x="46" y="76" fill="#E0E0E0" font-family="JetBrains Mono,monospace" font-size="11">Dashboard</text><rect x="10" y="96" width="180" height="36" fill="transparent" rx="6"></rect><text x="46" y="120" fill="#E0E0E0" font-family="JetBrains Mono,monospace" font-size="11">Diagnostics</text><rect x="10" y="140" width="180" height="36" fill="transparent" rx="6"></rect><text x="46" y="164" fill="#E0E0E0" font-family="JetBrains Mono,monospace" font-size="11">Config</text><rect x="10" y="184" width="180" height="36" fill="#00BCD4" rx="6"></rect><text x="46" y="208" fill="#1E1E2E" font-family="JetBrains Mono,monospace" font-size="11">Report</text><rect x="10" y="228" width="180" height="36" fill="transparent" rx="6"></rect><text x="46" y="252" fill="#E0E0E0" font-family="JetBrains Mono,monospace" font-size="11">Settings</text>
</g><rect x="576" y="40" width="72" height="72" fill="#00BCD414" rx="24" stroke="#00BCD433" stroke-width="1"></rect><text x="612" y="128" fill="#E0E0E0" font-family="JetBrains Mono,monospace" font-size="22" font-weight="bold">Report Preview</text><text x="612" y="156" fill="#A0A0B8" font-family="JetBrains Mono,monospace" font-size="12">Export your diagnostic results</text><text x="612" y="176" fill="#A0A0B8" font-family="JetBrains Mono,monospace" font-size="12">as PDF or HTML.</text><g>
<rect x="462" y="206" width="300" height="36" fill="#00BCD4" rx="6" stroke="transparent" stroke-width="1"></rect><text x="612" y="228" fill="#1E1E2E" font-family="JetBrains Mono,monospace" font-size="11" font-weight="bold">Preview PDF (summary)</text>
</g><g>
<rect x="462" y="252" width="300" height="36" fill="#0078D4" rx="6" stroke="transparent" stroke-width="1"></rect><text x="612" y="274" fill="#1E1E2E" font-family="JetBrains Mono,monospace" font-size="11" font-weight="bold">Preview HTML (full)</text>
</g><rect x="492" y="388" width="240" height="34" fill="#4ADE8014" rx="8" stroke="#4ADE8033" stroke-width="1"></rect><text x="612" y="410" fill="#4ADE80" font-family="JetBrains Mono,monospace" font-size="11">38 results available</text>
</g>
</svg>