<?xml version="1.0" encoding="UTF-8"?>
<svg xmlns="http://www.w3.org/2000/svg" viewBox="0 0 1024 720" width="1024" height="720">
<rect width="1024" height="720" fill="#1E1E2E"/>
<g>
<g>
<rect x="0" y="0" width="200" height="720" fill="#252538"></rect><rect x="0" y="0" width="1" height="720" fill="#3A3A5A"></rect><rect x="10" y="52" width="180" height="36" fill="transparent" rx="6"></rect><text x="46" y="76" fill="#E0E0E0" font-family="JetBrains Mono,monospace" font-size="11">Dashboard</text><rect x="10" y="96" width="180" height="36" fill="transparent" rx="6"></rect><text x="46" y="120" fill="#E0E0E0" font-family="JetBrains Mono,monospace" font-size="11">Diagnostics</text><rect x="10" y="140" width="180" height="36" fill="transparent" rx="6"></rect><text x="46" y="164" fill="#E0E0E0" font-family="JetBrains Mono,monospace" font-size="11">Config</text><rect x="10" y="184" width="180" height="36" fill="transparent" rx="6"></rect><text x="46" y="208" fill="#E0E0E0" font-family="JetBrains Mono,monospace" font-size="11">Report</text><rect x="10" y="228" width="180" height="36" fill="#00BCD4" rx="6"></rect><text x="46" y="252" fill="#1E1E2E" font-family="JetBrains Mono,monospace" font-size="11">Settings</text>
</g><g>
<rect x="216" y="16" width="792" height="82" fill="#16213E" rx="8" stroke="#3A3A5A" stroke-width="1"></rect><text x="230" y="40" fill="#00BCD4" font-family="JetBrains Mono,monospace" font-size="12" font-weight="bold">Language</text><text x="230" y="74" fill="#A0A0B8" font-family="JetBrains Mono,monospace" font-size="10">Interface Language</text><text x="958" y="74" fill="#E0E0E0" font-family="JetBrains Mono,monospace" font-size="10">English  ▼</text>
</g><g>
<rect x="216" y="86" width="792" height="126" fill="#16213E" rx="8" stroke="#3A3A5A" stroke-width="1"></rect><text x="230" y="110" fill="#00BCD4" font-family="JetBrains Mono,monospace" font-size="12" font-weight="bold">About</text><text x="230" y="144" fill="#A0A0B8" font-family="JetBrains Mono,monospace" font-size="10">NetDiagnostics PRO</text><text x="958" y="144" fill="#E0E0E0" font-family="JetBrains Mono,monospace" font-size="10">v0.0.1</text><text x="230" y="166" fill="#A0A0B8" font-family="JetBrains Mono,monospace" font-size="10"></text><text x="958" y="166" fill="#E0E0E0" font-family="JetBrains Mono,monospace" font-size="10">Cross-platform network</text><text x="230" y="188" fill="#A0A0B8" font-family="JetBrains Mono,monospace" font-size="10"></text><text x="958" y="188" fill="#E0E0E0" font-family="JetBrains Mono,monospace" font-size="10">diagnostic toolkit.</text>
</g>
</g>
</svg>