<?xml version="1.0" encoding="UTF-8"?>
<svg xmlns="http://www.w3.org/2000/svg" viewBox="0 0 768 1024" width="768" height="1024">
<rect width="768" height="1024" fill="#1E1E2E"/>
<g>
<rect x="0" y="0" width="768" height="44" fill="#000"></rect><text x="16" y="32" fill="#00BCD4" font-family="JetBrains Mono,monospace" font-size="13" font-weight="bold">Config</text><g>
<rect x="0" y="44" width="200" height="980" fill="#252538"></rect><rect x="0" y="44" width="1" height="980" fill="#3A3A5A"></rect><rect x="10" y="96" width="180" height="36" fill="transparent" rx="6"></rect><text x="46" y="120" fill="#E0E0E0" font-family="JetBrains Mono,monospace" font-size="11">Dashboard</text><rect x="10" y="140" width="180" height="36" fill="transparent" rx="6"></rect><text x="46" y="164" fill="#E0E0E0" font-family="JetBrains Mono,monospace" font-size="11">Diagnostics</text><rect x="10" y="184" width="180" height="36" fill="#00BCD4" rx="6"></rect><text x="46" y="208" fill="#1E1E2E" font-family="JetBrains Mono,monospace" font-size="11">Config</text><rect x="10" y="228" width="180" height="36" fill="transparent" rx="6"></rect><text x="46" y="252" fill="#E0E0E0" font-family="JetBrains Mono,monospace" font-size="11">Report</text><rect x="10" y="272" width="180" height="36" fill="transparent" rx="6"></rect><text x="46" y="296" fill="#E0E0E0" font-family="JetBrains Mono,monospace" font-size="11">Settings</text>
</g><g>
<rect x="216" y="60" width="536" height="104" fill="#16213E" rx="8" stroke="#3A3A5A" stroke-width="1"></rect><text x="230" y="84" fill="#00BCD4" font-family="JetBrains Mono,monospace" font-size="12" font-weight="bold">Port Scan</text><text x="230" y="118" fill="#A0A0B8" font-family="JetBrains Mono,monospace" font-size="10">Scan Common Ports</text><text x="702" y="118" fill="#E0E0E0" font-family="JetBrains Mono,monospace" font-size="10">On</text><text x="230" y="140" fill="#A0A0B8" font-family="JetBrains Mono,monospace" font-size="10">Range</text><text x="702" y="140" fill="#E0E0E0" font-family="JetBrains Mono,monospace" font-size="10">1 - 65535</text>
</g><g>
<rect x="216" y="140" width="536" height="170" fill="#16213E" rx="8" stroke="#3A3A5A" stroke-width="1"></rect><text x="230" y="164" fill="#00BCD4" font-family="JetBrains Mono,monospace" font-size="12" font-weight="bold">Diagnostic Configuration</text><text x="230" y="198" fill="#A0A0B8" font-family="JetBrains Mono,monospace" font-size="10">G1: System & Adapters</text><text x="702" y="198" fill="#E0E0E0" font-family="JetBrains Mono,monospace" font-size="10">Select All</text><text x="230" y="220" fill="#A0A0B8" font-family="JetBrains Mono,monospace" font-size="10">G2: Connectivity</text><text x="702" y="220" fill="#E0E0E0" font-family="JetBrains Mono,monospace" font-size="10">Select All</text><text x="230" y="242" fill="#A0A0B8" font-family="JetBrains Mono,monospace" font-size="10">G3: Internet & DNS</text><text x="702" y="242" fill="#E0E0E0" font-family="JetBrains Mono,monospace" font-size="10">Deselect All</text><text x="230" y="264" fill="#A0A0B8" font-family="JetBrains Mono,monospace" font-size="10">G4: Remote Host</text><text x="702" y="264" fill="#E0E0E0" font-family="JetBrains Mono,monospace" font-size="10">Select All</text><text x="230" y="286" fill="#A0A0B8" font-family="JetBrains Mono,monospace" font-size="10">G5: Website / URL</text><text x="702" y="286" fill="#E0E0E0" font-family="JetBrains Mono,monospace" font-size="10">Select All</text>
</g>
</g>
</svg>