<?xml version="1.0" encoding="UTF-8"?>
<svg xmlns="http://www.w3.org/2000/svg" viewBox="0 0 768 1024" width="768" height="1024">
<rect width="768" height="1024" fill="#1E1E2E"/>
<g>
<rect x="0" y="0" width="768" height="44" fill="#000"></rect><text x="16" y="32" fill="#00BCD4" font-family="JetBrains Mono,monospace" font-size="13" font-weight="bold">Dashboard</text><text x="708" y="32" fill="#606080" font-family="JetBrains Mono,monospace" font-size="10">9:41  Wi-Fi</text><g>
<rect x="0" y="44" width="200" height="980" fill="#252538"></rect><rect x="0" y="44" width="1" height="980" fill="#3A3A5A"></rect><rect x="10" y="96" width="180" height="36" fill="#00BCD4" rx="6"></rect><text x="46" y="120" fill="#1E1E2E" font-family="JetBrains Mono,monospace" font-size="11">Dashboard</text><rect x="10" y="140" width="180" height="36" fill="transparent" rx="6"></rect><text x="46" y="164" fill="#E0E0E0" font-family="JetBrains Mono,monospace" font-size="11">Diagnostics</text><rect x="10" y="184" width="180" height="36" fill="transparent" rx="6"></rect><text x="46" y="208" fill="#E0E0E0" font-family="JetBrains Mono,monospace" font-size="11">Config</text><rect x="10" y="228" width="180" height="36" fill="transparent" rx="6"></rect><text x="46" y="252" fill="#E0E0E0" font-family="JetBrains Mono,monospace" font-size="11">Report</text><rect x="10" y="272" width="180" height="36" fill="transparent" rx="6"></rect><text x="46" y="296" fill="#E0E0E0" font-family="JetBrains Mono,monospace" font-size="11">Settings</text>
</g><g>
<rect x="216" y="60" width="536" height="148" fill="#16213E" rx="8" stroke="#3A3A5A" stroke-width="1"></rect><text x="230" y="84" fill="#00BCD4" font-family="JetBrains Mono,monospace" font-size="12" font-weight="bold">Diagnostic Run Complete</text><text x="230" y="118" fill="#A0A0B8" font-family="JetBrains Mono,monospace" font-size="10">Target</text><text x="702" y="118" fill="#E0E0E0" font-family="JetBrains Mono,monospace" font-size="10">192.168.1.1</text><text x="230" y="140" fill="#A0A0B8" font-family="JetBrains Mono,monospace" font-size="10">Total Tests</text><text x="702" y="140" fill="#E0E0E0" font-family="JetBrains Mono,monospace" font-size="10">38</text><text x="230" y="162" fill="#A0A0B8" font-family="JetBrains Mono,monospace" font-size="10">Total Time</text><text x="702" y="162" fill="#E0E0E0" font-family="JetBrains Mono,monospace" font-size="10">12.4s</text><text x="230" y="184" fill="#A0A0B8" font-family="JetBrains Mono,monospace" font-size="10">Completed</text><text x="702" y="184" fill="#E0E0E0" font-family="JetBrains Mono,monospace" font-size="10">38</text>
</g><g>
<rect x="216" y="170" width="536" height="148" fill="#16213E" rx="8" stroke="#3A3A5A" stroke-width="1"></rect><text x="230" y="194" fill="#00BCD4" font-family="JetBrains Mono,monospace" font-size="12" font-weight="bold">Summary</text><text x="230" y="228" fill="#A0A0B8" font-family="JetBrains Mono,monospace" font-size="10">Pass</text><text x="702" y="228" fill="#E0E0E0" font-family="JetBrains Mono,monospace" font-size="10">32</text><text x="230" y="250" fill="#A0A0B8" font-family="JetBrains Mono,monospace" font-size="10">Warning</text><text x="702" y="250" fill="#E0E0E0" font-family="JetBrains Mono,monospace" font-size="10">4</text><text x="230" y="272" fill="#A0A0B8" font-family="JetBrains Mono,monospace" font-size="10">Fail</text><text x="702" y="272" fill="#E0E0E0" font-family="JetBrains Mono,monospace" font-size="10">1</text><text x="230" y="294" fill="#A0A0B8" font-family="JetBrains Mono,monospace" font-size="10">Skipped</text><text x="702" y="294" fill="#E0E0E0" font-family="JetBrains Mono,monospace" font-size="10">1</text>
</g><g>
<rect x="216" y="300" width="536" height="170" fill="#16213E" rx="8" stroke="#3A3A5A" stroke-width="1"></rect><text x="230" y="324" fill="#00BCD4" font-family="JetBrains Mono,monospace" font-size="12" font-weight="bold">Per-Group Results</text><text x="230" y="358" fill="#A0A0B8" font-family="JetBrains Mono,monospace" font-size="10">G1 System & Adapters</text><text x="702" y="358" fill="#E0E0E0" font-family="JetBrains Mono,monospace" font-size="10">8/8</text><text x="230" y="380" fill="#A0A0B8" font-family="JetBrains Mono,monospace" font-size="10">G2 Connectivity</text><text x="702" y="380" fill="#E0E0E0" font-family="JetBrains Mono,monospace" font-size="10">6/6</text><text x="230" y="402" fill="#A0A0B8" font-family="JetBrains Mono,monospace" font-size="10">G3 Internet & DNS</text><text x="702" y="402" fill="#E0E0E0" font-family="JetBrains Mono,monospace" font-size="10">4/5</text><text x="230" y="424" fill="#A0A0B8" font-family="JetBrains Mono,monospace" font-size="10">G4 Remote Host</text><text x="702" y="424" fill="#E0E0E0" font-family="JetBrains Mono,monospace" font-size="10">6/6</text><text x="230" y="446" fill="#A0A0B8" font-family="JetBrains Mono,monospace" font-size="10">G5 Website / URL</text><text x="702" y="446" fill="#E0E0E0" font-family="JetBrains Mono,monospace" font-size="10">12/13</text>
</g>
</g>
</svg>