<?xml version="1.0" encoding="UTF-8"?>
<svg xmlns="http://www.w3.org/2000/svg" viewBox="0 0 768 1024" width="768" height="1024">
<rect width="768" height="1024" fill="#1E1E2E"/>
<g>
<rect x="0" y="0" width="768" height="44" fill="#000"></rect><text x="16" y="32" fill="#00BCD4" font-family="JetBrains Mono,monospace" font-size="13" font-weight="bold">Report</text><g>
<rect x="0" y="44" width="200" height="980" fill="#252538"></rect><rect x="0" y="44" width="1" height="980" fill="#3A3A5A"></rect><rect x="10" y="96" width="180" height="36" fill="transparent" rx="6"></rect><text x="46" y="120" fill="#E0E0E0" font-family="JetBrains Mono,monospace" font-size="11">Dashboard</text><rect x="10" y="140" width="180" height="36" fill="transparent" rx="6"></rect><text x="46" y="164" fill="#E0E0E0" font-family="JetBrains Mono,monospace" font-size="11">Diagnostics</text><rect x="10" y="184" width="180" height="36" fill="transparent" rx="6"></rect><text x="46" y="208" fill="#E0E0E0" font-family="JetBrains Mono,monospace" font-size="11">Config</text><rect x="10" y="228" width="180" height="36" fill="#00BCD4" rx="6"></rect><text x="46" y="252" fill="#1E1E2E" font-family="JetBrains Mono,monospace" font-size="11">Report</text><rect x="10" y="272" width="180" height="36" fill="transparent" rx="6"></rect><text x="46" y="296" fill="#E0E0E0" font-family="JetBrains Mono,monospace" font-size="11">Settings</text>
</g><rect x="448" y="84" width="72" height="72" fill="#00BCD414" rx="24" stroke="#00BCD433" stroke-width="1"></rect><text x="484" y="172" fill="#E0E0E0" font-family="JetBrains Mono,monospace" font-size="22" font-weight="bold">Report Preview</text><text x="484" y="200" fill="#A0A0B8" font-family="JetBrains Mono,monospace" font-size="12">Export your diagnostic results</text><text x="484" y="220" fill="#A0A0B8" font-family="JetBrains Mono,monospace" font-size="12">as PDF or HTML.</text><g>
<rect x="334" y="250" width="300" height="36" fill="#00BCD4" rx="6" stroke="transparent" stroke-width="1"></rect><text x="484" y="272" fill="#1E1E2E" font-family="JetBrains Mono,monospace" font-size="11" font-weight="bold">Preview PDF (summary)</text>
</g><g>
<rect x="334" y="296" width="300" height="36" fill="#0078D4" rx="6" stroke="transparent" stroke-width="1"></rect><text x="484" y="318" fill="#1E1E2E" font-family="JetBrains Mono,monospace" font-size="11" font-weight="bold">Preview HTML (full)</text>
</g><rect x="364" y="432" width="240" height="34" fill="#4ADE8014" rx="8" stroke="#4ADE8033" stroke-width="1"></rect><text x="484" y="454" fill="#4ADE80" font-family="JetBrains Mono,monospace" font-size="11">38 results available</text>
</g>
</svg>