<?xml version="1.0" encoding="UTF-8"?>
<svg xmlns="http://www.w3.org/2000/svg" viewBox="0 0 412 915" width="412" height="915">
<rect x="0.0" y="0.0" width="412.0" height="32.0" fill="#1A1A2E"/>
<text x="210.0" y="19.0" font-family="JetBrains Mono, Noto Sans Mono CJK SC, Microsoft YaHei" font-size="14" fill="rgba(224,224,224,0.55)" text-anchor="middle" font-weight="normal">⊞</text>
<rect x="232.0" y="0.0" width="44.0" height="32.0" rx="6" fill="rgba(0,188,212,0.12)"/>
<text x="254.0" y="19.0" font-family="JetBrains Mono, Noto Sans Mono CJK SC, Microsoft YaHei" font-size="14" fill="#00BCD4" text-anchor="middle" font-weight="normal">⚡</text>
<text x="298.0" y="19.0" font-family="JetBrains Mono, Noto Sans Mono CJK SC, Microsoft YaHei" font-size="14" fill="rgba(224,224,224,0.55)" text-anchor="middle" font-weight="normal">⚙</text>
<text x="342.0" y="19.0" font-family="JetBrains Mono, Noto Sans Mono CJK SC, Microsoft YaHei" font-size="14" fill="rgba(224,224,224,0.55)" text-anchor="middle" font-weight="normal">📄</text>
<text x="386.0" y="19.0" font-family="JetBrains Mono, Noto Sans Mono CJK SC, Microsoft YaHei" font-size="14" fill="rgba(224,224,224,0.55)" text-anchor="middle" font-weight="normal">⚙</text>
<rect x="0.0" y="32.0" width="412.0" height="256.0" fill="#252538"/>
<rect x="0.0" y="32.0" width="412.0" height="48.0" fill="transparent" stroke="#3A3A5A" stroke-width="1"/>
<text x="16.0" y="62.0" font-family="JetBrains Mono, Noto Sans Mono CJK SC, Microsoft YaHei" font-size="16" fill="#E0E0E0" text-anchor="start" font-weight="bold">NetDiagnostics</text>
<text x="12.0" y="92.0" font-family="JetBrains Mono, Noto Sans Mono CJK SC, Microsoft YaHei" font-size="11" fill="#A0A0B8" text-anchor="start" font-weight="bold">Target</text>
<rect x="12.0" y="104.0" width="388.0" height="40.0" rx="8" fill="#2A2A4A" stroke="#3A3A5A" stroke-width="1"/>
<text x="22.0" y="129.0" font-family="JetBrains Mono, Noto Sans Mono CJK SC, Microsoft YaHei" font-size="12" fill="rgba(160,160,184,0.4)" text-anchor="start" font-weight="normal">Enter URL, IP address, or hostname...</text>
<rect x="12.0" y="152.0" width="340.0" height="38.0" rx="8" fill="#0078D4"/>
<text x="182.0" y="177.0" font-family="JetBrains Mono, Noto Sans Mono CJK SC, Microsoft YaHei" font-size="12" fill="#FFFFFF" text-anchor="middle" font-weight="bold">▶ Run Diagnostics</text>
<rect x="358.0" y="152.0" width="42.0" height="38.0" rx="8" fill="transparent" stroke="rgba(239,68,68,0.5)" stroke-width="1"/>
<text x="379.0" y="177.0" font-family="JetBrains Mono, Noto Sans Mono CJK SC, Microsoft YaHei" font-size="11" fill="#EF4444" text-anchor="middle" font-weight="normal">■</text>
<line x1="0.0" y1="288.0" x2="412.0" y2="288.0" stroke="#3A3A5A" stroke-width="1"/>
<rect x="0.0" y="289.0" width="412.0" height="41.0" fill="#1A1A2E"/>
<text x="16.0" y="315.0" font-family="JetBrains Mono, Noto Sans Mono CJK SC, Microsoft YaHei" font-size="15" fill="#E0E0E0" text-anchor="start" font-weight="bold">Results</text>
<text x="396.0" y="315.0" font-family="JetBrains Mono, Noto Sans Mono CJK SC, Microsoft YaHei" font-size="12" fill="#00BCD4" text-anchor="end" font-weight="bold">38 / 38</text>
<rect x="8.0" y="334.0" width="396.0" height="88.0" rx="10" fill="#16213E" stroke="#2A2A4A" stroke-width="1"/>
<rect x="20.0" y="342.0" width="3.0" height="22.0" rx="2" fill="#0078D4"/>
<text x="31.0" y="346.0" font-family="JetBrains Mono, Noto Sans Mono CJK SC, Microsoft YaHei" font-size="13" fill="#E0E0E0" text-anchor="start" font-weight="bold">G1: System &amp; Adapters</text>
<text x="376.0" y="356.0" font-family="JetBrains Mono, Noto Sans Mono CJK SC, Microsoft YaHei" font-size="11" fill="#A0A0B8" text-anchor="end" font-weight="normal">8/8</text>
<rect x="320.0" y="342.0" width="26.0" height="18.0" rx="4" fill="rgba(74,222,128,0.15)"/>
<text x="333.0" y="354.0" font-family="JetBrains Mono, Noto Sans Mono CJK SC, Microsoft YaHei" font-size="10" fill="#4ADE80" text-anchor="middle" font-weight="bold">8</text>
<text x="390.0" y="346.0" font-family="JetBrains Mono, Noto Sans Mono CJK SC, Microsoft YaHei" font-size="10" fill="#A0A0B8" text-anchor="end" font-weight="normal">▼</text>
<rect x="20.0" y="372.0" width="372.0" height="4.0" rx="2" fill="#2A2A4A"/>
<rect x="20.0" y="372.0" width="372.0" height="4.0" rx="2" fill="#4ADE80"/>
<line x1="20.0" y1="380.0" x2="392.0" y2="380.0" stroke="#2A2A4A" stroke-width="1"/>
<rect x="28.0" y="384.0" width="2.0" height="12.0" fill="#2A2A4A"/>
<circle cx="36.0" cy="390.0" r="4.0" fill="#4ADE80"/>
<text x="44.0" y="393.0" font-family="JetBrains Mono, Noto Sans Mono CJK SC, Microsoft YaHei" font-size="12" fill="#A0A0B8" text-anchor="start" font-weight="normal">Test 1.1</text>
<rect x="344.0" y="386.0" width="40.0" height="18.0" rx="4" fill="#2A2A4A"/>
<text x="388.0" y="393.0" font-family="JetBrains Mono, Noto Sans Mono CJK SC, Microsoft YaHei" font-size="10" fill="#A0A0B8" text-anchor="end" font-weight="normal">10ms</text>
<rect x="28.0" y="398.0" width="2.0" height="12.0" fill="#2A2A4A"/>
<circle cx="36.0" cy="404.0" r="4.0" fill="#4ADE80"/>
<text x="44.0" y="407.0" font-family="JetBrains Mono, Noto Sans Mono CJK SC, Microsoft YaHei" font-size="12" fill="#A0A0B8" text-anchor="start" font-weight="normal">Test 1.2</text>
<rect x="344.0" y="400.0" width="40.0" height="18.0" rx="4" fill="#2A2A4A"/>
<text x="388.0" y="407.0" font-family="JetBrains Mono, Noto Sans Mono CJK SC, Microsoft YaHei" font-size="10" fill="#A0A0B8" text-anchor="end" font-weight="normal">15ms</text>
<rect x="8.0" y="426.0" width="396.0" height="88.0" rx="10" fill="#16213E" stroke="#2A2A4A" stroke-width="1"/>
<rect x="20.0" y="434.0" width="3.0" height="22.0" rx="2" fill="#0078D4"/>
<text x="31.0" y="438.0" font-family="JetBrains Mono, Noto Sans Mono CJK SC, Microsoft YaHei" font-size="13" fill="#E0E0E0" text-anchor="start" font-weight="bold">G2: Connectivity &amp; Security</text>
<text x="376.0" y="448.0" font-family="JetBrains Mono, Noto Sans Mono CJK SC, Microsoft YaHei" font-size="11" fill="#A0A0B8" text-anchor="end" font-weight="normal">6/6</text>
<rect x="320.0" y="434.0" width="26.0" height="18.0" rx="4" fill="rgba(74,222,128,0.15)"/>
<text x="333.0" y="446.0" font-family="JetBrains Mono, Noto Sans Mono CJK SC, Microsoft YaHei" font-size="10" fill="#4ADE80" text-anchor="middle" font-weight="bold">6</text>
<text x="390.0" y="438.0" font-family="JetBrains Mono, Noto Sans Mono CJK SC, Microsoft YaHei" font-size="10" fill="#A0A0B8" text-anchor="end" font-weight="normal">▼</text>
<rect x="20.0" y="464.0" width="372.0" height="4.0" rx="2" fill="#2A2A4A"/>
<rect x="20.0" y="464.0" width="372.0" height="4.0" rx="2" fill="#4ADE80"/>
<line x1="20.0" y1="472.0" x2="392.0" y2="472.0" stroke="#2A2A4A" stroke-width="1"/>
<rect x="28.0" y="476.0" width="2.0" height="12.0" fill="#2A2A4A"/>
<circle cx="36.0" cy="482.0" r="4.0" fill="#4ADE80"/>
<text x="44.0" y="485.0" font-family="JetBrains Mono, Noto Sans Mono CJK SC, Microsoft YaHei" font-size="12" fill="#A0A0B8" text-anchor="start" font-weight="normal">Test 2.1</text>
<rect x="344.0" y="478.0" width="40.0" height="18.0" rx="4" fill="#2A2A4A"/>
<text x="388.0" y="485.0" font-family="JetBrains Mono, Noto Sans Mono CJK SC, Microsoft YaHei" font-size="10" fill="#A0A0B8" text-anchor="end" font-weight="normal">10ms</text>
<rect x="28.0" y="490.0" width="2.0" height="12.0" fill="#2A2A4A"/>
<circle cx="36.0" cy="496.0" r="4.0" fill="#4ADE80"/>
<text x="44.0" y="499.0" font-family="JetBrains Mono, Noto Sans Mono CJK SC, Microsoft YaHei" font-size="12" fill="#A0A0B8" text-anchor="start" font-weight="normal">Test 2.2</text>
<rect x="344.0" y="492.0" width="40.0" height="18.0" rx="4" fill="#2A2A4A"/>
<text x="388.0" y="499.0" font-family="JetBrains Mono, Noto Sans Mono CJK SC, Microsoft YaHei" font-size="10" fill="#A0A0B8" text-anchor="end" font-weight="normal">15ms</text>
<rect x="8.0" y="518.0" width="396.0" height="75.0" rx="10" fill="#16213E" stroke="#2A2A4A" stroke-width="1"/>
<rect x="20.0" y="526.0" width="3.0" height="22.0" rx="2" fill="#0078D4"/>
<text x="31.0" y="530.0" font-family="JetBrains Mono, Noto Sans Mono CJK SC, Microsoft YaHei" font-size="13" fill="#E0E0E0" text-anchor="start" font-weight="bold">G3: Internet &amp; DNS</text>
<text x="376.0" y="540.0" font-family="JetBrains Mono, Noto Sans Mono CJK SC, Microsoft YaHei" font-size="11" fill="#A0A0B8" text-anchor="end" font-weight="normal">4/5</text>
<rect x="320.0" y="526.0" width="26.0" height="18.0" rx="4" fill="rgba(250,204,21,0.15)"/>
<text x="333.0" y="538.0" font-family="JetBrains Mono, Noto Sans Mono CJK SC, Microsoft YaHei" font-size="10" fill="#FACC15" text-anchor="middle" font-weight="bold">1</text>
<rect x="292.0" y="526.0" width="26.0" height="18.0" rx="4" fill="rgba(74,222,128,0.15)"/>
<text x="305.0" y="538.0" font-family="JetBrains Mono, Noto Sans Mono CJK SC, Microsoft YaHei" font-size="10" fill="#4ADE80" text-anchor="middle" font-weight="bold">4</text>
<text x="390.0" y="530.0" font-family="JetBrains Mono, Noto Sans Mono CJK SC, Microsoft YaHei" font-size="10" fill="#A0A0B8" text-anchor="end" font-weight="normal">▼</text>
<rect x="20.0" y="556.0" width="372.0" height="4.0" rx="2" fill="#2A2A4A"/>
<rect x="20.0" y="556.0" width="297.6" height="4.0" rx="2" fill="#4ADE80"/>
<line x1="20.0" y1="564.0" x2="392.0" y2="564.0" stroke="#2A2A4A" stroke-width="1"/>
<rect x="28.0" y="568.0" width="2.0" height="12.0" fill="#2A2A4A"/>
<circle cx="36.0" cy="574.0" r="4.0" fill="#4ADE80"/>
<text x="44.0" y="577.0" font-family="JetBrains Mono, Noto Sans Mono CJK SC, Microsoft YaHei" font-size="12" fill="#A0A0B8" text-anchor="start" font-weight="normal">Test 3.1</text>
<rect x="344.0" y="570.0" width="40.0" height="18.0" rx="4" fill="#2A2A4A"/>
<text x="388.0" y="577.0" font-family="JetBrains Mono, Noto Sans Mono CJK SC, Microsoft YaHei" font-size="10" fill="#A0A0B8" text-anchor="end" font-weight="normal">10ms</text>
<rect x="28.0" y="582.0" width="2.0" height="12.0" fill="#2A2A4A"/>
<circle cx="36.0" cy="588.0" r="4.0" fill="#4ADE80"/>
<text x="44.0" y="591.0" font-family="JetBrains Mono, Noto Sans Mono CJK SC, Microsoft YaHei" font-size="12" fill="#A0A0B8" text-anchor="start" font-weight="normal">Test 3.2</text>
<rect x="344.0" y="584.0" width="40.0" height="18.0" rx="4" fill="#2A2A4A"/>
<text x="388.0" y="591.0" font-family="JetBrains Mono, Noto Sans Mono CJK SC, Microsoft YaHei" font-size="10" fill="#A0A0B8" text-anchor="end" font-weight="normal">15ms</text>
<rect x="8.0" y="597.0" width="396.0" height="60.0" rx="10" fill="#16213E" stroke="#2A2A4A" stroke-width="1"/>
<rect x="20.0" y="605.0" width="3.0" height="22.0" rx="2" fill="#0078D4"/>
<text x="31.0" y="609.0" font-family="JetBrains Mono, Noto Sans Mono CJK SC, Microsoft YaHei" font-size="13" fill="#E0E0E0" text-anchor="start" font-weight="bold">G4: Remote Host</text>
<text x="376.0" y="619.0" font-family="JetBrains Mono, Noto Sans Mono CJK SC, Microsoft YaHei" font-size="11" fill="#A0A0B8" text-anchor="end" font-weight="normal">6/6</text>
<rect x="320.0" y="605.0" width="26.0" height="18.0" rx="4" fill="rgba(74,222,128,0.15)"/>
<text x="333.0" y="617.0" font-family="JetBrains Mono, Noto Sans Mono CJK SC, Microsoft YaHei" font-size="10" fill="#4ADE80" text-anchor="middle" font-weight="bold">6</text>
<text x="390.0" y="609.0" font-family="JetBrains Mono, Noto Sans Mono CJK SC, Microsoft YaHei" font-size="10" fill="#A0A0B8" text-anchor="end" font-weight="normal">▼</text>
<rect x="20.0" y="635.0" width="372.0" height="4.0" rx="2" fill="#2A2A4A"/>
<rect x="20.0" y="635.0" width="372.0" height="4.0" rx="2" fill="#4ADE80"/>
<line x1="20.0" y1="643.0" x2="392.0" y2="643.0" stroke="#2A2A4A" stroke-width="1"/>
<rect x="28.0" y="647.0" width="2.0" height="12.0" fill="#2A2A4A"/>
<circle cx="36.0" cy="653.0" r="4.0" fill="#4ADE80"/>
<text x="44.0" y="656.0" font-family="JetBrains Mono, Noto Sans Mono CJK SC, Microsoft YaHei" font-size="12" fill="#A0A0B8" text-anchor="start" font-weight="normal">Test 4.1</text>
<rect x="344.0" y="649.0" width="40.0" height="18.0" rx="4" fill="#2A2A4A"/>
<text x="388.0" y="656.0" font-family="JetBrains Mono, Noto Sans Mono CJK SC, Microsoft YaHei" font-size="10" fill="#A0A0B8" text-anchor="end" font-weight="normal">10ms</text>
<rect x="8.0" y="661.0" width="396.0" height="60.0" rx="10" fill="#16213E" stroke="#2A2A4A" stroke-width="1"/>
<rect x="20.0" y="669.0" width="3.0" height="22.0" rx="2" fill="#0078D4"/>
<text x="31.0" y="673.0" font-family="JetBrains Mono, Noto Sans Mono CJK SC, Microsoft YaHei" font-size="13" fill="#E0E0E0" text-anchor="start" font-weight="bold">G5: Website / URL</text>
<text x="376.0" y="683.0" font-family="JetBrains Mono, Noto Sans Mono CJK SC, Microsoft YaHei" font-size="11" fill="#A0A0B8" text-anchor="end" font-weight="normal">8/13</text>
<rect x="320.0" y="669.0" width="26.0" height="18.0" rx="4" fill="rgba(136,136,136,0.15)"/>
<text x="333.0" y="681.0" font-family="JetBrains Mono, Noto Sans Mono CJK SC, Microsoft YaHei" font-size="10" fill="#888888" text-anchor="middle" font-weight="bold">1</text>
<rect x="292.0" y="669.0" width="26.0" height="18.0" rx="4" fill="rgba(239,68,68,0.15)"/>
<text x="305.0" y="681.0" font-family="JetBrains Mono, Noto Sans Mono CJK SC, Microsoft YaHei" font-size="10" fill="#EF4444" text-anchor="middle" font-weight="bold">1</text>
<rect x="264.0" y="669.0" width="26.0" height="18.0" rx="4" fill="rgba(250,204,21,0.15)"/>
<text x="277.0" y="681.0" font-family="JetBrains Mono, Noto Sans Mono CJK SC, Microsoft YaHei" font-size="10" fill="#FACC15" text-anchor="middle" font-weight="bold">3</text>
<rect x="236.0" y="669.0" width="26.0" height="18.0" rx="4" fill="rgba(74,222,128,0.15)"/>
<text x="249.0" y="681.0" font-family="JetBrains Mono, Noto Sans Mono CJK SC, Microsoft YaHei" font-size="10" fill="#4ADE80" text-anchor="middle" font-weight="bold">8</text>
<text x="390.0" y="673.0" font-family="JetBrains Mono, Noto Sans Mono CJK SC, Microsoft YaHei" font-size="10" fill="#A0A0B8" text-anchor="end" font-weight="normal">▼</text>
<rect x="20.0" y="699.0" width="372.0" height="4.0" rx="2" fill="#2A2A4A"/>
<rect x="20.0" y="699.0" width="228.9" height="4.0" rx="2" fill="#4ADE80"/>
<line x1="20.0" y1="707.0" x2="392.0" y2="707.0" stroke="#2A2A4A" stroke-width="1"/>
<rect x="28.0" y="711.0" width="2.0" height="12.0" fill="#2A2A4A"/>
<circle cx="36.0" cy="717.0" r="4.0" fill="#4ADE80"/>
<text x="44.0" y="720.0" font-family="JetBrains Mono, Noto Sans Mono CJK SC, Microsoft YaHei" font-size="12" fill="#A0A0B8" text-anchor="start" font-weight="normal">Test 5.1</text>
<rect x="344.0" y="713.0" width="40.0" height="18.0" rx="4" fill="#2A2A4A"/>
<text x="388.0" y="720.0" font-family="JetBrains Mono, Noto Sans Mono CJK SC, Microsoft YaHei" font-size="10" fill="#A0A0B8" text-anchor="end" font-weight="normal">10ms</text>
</svg>