<?xml version="1.0" encoding="UTF-8"?>
<svg xmlns="http://www.w3.org/2000/svg" viewBox="0 0 375 812" width="375" height="812">
<rect x="0.0" y="0.0" width="375.0" height="32.0" fill="#1A1A2E"/>
<text x="173.0" y="19.0" font-family="JetBrains Mono, Noto Sans Mono CJK SC, Microsoft YaHei" font-size="14" fill="rgba(224,224,224,0.55)" text-anchor="middle" font-weight="normal">⊞</text>
<rect x="195.0" y="0.0" width="44.0" height="32.0" rx="6" fill="rgba(0,188,212,0.12)"/>
<text x="217.0" y="19.0" font-family="JetBrains Mono, Noto Sans Mono CJK SC, Microsoft YaHei" font-size="14" fill="#00BCD4" text-anchor="middle" font-weight="normal">⚡</text>
<text x="261.0" y="19.0" font-family="JetBrains Mono, Noto Sans Mono CJK SC, Microsoft YaHei" font-size="14" fill="rgba(224,224,224,0.55)" text-anchor="middle" font-weight="normal">⚙</text>
<text x="305.0" y="19.0" font-family="JetBrains Mono, Noto Sans Mono CJK SC, Microsoft YaHei" font-size="14" fill="rgba(224,224,224,0.55)" text-anchor="middle" font-weight="normal">📄</text>
<text x="349.0" y="19.0" font-family="JetBrains Mono, Noto Sans Mono CJK SC, Microsoft YaHei" font-size="14" fill="rgba(224,224,224,0.55)" text-anchor="middle" font-weight="normal">⚙</text>
<rect x="0.0" y="32.0" width="375.0" height="227.0" fill="#252538"/>
<rect x="0.0" y="32.0" width="375.0" height="48.0" fill="transparent" stroke="#3A3A5A" stroke-width="1"/>
<text x="16.0" y="62.0" font-family="JetBrains Mono, Noto Sans Mono CJK SC, Microsoft YaHei" font-size="16" fill="#E0E0E0" text-anchor="start" font-weight="bold">NetDiagnostics</text>
<text x="12.0" y="92.0" font-family="JetBrains Mono, Noto Sans Mono CJK SC, Microsoft YaHei" font-size="11" fill="#A0A0B8" text-anchor="start" font-weight="bold">Target</text>
<rect x="12.0" y="110.0" width="351.0" height="40.0" rx="8" fill="#2A2A4A" stroke="#3A3A5A" stroke-width="1"/>
<text x="22.0" y="135.0" font-family="JetBrains Mono, Noto Sans Mono CJK SC, Microsoft YaHei" font-size="11" fill="rgba(160,160,184,0.4)" text-anchor="start" font-weight="normal">Enter URL, IP address, or hostname...</text>
<rect x="12.0" y="158.0" width="303.0" height="38.0" rx="8" fill="#0078D4"/>
<text x="163.5" y="183.0" font-family="JetBrains Mono, Noto Sans Mono CJK SC, Microsoft YaHei" font-size="12" fill="#FFFFFF" text-anchor="middle" font-weight="bold">▶ Run Diagnostics</text>
<rect x="321.0" y="158.0" width="42.0" height="38.0" rx="8" fill="transparent" stroke="rgba(239,68,68,0.5)" stroke-width="1"/>
<text x="342.0" y="183.0" font-family="JetBrains Mono, Noto Sans Mono CJK SC, Microsoft YaHei" font-size="12" fill="#EF4444" text-anchor="middle" font-weight="normal">■</text>
<line x1="0.0" y1="258.0" x2="375.0" y2="258.0" stroke="#3A3A5A" stroke-width="1"/>
<rect x="0.0" y="259.0" width="375.0" height="41.0" fill="#1A1A2E"/>
<text x="16.0" y="285.0" font-family="JetBrains Mono, Noto Sans Mono CJK SC, Microsoft YaHei" font-size="15" fill="#E0E0E0" text-anchor="start" font-weight="bold">Results</text>
<text x="359.0" y="285.0" font-family="JetBrains Mono, Noto Sans Mono CJK SC, Microsoft YaHei" font-size="12" fill="#00BCD4" text-anchor="end" font-weight="bold">38 / 38</text>
<rect x="8.0" y="304.0" width="359.0" height="95.0" rx="10" fill="#16213E" stroke="#2A2A4A" stroke-width="1"/>
<rect x="20.0" y="312.0" width="3.0" height="22.0" rx="2" fill="#0078D4"/>
<text x="31.0" y="316.0" font-family="JetBrains Mono, Noto Sans Mono CJK SC, Microsoft YaHei" font-size="13" fill="#E0E0E0" text-anchor="start" font-weight="bold">G1: System &amp; Adapters</text>
<text x="337.0" y="326.0" font-family="JetBrains Mono, Noto Sans Mono CJK SC, Microsoft YaHei" font-size="11" fill="#A0A0B8" text-anchor="end" font-weight="normal">8/8</text>
<text x="351.0" y="316.0" font-family="JetBrains Mono, Noto Sans Mono CJK SC, Microsoft YaHei" font-size="10" fill="#A0A0B8" text-anchor="end" font-weight="normal">▼</text>
<rect x="289.0" y="312.0" width="26.0" height="18.0" rx="4" fill="rgba(74,222,128,0.15)"/>
<text x="302.0" y="324.0" font-family="JetBrains Mono, Noto Sans Mono CJK SC, Microsoft YaHei" font-size="10" fill="#4ADE80" text-anchor="middle" font-weight="bold">8</text>
<rect x="20.0" y="342.0" width="335.0" height="4.0" rx="2" fill="#2A2A4A"/>
<rect x="20.0" y="342.0" width="335.0" height="4.0" rx="2" fill="#4ADE80"/>
<line x1="20.0" y1="350.0" x2="355.0" y2="350.0" stroke="#2A2A4A" stroke-width="1"/>
<rect x="28.0" y="354.0" width="2.0" height="12.0" fill="#2A2A4A"/>
<circle cx="36.0" cy="360.0" r="4.0" fill="#4ADE80"/>
<text x="44.0" y="363.0" font-family="JetBrains Mono, Noto Sans Mono CJK SC, Microsoft YaHei" font-size="10" fill="#A0A0B8" text-anchor="start" font-weight="normal">Test 1.1</text>
<text x="351.0" y="363.0" font-family="JetBrains Mono, Noto Sans Mono CJK SC, Microsoft YaHei" font-size="10" fill="rgba(160,160,184,0.6)" text-anchor="end" font-weight="normal">10ms</text>
<rect x="28.0" y="368.0" width="2.0" height="12.0" fill="#2A2A4A"/>
<circle cx="36.0" cy="374.0" r="4.0" fill="#4ADE80"/>
<text x="44.0" y="377.0" font-family="JetBrains Mono, Noto Sans Mono CJK SC, Microsoft YaHei" font-size="10" fill="#A0A0B8" text-anchor="start" font-weight="normal">Test 1.2</text>
<text x="351.0" y="377.0" font-family="JetBrains Mono, Noto Sans Mono CJK SC, Microsoft YaHei" font-size="10" fill="rgba(160,160,184,0.6)" text-anchor="end" font-weight="normal">15ms</text>
<rect x="28.0" y="382.0" width="2.0" height="12.0" fill="#2A2A4A"/>
<circle cx="36.0" cy="388.0" r="4.0" fill="#4ADE80"/>
<text x="44.0" y="391.0" font-family="JetBrains Mono, Noto Sans Mono CJK SC, Microsoft YaHei" font-size="10" fill="#A0A0B8" text-anchor="start" font-weight="normal">Test 1.3</text>
<text x="351.0" y="391.0" font-family="JetBrains Mono, Noto Sans Mono CJK SC, Microsoft YaHei" font-size="10" fill="rgba(160,160,184,0.6)" text-anchor="end" font-weight="normal">20ms</text>
<rect x="8.0" y="403.0" width="359.0" height="77.0" rx="10" fill="#16213E" stroke="#2A2A4A" stroke-width="1"/>
<rect x="20.0" y="411.0" width="3.0" height="22.0" rx="2" fill="#0078D4"/>
<text x="31.0" y="415.0" font-family="JetBrains Mono, Noto Sans Mono CJK SC, Microsoft YaHei" font-size="13" fill="#E0E0E0" text-anchor="start" font-weight="bold">G2: Connectivity &amp; Security</text>
<text x="337.0" y="425.0" font-family="JetBrains Mono, Noto Sans Mono CJK SC, Microsoft YaHei" font-size="11" fill="#A0A0B8" text-anchor="end" font-weight="normal">6/6</text>
<text x="351.0" y="415.0" font-family="JetBrains Mono, Noto Sans Mono CJK SC, Microsoft YaHei" font-size="10" fill="#A0A0B8" text-anchor="end" font-weight="normal">▼</text>
<rect x="289.0" y="411.0" width="26.0" height="18.0" rx="4" fill="rgba(74,222,128,0.15)"/>
<text x="302.0" y="423.0" font-family="JetBrains Mono, Noto Sans Mono CJK SC, Microsoft YaHei" font-size="10" fill="#4ADE80" text-anchor="middle" font-weight="bold">6</text>
<rect x="20.0" y="441.0" width="335.0" height="4.0" rx="2" fill="#2A2A4A"/>
<rect x="20.0" y="441.0" width="335.0" height="4.0" rx="2" fill="#4ADE80"/>
<line x1="20.0" y1="449.0" x2="355.0" y2="449.0" stroke="#2A2A4A" stroke-width="1"/>
<rect x="28.0" y="453.0" width="2.0" height="12.0" fill="#2A2A4A"/>
<circle cx="36.0" cy="459.0" r="4.0" fill="#4ADE80"/>
<text x="44.0" y="462.0" font-family="JetBrains Mono, Noto Sans Mono CJK SC, Microsoft YaHei" font-size="10" fill="#A0A0B8" text-anchor="start" font-weight="normal">Test 2.1</text>
<text x="351.0" y="462.0" font-family="JetBrains Mono, Noto Sans Mono CJK SC, Microsoft YaHei" font-size="10" fill="rgba(160,160,184,0.6)" text-anchor="end" font-weight="normal">10ms</text>
<rect x="28.0" y="467.0" width="2.0" height="12.0" fill="#2A2A4A"/>
<circle cx="36.0" cy="473.0" r="4.0" fill="#4ADE80"/>
<text x="44.0" y="476.0" font-family="JetBrains Mono, Noto Sans Mono CJK SC, Microsoft YaHei" font-size="10" fill="#A0A0B8" text-anchor="start" font-weight="normal">Test 2.2</text>
<text x="351.0" y="476.0" font-family="JetBrains Mono, Noto Sans Mono CJK SC, Microsoft YaHei" font-size="10" fill="rgba(160,160,184,0.6)" text-anchor="end" font-weight="normal">15ms</text>
<rect x="8.0" y="484.0" width="359.0" height="70.0" rx="10" fill="#16213E" stroke="#2A2A4A" stroke-width="1"/>
<rect x="20.0" y="492.0" width="3.0" height="22.0" rx="2" fill="#0078D4"/>
<text x="31.0" y="496.0" font-family="JetBrains Mono, Noto Sans Mono CJK SC, Microsoft YaHei" font-size="13" fill="#E0E0E0" text-anchor="start" font-weight="bold">G3: Internet &amp; DNS</text>
<text x="337.0" y="506.0" font-family="JetBrains Mono, Noto Sans Mono CJK SC, Microsoft YaHei" font-size="11" fill="#A0A0B8" text-anchor="end" font-weight="normal">4/5</text>
<text x="351.0" y="496.0" font-family="JetBrains Mono, Noto Sans Mono CJK SC, Microsoft YaHei" font-size="10" fill="#A0A0B8" text-anchor="end" font-weight="normal">▼</text>
<rect x="289.0" y="492.0" width="26.0" height="18.0" rx="4" fill="rgba(250,204,21,0.15)"/>
<text x="302.0" y="504.0" font-family="JetBrains Mono, Noto Sans Mono CJK SC, Microsoft YaHei" font-size="10" fill="#FACC15" text-anchor="middle" font-weight="bold">1</text>
<rect x="261.0" y="492.0" width="26.0" height="18.0" rx="4" fill="rgba(74,222,128,0.15)"/>
<text x="274.0" y="504.0" font-family="JetBrains Mono, Noto Sans Mono CJK SC, Microsoft YaHei" font-size="10" fill="#4ADE80" text-anchor="middle" font-weight="bold">4</text>
<rect x="20.0" y="522.0" width="335.0" height="4.0" rx="2" fill="#2A2A4A"/>
<rect x="20.0" y="522.0" width="268.0" height="4.0" rx="2" fill="#FACC15"/>
<line x1="20.0" y1="530.0" x2="355.0" y2="530.0" stroke="#2A2A4A" stroke-width="1"/>
<rect x="28.0" y="534.0" width="2.0" height="12.0" fill="#2A2A4A"/>
<circle cx="36.0" cy="540.0" r="4.0" fill="#4ADE80"/>
<text x="44.0" y="543.0" font-family="JetBrains Mono, Noto Sans Mono CJK SC, Microsoft YaHei" font-size="10" fill="#A0A0B8" text-anchor="start" font-weight="normal">Test 3.1</text>
<text x="351.0" y="543.0" font-family="JetBrains Mono, Noto Sans Mono CJK SC, Microsoft YaHei" font-size="10" fill="rgba(160,160,184,0.6)" text-anchor="end" font-weight="normal">10ms</text>
<rect x="28.0" y="548.0" width="2.0" height="12.0" fill="#2A2A4A"/>
<circle cx="36.0" cy="554.0" r="4.0" fill="#4ADE80"/>
<text x="44.0" y="557.0" font-family="JetBrains Mono, Noto Sans Mono CJK SC, Microsoft YaHei" font-size="10" fill="#A0A0B8" text-anchor="start" font-weight="normal">Test 3.2</text>
<text x="351.0" y="557.0" font-family="JetBrains Mono, Noto Sans Mono CJK SC, Microsoft YaHei" font-size="10" fill="rgba(160,160,184,0.6)" text-anchor="end" font-weight="normal">15ms</text>
<rect x="8.0" y="558.0" width="359.0" height="70.0" rx="10" fill="#16213E" stroke="#2A2A4A" stroke-width="1"/>
<rect x="20.0" y="566.0" width="3.0" height="22.0" rx="2" fill="#0078D4"/>
<text x="31.0" y="570.0" font-family="JetBrains Mono, Noto Sans Mono CJK SC, Microsoft YaHei" font-size="13" fill="#E0E0E0" text-anchor="start" font-weight="bold">G4: Remote Host</text>
<text x="337.0" y="580.0" font-family="JetBrains Mono, Noto Sans Mono CJK SC, Microsoft YaHei" font-size="11" fill="#A0A0B8" text-anchor="end" font-weight="normal">6/6</text>
<text x="351.0" y="570.0" font-family="JetBrains Mono, Noto Sans Mono CJK SC, Microsoft YaHei" font-size="10" fill="#A0A0B8" text-anchor="end" font-weight="normal">▼</text>
<rect x="289.0" y="566.0" width="26.0" height="18.0" rx="4" fill="rgba(74,222,128,0.15)"/>
<text x="302.0" y="578.0" font-family="JetBrains Mono, Noto Sans Mono CJK SC, Microsoft YaHei" font-size="10" fill="#4ADE80" text-anchor="middle" font-weight="bold">6</text>
<rect x="20.0" y="596.0" width="335.0" height="4.0" rx="2" fill="#2A2A4A"/>
<rect x="20.0" y="596.0" width="335.0" height="4.0" rx="2" fill="#4ADE80"/>
<line x1="20.0" y1="604.0" x2="355.0" y2="604.0" stroke="#2A2A4A" stroke-width="1"/>
<rect x="28.0" y="608.0" width="2.0" height="12.0" fill="#2A2A4A"/>
<circle cx="36.0" cy="614.0" r="4.0" fill="#4ADE80"/>
<text x="44.0" y="617.0" font-family="JetBrains Mono, Noto Sans Mono CJK SC, Microsoft YaHei" font-size="10" fill="#A0A0B8" text-anchor="start" font-weight="normal">Test 4.1</text>
<text x="351.0" y="617.0" font-family="JetBrains Mono, Noto Sans Mono CJK SC, Microsoft YaHei" font-size="10" fill="rgba(160,160,184,0.6)" text-anchor="end" font-weight="normal">10ms</text>
<rect x="28.0" y="622.0" width="2.0" height="12.0" fill="#2A2A4A"/>
<circle cx="36.0" cy="628.0" r="4.0" fill="#4ADE80"/>
<text x="44.0" y="631.0" font-family="JetBrains Mono, Noto Sans Mono CJK SC, Microsoft YaHei" font-size="10" fill="#A0A0B8" text-anchor="start" font-weight="normal">Test 4.2</text>
<text x="351.0" y="631.0" font-family="JetBrains Mono, Noto Sans Mono CJK SC, Microsoft YaHei" font-size="10" fill="rgba(160,160,184,0.6)" text-anchor="end" font-weight="normal">15ms</text>
<rect x="8.0" y="632.0" width="359.0" height="70.0" rx="10" fill="#16213E" stroke="#2A2A4A" stroke-width="1"/>
<rect x="20.0" y="640.0" width="3.0" height="22.0" rx="2" fill="#0078D4"/>
<text x="31.0" y="644.0" font-family="JetBrains Mono, Noto Sans Mono CJK SC, Microsoft YaHei" font-size="13" fill="#E0E0E0" text-anchor="start" font-weight="bold">G5: Website / URL</text>
<text x="337.0" y="654.0" font-family="JetBrains Mono, Noto Sans Mono CJK SC, Microsoft YaHei" font-size="11" fill="#A0A0B8" text-anchor="end" font-weight="normal">8/13</text>
<text x="351.0" y="644.0" font-family="JetBrains Mono, Noto Sans Mono CJK SC, Microsoft YaHei" font-size="10" fill="#A0A0B8" text-anchor="end" font-weight="normal">▼</text>
<rect x="289.0" y="640.0" width="26.0" height="18.0" rx="4" fill="rgba(136,136,136,0.15)"/>
<text x="302.0" y="652.0" font-family="JetBrains Mono, Noto Sans Mono CJK SC, Microsoft YaHei" font-size="10" fill="#888888" text-anchor="middle" font-weight="bold">1</text>
<rect x="261.0" y="640.0" width="26.0" height="18.0" rx="4" fill="rgba(239,68,68,0.15)"/>
<text x="274.0" y="652.0" font-family="JetBrains Mono, Noto Sans Mono CJK SC, Microsoft YaHei" font-size="10" fill="#EF4444" text-anchor="middle" font-weight="bold">1</text>
<rect x="233.0" y="640.0" width="26.0" height="18.0" rx="4" fill="rgba(250,204,21,0.15)"/>
<text x="246.0" y="652.0" font-family="JetBrains Mono, Noto Sans Mono CJK SC, Microsoft YaHei" font-size="10" fill="#FACC15" text-anchor="middle" font-weight="bold">3</text>
<rect x="205.0" y="640.0" width="26.0" height="18.0" rx="4" fill="rgba(74,222,128,0.15)"/>
<text x="218.0" y="652.0" font-family="JetBrains Mono, Noto Sans Mono CJK SC, Microsoft YaHei" font-size="10" fill="#4ADE80" text-anchor="middle" font-weight="bold">8</text>
<rect x="20.0" y="670.0" width="335.0" height="4.0" rx="2" fill="#2A2A4A"/>
<rect x="20.0" y="670.0" width="206.2" height="4.0" rx="2" fill="#EF4444"/>
<line x1="20.0" y1="678.0" x2="355.0" y2="678.0" stroke="#2A2A4A" stroke-width="1"/>
<rect x="28.0" y="682.0" width="2.0" height="12.0" fill="#2A2A4A"/>
<circle cx="36.0" cy="688.0" r="4.0" fill="#4ADE80"/>
<text x="44.0" y="691.0" font-family="JetBrains Mono, Noto Sans Mono CJK SC, Microsoft YaHei" font-size="10" fill="#A0A0B8" text-anchor="start" font-weight="normal">Test 5.1</text>
<text x="351.0" y="691.0" font-family="JetBrains Mono, Noto Sans Mono CJK SC, Microsoft YaHei" font-size="10" fill="rgba(160,160,184,0.6)" text-anchor="end" font-weight="normal">10ms</text>
<rect x="28.0" y="696.0" width="2.0" height="12.0" fill="#2A2A4A"/>
<circle cx="36.0" cy="702.0" r="4.0" fill="#4ADE80"/>
<text x="44.0" y="705.0" font-family="JetBrains Mono, Noto Sans Mono CJK SC, Microsoft YaHei" font-size="10" fill="#A0A0B8" text-anchor="start" font-weight="normal">Test 5.2</text>
<text x="351.0" y="705.0" font-family="JetBrains Mono, Noto Sans Mono CJK SC, Microsoft YaHei" font-size="10" fill="rgba(160,160,184,0.6)" text-anchor="end" font-weight="normal">15ms</text>
</svg>