<?xml version="1.0" encoding="UTF-8"?>
<svg xmlns="http://www.w3.org/2000/svg" viewBox="0 0 600 960" width="600" height="960">
<rect width="600" height="960" fill="#1E1E2E"/>
<g>
<rect x="0" y="0" width="600" height="44" fill="#1A1A2E"></rect><text x="16" y="32" fill="#00BCD4" font-family="JetBrains Mono,monospace" font-size="13" font-weight="bold">Diagnostics</text><g>
<rect x="0" y="44" width="200" height="916" fill="#252538"></rect><rect x="0" y="44" width="1" height="916" fill="#3A3A5A"></rect><rect x="10" y="96" width="180" height="36" fill="transparent" rx="6"></rect><text x="46" y="120" fill="#E0E0E0" font-family="JetBrains Mono,monospace" font-size="11">Dashboard</text><rect x="10" y="140" width="180" height="36" fill="#00BCD4" rx="6"></rect><text x="46" y="164" fill="#1E1E2E" font-family="JetBrains Mono,monospace" font-size="11">Diagnostics</text><rect x="10" y="184" width="180" height="36" fill="transparent" rx="6"></rect><text x="46" y="208" fill="#E0E0E0" font-family="JetBrains Mono,monospace" font-size="11">Config</text><rect x="10" y="228" width="180" height="36" fill="transparent" rx="6"></rect><text x="46" y="252" fill="#E0E0E0" font-family="JetBrains Mono,monospace" font-size="11">Report</text><rect x="10" y="272" width="180" height="36" fill="transparent" rx="6"></rect><text x="46" y="296" fill="#E0E0E0" font-family="JetBrains Mono,monospace" font-size="11">Settings</text>
</g><g>
<rect x="216" y="60" width="368" height="126" fill="#16213E" rx="8" stroke="#3A3A5A" stroke-width="1"></rect><text x="230" y="84" fill="#00BCD4" font-family="JetBrains Mono,monospace" font-size="12" font-weight="bold">G1: System & Adapters (8)</text><rect x="524" y="70" width="48" height="18" fill="#4ADE8026" rx="4"></rect><text x="528" y="84" fill="#4ADE80" font-family="JetBrains Mono,monospace" font-size="10">Running...</text><text x="230" y="118" fill="#A0A0B8" font-family="JetBrains Mono,monospace" font-size="10">Network Adapters</text><text x="534" y="118" fill="#E0E0E0" font-family="JetBrains Mono,monospace" font-size="10">Pass</text><text x="230" y="140" fill="#A0A0B8" font-family="JetBrains Mono,monospace" font-size="10">DHCP Status</text><text x="534" y="140" fill="#E0E0E0" font-family="JetBrains Mono,monospace" font-size="10">Pass</text><text x="230" y="162" fill="#A0A0B8" font-family="JetBrains Mono,monospace" font-size="10">IP Configuration</text><text x="534" y="162" fill="#E0E0E0" font-family="JetBrains Mono,monospace" font-size="10">Warn</text>
</g><g>
<rect x="216" y="160" width="368" height="126" fill="#16213E" rx="8" stroke="#3A3A5A" stroke-width="1"></rect><text x="230" y="184" fill="#00BCD4" font-family="JetBrains Mono,monospace" font-size="12" font-weight="bold">G2: Connectivity & Security (6)</text><text x="230" y="218" fill="#A0A0B8" font-family="JetBrains Mono,monospace" font-size="10">Network Adapters</text><text x="534" y="218" fill="#E0E0E0" font-family="JetBrains Mono,monospace" font-size="10">Pass</text><text x="230" y="240" fill="#A0A0B8" font-family="JetBrains Mono,monospace" font-size="10">DHCP Status</text><text x="534" y="240" fill="#E0E0E0" font-family="JetBrains Mono,monospace" font-size="10">Pass</text><text x="230" y="262" fill="#A0A0B8" font-family="JetBrains Mono,monospace" font-size="10">IP Configuration</text><text x="534" y="262" fill="#E0E0E0" font-family="JetBrains Mono,monospace" font-size="10">Warn</text>
</g><g>
<rect x="216" y="260" width="368" height="126" fill="#16213E" rx="8" stroke="#3A3A5A" stroke-width="1"></rect><text x="230" y="284" fill="#00BCD4" font-family="JetBrains Mono,monospace" font-size="12" font-weight="bold">G3: Internet & DNS (5)</text><text x="230" y="318" fill="#A0A0B8" font-family="JetBrains Mono,monospace" font-size="10">Network Adapters</text><text x="534" y="318" fill="#E0E0E0" font-family="JetBrains Mono,monospace" font-size="10">Pass</text><text x="230" y="340" fill="#A0A0B8" font-family="JetBrains Mono,monospace" font-size="10">DHCP Status</text><text x="534" y="340" fill="#E0E0E0" font-family="JetBrains Mono,monospace" font-size="10">Pass</text><text x="230" y="362" fill="#A0A0B8" font-family="JetBrains Mono,monospace" font-size="10">IP Configuration</text><text x="534" y="362" fill="#E0E0E0" font-family="JetBrains Mono,monospace" font-size="10">Warn</text>
</g><g>
<rect x="216" y="360" width="368" height="126" fill="#16213E" rx="8" stroke="#3A3A5A" stroke-width="1"></rect><text x="230" y="384" fill="#00BCD4" font-family="JetBrains Mono,monospace" font-size="12" font-weight="bold">G4: Remote Host (6)</text><text x="230" y="418" fill="#A0A0B8" font-family="JetBrains Mono,monospace" font-size="10">Network Adapters</text><text x="534" y="418" fill="#E0E0E0" font-family="JetBrains Mono,monospace" font-size="10">Pass</text><text x="230" y="440" fill="#A0A0B8" font-family="JetBrains Mono,monospace" font-size="10">DHCP Status</text><text x="534" y="440" fill="#E0E0E0" font-family="JetBrains Mono,monospace" font-size="10">Pass</text><text x="230" y="462" fill="#A0A0B8" font-family="JetBrains Mono,monospace" font-size="10">IP Configuration</text><text x="534" y="462" fill="#E0E0E0" font-family="JetBrains Mono,monospace" font-size="10">Warn</text>
</g><g>
<rect x="216" y="460" width="368" height="126" fill="#16213E" rx="8" stroke="#3A3A5A" stroke-width="1"></rect><text x="230" y="484" fill="#00BCD4" font-family="JetBrains Mono,monospace" font-size="12" font-weight="bold">G5: Website / URL (13)</text><text x="230" y="518" fill="#A0A0B8" font-family="JetBrains Mono,monospace" font-size="10">Network Adapters</text><text x="534" y="518" fill="#E0E0E0" font-family="JetBrains Mono,monospace" font-size="10">Pass</text><text x="230" y="540" fill="#A0A0B8" font-family="JetBrains Mono,monospace" font-size="10">DHCP Status</text><text x="534" y="540" fill="#E0E0E0" font-family="JetBrains Mono,monospace" font-size="10">Pass</text><text x="230" y="562" fill="#A0A0B8" font-family="JetBrains Mono,monospace" font-size="10">IP Configuration</text><text x="534" y="562" fill="#E0E0E0" font-family="JetBrains Mono,monospace" font-size="10">Warn</text>
</g>
</g>
</svg>