<?xml version="1.0" encoding="UTF-8"?>
<svg xmlns="http://www.w3.org/2000/svg" viewBox="0 0 1032 1376" width="1032" height="1376">
<rect x="0" y="0" width="1032" height="20" fill="#000000"/>
<text x="16" y="13" font-family="JetBrains Mono, DejaVu Sans Mono, monospace" font-size="9" fill="#FFFFFF" text-anchor="start" font-weight="normal">9:41</text>
<text x="1016" y="13" font-family="JetBrains Mono, DejaVu Sans Mono, monospace" font-size="9" fill="#FFFFFF" text-anchor="end" font-weight="normal">Wi-Fi</text>
<rect x="0" y="0" width="1032" height="36" fill="#1A1A2E"/>
<line x1="0" y1="35" x2="1032" y2="35" stroke="#3A3A5A" stroke-width="1"/>
<text x="316" y="21" font-family="JetBrains Mono, DejaVu Sans Mono, monospace" font-size="10" fill="rgba(224,224,224,0.7)" text-anchor="middle" font-weight="normal">⊞ Dashboard</text>
<text x="416" y="21" font-family="JetBrains Mono, DejaVu Sans Mono, monospace" font-size="10" fill="rgba(224,224,224,0.7)" text-anchor="middle" font-weight="normal">⚡ Diag</text>
<rect x="466" y="2" width="100" height="34" fill="rgba(0,188,212,0.12)" rx="6"/>
<rect x="466" y="34" width="100" height="2" fill="#00BCD4"/>
<text x="516" y="21" font-family="JetBrains Mono, DejaVu Sans Mono, monospace" font-size="10" fill="#00BCD4" text-anchor="middle" font-weight="normal">⚙ Config</text>
<text x="616" y="21" font-family="JetBrains Mono, DejaVu Sans Mono, monospace" font-size="10" fill="rgba(224,224,224,0.7)" text-anchor="middle" font-weight="normal">📄 Report</text>
<text x="716" y="21" font-family="JetBrains Mono, DejaVu Sans Mono, monospace" font-size="10" fill="rgba(224,224,224,0.7)" text-anchor="middle" font-weight="normal">⚙ Settings</text>
<rect x="998" y="4" width="28" height="28" fill="transparent" stroke="#5A5A7A" stroke-width="1" rx="6"/>
<text x="1012" y="22" font-family="JetBrains Mono, DejaVu Sans Mono, monospace" font-size="12" fill="#A0A0B8" text-anchor="middle" font-weight="normal">✕</text>
<rect x="0" y="36" width="1032" height="84" fill="#1A1A2E"/>
<line x1="0" y1="119" x2="1032" y2="119" stroke="#3A3A5A" stroke-width="1"/>
<circle cx="16" cy="58" r="6.666666666666667" fill="none" stroke="#00BCD4" stroke-width="2"/>
<circle cx="16" cy="58" r="3.3333333333333335" fill="none" stroke="#00BCD4" stroke-width="1.5"/>
<text x="42" y="60" font-family="JetBrains Mono, DejaVu Sans Mono, monospace" font-size="15" fill="#E0E0E0" text-anchor="start" font-weight="bold">Diagnostic Config</text>
<text x="103" y="100" font-family="JetBrains Mono, DejaVu Sans Mono, monospace" font-size="12" fill="#00BCD4" text-anchor="middle" font-weight="bold">G1</text>
<rect x="0" y="116" width="206" height="2" fill="#00BCD4"/>
<text x="309" y="100" font-family="JetBrains Mono, DejaVu Sans Mono, monospace" font-size="12" fill="#A0A0B8" text-anchor="middle" font-weight="normal">G2</text>
<text x="515" y="100" font-family="JetBrains Mono, DejaVu Sans Mono, monospace" font-size="12" fill="#A0A0B8" text-anchor="middle" font-weight="normal">G3</text>
<text x="721" y="100" font-family="JetBrains Mono, DejaVu Sans Mono, monospace" font-size="12" fill="#A0A0B8" text-anchor="middle" font-weight="normal">G4</text>
<text x="927" y="100" font-family="JetBrains Mono, DejaVu Sans Mono, monospace" font-size="12" fill="#A0A0B8" text-anchor="middle" font-weight="normal">G5</text>
<rect x="0" y="120" width="1032" height="60" fill="rgba(22,33,62,0.5)" stroke="#2A2A4A" stroke-width="1"/>
<text x="16" y="144" font-family="JetBrains Mono, DejaVu Sans Mono, monospace" font-size="14" fill="#E0E0E0" text-anchor="start" font-weight="bold">G1 System &amp; Adapters</text>
<text x="16" y="162" font-family="JetBrains Mono, DejaVu Sans Mono, monospace" font-size="11" fill="#A0A0B8" text-anchor="start" font-weight="normal">8 diagnostics</text>
<rect x="792" y="134" width="110" height="32" fill="transparent" stroke="#3A3A5A" stroke-width="1" rx="6"/>
<text x="847" y="152" font-family="JetBrains Mono, DejaVu Sans Mono, monospace" font-size="11" fill="#E0E0E0" text-anchor="middle" font-weight="normal">Select All</text>
<rect x="910" y="134" width="110" height="32" fill="transparent" stroke="#3A3A5A" stroke-width="1" rx="6"/>
<text x="965" y="152" font-family="JetBrains Mono, DejaVu Sans Mono, monospace" font-size="11" fill="#E0E0E0" text-anchor="middle" font-weight="normal">Deselect All</text>
<line x1="16" y1="233" x2="1016" y2="233" stroke="#2A2A4A" stroke-width="1"/>
<circle cx="28" cy="207" r="7" fill="#4ADE80"/>
<text x="50" y="200" font-family="JetBrains Mono, DejaVu Sans Mono, monospace" font-size="13" fill="#E0E0E0" text-anchor="start" font-weight="normal">Network Adapters</text>
<text x="50" y="216" font-family="JetBrains Mono, DejaVu Sans Mono, monospace" font-size="10" fill="rgba(160,160,184,0.6)" text-anchor="start" font-weight="normal">List all network adapters and their operational st</text>
<rect x="972" y="197" width="40" height="20" fill="#0078D4" rx="10"/>
<circle cx="1002" cy="207" r="8" fill="#FFFFFF"/>
<line x1="16" y1="287" x2="1016" y2="287" stroke="#2A2A4A" stroke-width="1"/>
<circle cx="28" cy="261" r="7" fill="#4ADE80"/>
<text x="50" y="254" font-family="JetBrains Mono, DejaVu Sans Mono, monospace" font-size="13" fill="#E0E0E0" text-anchor="start" font-weight="normal">NIC Advanced</text>
<text x="50" y="270" font-family="JetBrains Mono, DejaVu Sans Mono, monospace" font-size="10" fill="rgba(160,160,184,0.6)" text-anchor="start" font-weight="normal">Driver version, hardware info, and negotiated link</text>
<rect x="972" y="251" width="40" height="20" fill="#0078D4" rx="10"/>
<circle cx="1002" cy="261" r="8" fill="#FFFFFF"/>
<line x1="16" y1="341" x2="1016" y2="341" stroke="#2A2A4A" stroke-width="1"/>
<circle cx="28" cy="315" r="7" fill="#4ADE80"/>
<text x="50" y="308" font-family="JetBrains Mono, DejaVu Sans Mono, monospace" font-size="13" fill="#E0E0E0" text-anchor="start" font-weight="normal">WiFi Information</text>
<text x="50" y="324" font-family="JetBrains Mono, DejaVu Sans Mono, monospace" font-size="10" fill="rgba(160,160,184,0.6)" text-anchor="start" font-weight="normal">Signal strength, SSID, channel, and link quality</text>
<rect x="972" y="305" width="40" height="20" fill="#0078D4" rx="10"/>
<circle cx="1002" cy="315" r="8" fill="#FFFFFF"/>
<line x1="16" y1="395" x2="1016" y2="395" stroke="#2A2A4A" stroke-width="1"/>
<circle cx="28" cy="369" r="7" fill="#4ADE80"/>
<text x="50" y="362" font-family="JetBrains Mono, DejaVu Sans Mono, monospace" font-size="13" fill="#E0E0E0" text-anchor="start" font-weight="normal">Wired Information</text>
<text x="50" y="378" font-family="JetBrains Mono, DejaVu Sans Mono, monospace" font-size="10" fill="rgba(160,160,184,0.6)" text-anchor="start" font-weight="normal">Ethernet link status, speed, and duplex mode</text>
<rect x="972" y="359" width="40" height="20" fill="#0078D4" rx="10"/>
<circle cx="1002" cy="369" r="8" fill="#FFFFFF"/>
<line x1="16" y1="449" x2="1016" y2="449" stroke="#2A2A4A" stroke-width="1"/>
<circle cx="28" cy="423" r="7" fill="#606080"/>
<text x="50" y="416" font-family="JetBrains Mono, DejaVu Sans Mono, monospace" font-size="13" fill="#E0E0E0" text-anchor="start" font-weight="normal">DHCP Status</text>
<text x="50" y="432" font-family="JetBrains Mono, DejaVu Sans Mono, monospace" font-size="10" fill="rgba(160,160,184,0.6)" text-anchor="start" font-weight="normal">DHCP lease info, server address, and expiration</text>
<rect x="972" y="413" width="40" height="20" fill="#5A5A7A" rx="10"/>
<circle cx="982" cy="423" r="8" fill="#FFFFFF"/>
<line x1="16" y1="503" x2="1016" y2="503" stroke="#2A2A4A" stroke-width="1"/>
<circle cx="28" cy="477" r="7" fill="#4ADE80"/>
<text x="50" y="470" font-family="JetBrains Mono, DejaVu Sans Mono, monospace" font-size="13" fill="#E0E0E0" text-anchor="start" font-weight="normal">IP Configuration</text>
<text x="50" y="486" font-family="JetBrains Mono, DejaVu Sans Mono, monospace" font-size="10" fill="rgba(160,160,184,0.6)" text-anchor="start" font-weight="normal">IP addresses, subnet mask, default gateway, DNS se</text>
<rect x="972" y="467" width="40" height="20" fill="#0078D4" rx="10"/>
<circle cx="1002" cy="477" r="8" fill="#FFFFFF"/>
<line x1="16" y1="557" x2="1016" y2="557" stroke="#2A2A4A" stroke-width="1"/>
<circle cx="28" cy="531" r="7" fill="#4ADE80"/>
<text x="50" y="524" font-family="JetBrains Mono, DejaVu Sans Mono, monospace" font-size="13" fill="#E0E0E0" text-anchor="start" font-weight="normal">Active Connections</text>
<text x="50" y="540" font-family="JetBrains Mono, DejaVu Sans Mono, monospace" font-size="10" fill="rgba(160,160,184,0.6)" text-anchor="start" font-weight="normal">TCP/UDP connections: ESTABLISHED, LISTENING, etc.</text>
<rect x="972" y="521" width="40" height="20" fill="#0078D4" rx="10"/>
<circle cx="1002" cy="531" r="8" fill="#FFFFFF"/>
<line x1="16" y1="611" x2="1016" y2="611" stroke="#2A2A4A" stroke-width="1"/>
<circle cx="28" cy="585" r="7" fill="#4ADE80"/>
<text x="50" y="578" font-family="JetBrains Mono, DejaVu Sans Mono, monospace" font-size="13" fill="#E0E0E0" text-anchor="start" font-weight="normal">Network Profile</text>
<text x="50" y="594" font-family="JetBrains Mono, DejaVu Sans Mono, monospace" font-size="10" fill="rgba(160,160,184,0.6)" text-anchor="start" font-weight="normal">Active network profile type (Domain/Private/Public</text>
<rect x="972" y="575" width="40" height="20" fill="#0078D4" rx="10"/>
<circle cx="1002" cy="585" r="8" fill="#FFFFFF"/>
</svg>