<?xml version="1.0" encoding="UTF-8"?>
<svg xmlns="http://www.w3.org/2000/svg" viewBox="0 0 440 956" width="440" height="956">
<rect x="0.0" y="0.0" width="440.0" height="32.0" fill="#1A1A2E"/>
<text x="238.0" y="19.0" font-family="JetBrains Mono, Noto Sans Mono CJK SC, Microsoft YaHei" font-size="14" fill="rgba(224,224,224,0.55)" text-anchor="middle" font-weight="normal">⊞</text>
<rect x="260.0" y="0.0" width="44.0" height="32.0" rx="6" fill="rgba(0,188,212,0.12)"/>
<text x="282.0" y="19.0" font-family="JetBrains Mono, Noto Sans Mono CJK SC, Microsoft YaHei" font-size="14" fill="#00BCD4" text-anchor="middle" font-weight="normal">⚡</text>
<text x="326.0" y="19.0" font-family="JetBrains Mono, Noto Sans Mono CJK SC, Microsoft YaHei" font-size="14" fill="rgba(224,224,224,0.55)" text-anchor="middle" font-weight="normal">⚙</text>
<text x="370.0" y="19.0" font-family="JetBrains Mono, Noto Sans Mono CJK SC, Microsoft YaHei" font-size="14" fill="rgba(224,224,224,0.55)" text-anchor="middle" font-weight="normal">📄</text>
<text x="414.0" y="19.0" font-family="JetBrains Mono, Noto Sans Mono CJK SC, Microsoft YaHei" font-size="14" fill="rgba(224,224,224,0.55)" text-anchor="middle" font-weight="normal">⚙</text>
<rect x="0.0" y="32.0" width="440.0" height="267.0" fill="#252538"/>
<rect x="0.0" y="32.0" width="440.0" height="48.0" fill="transparent" stroke="#3A3A5A" stroke-width="1"/>
<text x="16.0" y="62.0" font-family="JetBrains Mono, Noto Sans Mono CJK SC, Microsoft YaHei" font-size="16" fill="#E0E0E0" text-anchor="start" font-weight="bold">NetDiagnostics</text>
<text x="12.0" y="92.0" font-family="JetBrains Mono, Noto Sans Mono CJK SC, Microsoft YaHei" font-size="11" fill="#A0A0B8" text-anchor="start" font-weight="bold">Target</text>
<rect x="12.0" y="104.0" width="416.0" height="40.0" rx="8" fill="#2A2A4A" stroke="#3A3A5A" stroke-width="1"/>
<text x="22.0" y="129.0" font-family="JetBrains Mono, Noto Sans Mono CJK SC, Microsoft YaHei" font-size="12" fill="rgba(160,160,184,0.4)" text-anchor="start" font-weight="normal">Enter URL, IP address, or hostname...</text>
<rect x="12.0" y="152.0" width="368.0" height="38.0" rx="8" fill="#0078D4"/>
<text x="196.0" y="177.0" font-family="JetBrains Mono, Noto Sans Mono CJK SC, Microsoft YaHei" font-size="12" fill="#FFFFFF" text-anchor="middle" font-weight="bold">▶ Run Diagnostics</text>
<rect x="386.0" y="152.0" width="42.0" height="38.0" rx="8" fill="transparent" stroke="rgba(239,68,68,0.5)" stroke-width="1"/>
<text x="407.0" y="177.0" font-family="JetBrains Mono, Noto Sans Mono CJK SC, Microsoft YaHei" font-size="11" fill="#EF4444" text-anchor="middle" font-weight="normal">■</text>
<line x1="0.0" y1="299.0" x2="440.0" y2="299.0" stroke="#3A3A5A" stroke-width="1"/>
<rect x="0.0" y="300.0" width="440.0" height="41.0" fill="#1A1A2E"/>
<text x="16.0" y="326.0" font-family="JetBrains Mono, Noto Sans Mono CJK SC, Microsoft YaHei" font-size="15" fill="#E0E0E0" text-anchor="start" font-weight="bold">Results</text>
<text x="424.0" y="326.0" font-family="JetBrains Mono, Noto Sans Mono CJK SC, Microsoft YaHei" font-size="12" fill="#00BCD4" text-anchor="end" font-weight="bold">38 / 38</text>
<rect x="8.0" y="345.0" width="424.0" height="88.0" rx="10" fill="#16213E" stroke="#2A2A4A" stroke-width="1"/>
<rect x="20.0" y="353.0" width="3.0" height="22.0" rx="2" fill="#0078D4"/>
<text x="31.0" y="357.0" font-family="JetBrains Mono, Noto Sans Mono CJK SC, Microsoft YaHei" font-size="13" fill="#E0E0E0" text-anchor="start" font-weight="bold">G1: System &amp; Adapters</text>
<text x="404.0" y="367.0" font-family="JetBrains Mono, Noto Sans Mono CJK SC, Microsoft YaHei" font-size="11" fill="#A0A0B8" text-anchor="end" font-weight="normal">8/8</text>
<rect x="348.0" y="353.0" width="26.0" height="18.0" rx="4" fill="rgba(74,222,128,0.15)"/>
<text x="361.0" y="365.0" font-family="JetBrains Mono, Noto Sans Mono CJK SC, Microsoft YaHei" font-size="10" fill="#4ADE80" text-anchor="middle" font-weight="bold">8</text>
<text x="418.0" y="357.0" font-family="JetBrains Mono, Noto Sans Mono CJK SC, Microsoft YaHei" font-size="10" fill="#A0A0B8" text-anchor="end" font-weight="normal">▼</text>
<rect x="20.0" y="383.0" width="400.0" height="4.0" rx="2" fill="#2A2A4A"/>
<rect x="20.0" y="383.0" width="400.0" height="4.0" rx="2" fill="#4ADE80"/>
<line x1="20.0" y1="391.0" x2="420.0" y2="391.0" stroke="#2A2A4A" stroke-width="1"/>
<rect x="28.0" y="395.0" width="2.0" height="12.0" fill="#2A2A4A"/>
<circle cx="36.0" cy="401.0" r="4.0" fill="#4ADE80"/>
<text x="44.0" y="404.0" font-family="JetBrains Mono, Noto Sans Mono CJK SC, Microsoft YaHei" font-size="12" fill="#A0A0B8" text-anchor="start" font-weight="normal">Test 1.1</text>
<rect x="372.0" y="397.0" width="40.0" height="18.0" rx="4" fill="#2A2A4A"/>
<text x="416.0" y="404.0" font-family="JetBrains Mono, Noto Sans Mono CJK SC, Microsoft YaHei" font-size="10" fill="#A0A0B8" text-anchor="end" font-weight="normal">10ms</text>
<rect x="28.0" y="409.0" width="2.0" height="12.0" fill="#2A2A4A"/>
<circle cx="36.0" cy="415.0" r="4.0" fill="#4ADE80"/>
<text x="44.0" y="418.0" font-family="JetBrains Mono, Noto Sans Mono CJK SC, Microsoft YaHei" font-size="12" fill="#A0A0B8" text-anchor="start" font-weight="normal">Test 1.2</text>
<rect x="372.0" y="411.0" width="40.0" height="18.0" rx="4" fill="#2A2A4A"/>
<text x="416.0" y="418.0" font-family="JetBrains Mono, Noto Sans Mono CJK SC, Microsoft YaHei" font-size="10" fill="#A0A0B8" text-anchor="end" font-weight="normal">15ms</text>
<rect x="8.0" y="437.0" width="424.0" height="88.0" rx="10" fill="#16213E" stroke="#2A2A4A" stroke-width="1"/>
<rect x="20.0" y="445.0" width="3.0" height="22.0" rx="2" fill="#0078D4"/>
<text x="31.0" y="449.0" font-family="JetBrains Mono, Noto Sans Mono CJK SC, Microsoft YaHei" font-size="13" fill="#E0E0E0" text-anchor="start" font-weight="bold">G2: Connectivity &amp; Security</text>
<text x="404.0" y="459.0" font-family="JetBrains Mono, Noto Sans Mono CJK SC, Microsoft YaHei" font-size="11" fill="#A0A0B8" text-anchor="end" font-weight="normal">6/6</text>
<rect x="348.0" y="445.0" width="26.0" height="18.0" rx="4" fill="rgba(74,222,128,0.15)"/>
<text x="361.0" y="457.0" font-family="JetBrains Mono, Noto Sans Mono CJK SC, Microsoft YaHei" font-size="10" fill="#4ADE80" text-anchor="middle" font-weight="bold">6</text>
<text x="418.0" y="449.0" font-family="JetBrains Mono, Noto Sans Mono CJK SC, Microsoft YaHei" font-size="10" fill="#A0A0B8" text-anchor="end" font-weight="normal">▼</text>
<rect x="20.0" y="475.0" width="400.0" height="4.0" rx="2" fill="#2A2A4A"/>
<rect x="20.0" y="475.0" width="400.0" height="4.0" rx="2" fill="#4ADE80"/>
<line x1="20.0" y1="483.0" x2="420.0" y2="483.0" stroke="#2A2A4A" stroke-width="1"/>
<rect x="28.0" y="487.0" width="2.0" height="12.0" fill="#2A2A4A"/>
<circle cx="36.0" cy="493.0" r="4.0" fill="#4ADE80"/>
<text x="44.0" y="496.0" font-family="JetBrains Mono, Noto Sans Mono CJK SC, Microsoft YaHei" font-size="12" fill="#A0A0B8" text-anchor="start" font-weight="normal">Test 2.1</text>
<rect x="372.0" y="489.0" width="40.0" height="18.0" rx="4" fill="#2A2A4A"/>
<text x="416.0" y="496.0" font-family="JetBrains Mono, Noto Sans Mono CJK SC, Microsoft YaHei" font-size="10" fill="#A0A0B8" text-anchor="end" font-weight="normal">10ms</text>
<rect x="28.0" y="501.0" width="2.0" height="12.0" fill="#2A2A4A"/>
<circle cx="36.0" cy="507.0" r="4.0" fill="#4ADE80"/>
<text x="44.0" y="510.0" font-family="JetBrains Mono, Noto Sans Mono CJK SC, Microsoft YaHei" font-size="12" fill="#A0A0B8" text-anchor="start" font-weight="normal">Test 2.2</text>
<rect x="372.0" y="503.0" width="40.0" height="18.0" rx="4" fill="#2A2A4A"/>
<text x="416.0" y="510.0" font-family="JetBrains Mono, Noto Sans Mono CJK SC, Microsoft YaHei" font-size="10" fill="#A0A0B8" text-anchor="end" font-weight="normal">15ms</text>
<rect x="8.0" y="529.0" width="424.0" height="81.0" rx="10" fill="#16213E" stroke="#2A2A4A" stroke-width="1"/>
<rect x="20.0" y="537.0" width="3.0" height="22.0" rx="2" fill="#0078D4"/>
<text x="31.0" y="541.0" font-family="JetBrains Mono, Noto Sans Mono CJK SC, Microsoft YaHei" font-size="13" fill="#E0E0E0" text-anchor="start" font-weight="bold">G3: Internet &amp; DNS</text>
<text x="404.0" y="551.0" font-family="JetBrains Mono, Noto Sans Mono CJK SC, Microsoft YaHei" font-size="11" fill="#A0A0B8" text-anchor="end" font-weight="normal">4/5</text>
<rect x="348.0" y="537.0" width="26.0" height="18.0" rx="4" fill="rgba(250,204,21,0.15)"/>
<text x="361.0" y="549.0" font-family="JetBrains Mono, Noto Sans Mono CJK SC, Microsoft YaHei" font-size="10" fill="#FACC15" text-anchor="middle" font-weight="bold">1</text>
<rect x="320.0" y="537.0" width="26.0" height="18.0" rx="4" fill="rgba(74,222,128,0.15)"/>
<text x="333.0" y="549.0" font-family="JetBrains Mono, Noto Sans Mono CJK SC, Microsoft YaHei" font-size="10" fill="#4ADE80" text-anchor="middle" font-weight="bold">4</text>
<text x="418.0" y="541.0" font-family="JetBrains Mono, Noto Sans Mono CJK SC, Microsoft YaHei" font-size="10" fill="#A0A0B8" text-anchor="end" font-weight="normal">▼</text>
<rect x="20.0" y="567.0" width="400.0" height="4.0" rx="2" fill="#2A2A4A"/>
<rect x="20.0" y="567.0" width="320.0" height="4.0" rx="2" fill="#4ADE80"/>
<line x1="20.0" y1="575.0" x2="420.0" y2="575.0" stroke="#2A2A4A" stroke-width="1"/>
<rect x="28.0" y="579.0" width="2.0" height="12.0" fill="#2A2A4A"/>
<circle cx="36.0" cy="585.0" r="4.0" fill="#4ADE80"/>
<text x="44.0" y="588.0" font-family="JetBrains Mono, Noto Sans Mono CJK SC, Microsoft YaHei" font-size="12" fill="#A0A0B8" text-anchor="start" font-weight="normal">Test 3.1</text>
<rect x="372.0" y="581.0" width="40.0" height="18.0" rx="4" fill="#2A2A4A"/>
<text x="416.0" y="588.0" font-family="JetBrains Mono, Noto Sans Mono CJK SC, Microsoft YaHei" font-size="10" fill="#A0A0B8" text-anchor="end" font-weight="normal">10ms</text>
<rect x="28.0" y="593.0" width="2.0" height="12.0" fill="#2A2A4A"/>
<circle cx="36.0" cy="599.0" r="4.0" fill="#4ADE80"/>
<text x="44.0" y="602.0" font-family="JetBrains Mono, Noto Sans Mono CJK SC, Microsoft YaHei" font-size="12" fill="#A0A0B8" text-anchor="start" font-weight="normal">Test 3.2</text>
<rect x="372.0" y="595.0" width="40.0" height="18.0" rx="4" fill="#2A2A4A"/>
<text x="416.0" y="602.0" font-family="JetBrains Mono, Noto Sans Mono CJK SC, Microsoft YaHei" font-size="10" fill="#A0A0B8" text-anchor="end" font-weight="normal">15ms</text>
<rect x="8.0" y="614.0" width="424.0" height="64.0" rx="10" fill="#16213E" stroke="#2A2A4A" stroke-width="1"/>
<rect x="20.0" y="622.0" width="3.0" height="22.0" rx="2" fill="#0078D4"/>
<text x="31.0" y="626.0" font-family="JetBrains Mono, Noto Sans Mono CJK SC, Microsoft YaHei" font-size="13" fill="#E0E0E0" text-anchor="start" font-weight="bold">G4: Remote Host</text>
<text x="404.0" y="636.0" font-family="JetBrains Mono, Noto Sans Mono CJK SC, Microsoft YaHei" font-size="11" fill="#A0A0B8" text-anchor="end" font-weight="normal">6/6</text>
<rect x="348.0" y="622.0" width="26.0" height="18.0" rx="4" fill="rgba(74,222,128,0.15)"/>
<text x="361.0" y="634.0" font-family="JetBrains Mono, Noto Sans Mono CJK SC, Microsoft YaHei" font-size="10" fill="#4ADE80" text-anchor="middle" font-weight="bold">6</text>
<text x="418.0" y="626.0" font-family="JetBrains Mono, Noto Sans Mono CJK SC, Microsoft YaHei" font-size="10" fill="#A0A0B8" text-anchor="end" font-weight="normal">▼</text>
<rect x="20.0" y="652.0" width="400.0" height="4.0" rx="2" fill="#2A2A4A"/>
<rect x="20.0" y="652.0" width="400.0" height="4.0" rx="2" fill="#4ADE80"/>
<line x1="20.0" y1="660.0" x2="420.0" y2="660.0" stroke="#2A2A4A" stroke-width="1"/>
<rect x="28.0" y="664.0" width="2.0" height="12.0" fill="#2A2A4A"/>
<circle cx="36.0" cy="670.0" r="4.0" fill="#4ADE80"/>
<text x="44.0" y="673.0" font-family="JetBrains Mono, Noto Sans Mono CJK SC, Microsoft YaHei" font-size="12" fill="#A0A0B8" text-anchor="start" font-weight="normal">Test 4.1</text>
<rect x="372.0" y="666.0" width="40.0" height="18.0" rx="4" fill="#2A2A4A"/>
<text x="416.0" y="673.0" font-family="JetBrains Mono, Noto Sans Mono CJK SC, Microsoft YaHei" font-size="10" fill="#A0A0B8" text-anchor="end" font-weight="normal">10ms</text>
<rect x="8.0" y="682.0" width="424.0" height="60.0" rx="10" fill="#16213E" stroke="#2A2A4A" stroke-width="1"/>
<rect x="20.0" y="690.0" width="3.0" height="22.0" rx="2" fill="#0078D4"/>
<text x="31.0" y="694.0" font-family="JetBrains Mono, Noto Sans Mono CJK SC, Microsoft YaHei" font-size="13" fill="#E0E0E0" text-anchor="start" font-weight="bold">G5: Website / URL</text>
<text x="404.0" y="704.0" font-family="JetBrains Mono, Noto Sans Mono CJK SC, Microsoft YaHei" font-size="11" fill="#A0A0B8" text-anchor="end" font-weight="normal">8/13</text>
<rect x="348.0" y="690.0" width="26.0" height="18.0" rx="4" fill="rgba(136,136,136,0.15)"/>
<text x="361.0" y="702.0" font-family="JetBrains Mono, Noto Sans Mono CJK SC, Microsoft YaHei" font-size="10" fill="#888888" text-anchor="middle" font-weight="bold">1</text>
<rect x="320.0" y="690.0" width="26.0" height="18.0" rx="4" fill="rgba(239,68,68,0.15)"/>
<text x="333.0" y="702.0" font-family="JetBrains Mono, Noto Sans Mono CJK SC, Microsoft YaHei" font-size="10" fill="#EF4444" text-anchor="middle" font-weight="bold">1</text>
<rect x="292.0" y="690.0" width="26.0" height="18.0" rx="4" fill="rgba(250,204,21,0.15)"/>
<text x="305.0" y="702.0" font-family="JetBrains Mono, Noto Sans Mono CJK SC, Microsoft YaHei" font-size="10" fill="#FACC15" text-anchor="middle" font-weight="bold">3</text>
<rect x="264.0" y="690.0" width="26.0" height="18.0" rx="4" fill="rgba(74,222,128,0.15)"/>
<text x="277.0" y="702.0" font-family="JetBrains Mono, Noto Sans Mono CJK SC, Microsoft YaHei" font-size="10" fill="#4ADE80" text-anchor="middle" font-weight="bold">8</text>
<text x="418.0" y="694.0" font-family="JetBrains Mono, Noto Sans Mono CJK SC, Microsoft YaHei" font-size="10" fill="#A0A0B8" text-anchor="end" font-weight="normal">▼</text>
<rect x="20.0" y="720.0" width="400.0" height="4.0" rx="2" fill="#2A2A4A"/>
<rect x="20.0" y="720.0" width="246.2" height="4.0" rx="2" fill="#4ADE80"/>
<line x1="20.0" y1="728.0" x2="420.0" y2="728.0" stroke="#2A2A4A" stroke-width="1"/>
<rect x="28.0" y="732.0" width="2.0" height="12.0" fill="#2A2A4A"/>
<circle cx="36.0" cy="738.0" r="4.0" fill="#4ADE80"/>
<text x="44.0" y="741.0" font-family="JetBrains Mono, Noto Sans Mono CJK SC, Microsoft YaHei" font-size="12" fill="#A0A0B8" text-anchor="start" font-weight="normal">Test 5.1</text>
<rect x="372.0" y="734.0" width="40.0" height="18.0" rx="4" fill="#2A2A4A"/>
<text x="416.0" y="741.0" font-family="JetBrains Mono, Noto Sans Mono CJK SC, Microsoft YaHei" font-size="10" fill="#A0A0B8" text-anchor="end" font-weight="normal">10ms</text>
</svg>