<?xml version="1.0" encoding="UTF-8"?>
<svg xmlns="http://www.w3.org/2000/svg" viewBox="0 0 430 932" width="430" height="932">
<rect x="0.0" y="0.0" width="430.0" height="32.0" fill="#1A1A2E"/>
<text x="228.0" y="19.0" font-family="JetBrains Mono, Noto Sans Mono CJK SC, Microsoft YaHei" font-size="14" fill="rgba(224,224,224,0.55)" text-anchor="middle" font-weight="normal">⊞</text>
<rect x="250.0" y="0.0" width="44.0" height="32.0" rx="6" fill="rgba(0,188,212,0.12)"/>
<text x="272.0" y="19.0" font-family="JetBrains Mono, Noto Sans Mono CJK SC, Microsoft YaHei" font-size="14" fill="#00BCD4" text-anchor="middle" font-weight="normal">⚡</text>
<text x="316.0" y="19.0" font-family="JetBrains Mono, Noto Sans Mono CJK SC, Microsoft YaHei" font-size="14" fill="rgba(224,224,224,0.55)" text-anchor="middle" font-weight="normal">⚙</text>
<text x="360.0" y="19.0" font-family="JetBrains Mono, Noto Sans Mono CJK SC, Microsoft YaHei" font-size="14" fill="rgba(224,224,224,0.55)" text-anchor="middle" font-weight="normal">📄</text>
<text x="404.0" y="19.0" font-family="JetBrains Mono, Noto Sans Mono CJK SC, Microsoft YaHei" font-size="14" fill="rgba(224,224,224,0.55)" text-anchor="middle" font-weight="normal">⚙</text>
<rect x="0.0" y="32.0" width="430.0" height="261.0" fill="#252538"/>
<rect x="0.0" y="32.0" width="430.0" height="48.0" fill="transparent" stroke="#3A3A5A" stroke-width="1"/>
<text x="16.0" y="62.0" font-family="JetBrains Mono, Noto Sans Mono CJK SC, Microsoft YaHei" font-size="16" fill="#E0E0E0" text-anchor="start" font-weight="bold">NetDiagnostics</text>
<text x="12.0" y="92.0" font-family="JetBrains Mono, Noto Sans Mono CJK SC, Microsoft YaHei" font-size="11" fill="#A0A0B8" text-anchor="start" font-weight="bold">Target</text>
<rect x="12.0" y="104.0" width="406.0" height="40.0" rx="8" fill="#2A2A4A" stroke="#3A3A5A" stroke-width="1"/>
<text x="22.0" y="129.0" font-family="JetBrains Mono, Noto Sans Mono CJK SC, Microsoft YaHei" font-size="12" fill="rgba(160,160,184,0.4)" text-anchor="start" font-weight="normal">Enter URL, IP address, or hostname...</text>
<rect x="12.0" y="152.0" width="358.0" height="38.0" rx="8" fill="#0078D4"/>
<text x="191.0" y="177.0" font-family="JetBrains Mono, Noto Sans Mono CJK SC, Microsoft YaHei" font-size="12" fill="#FFFFFF" text-anchor="middle" font-weight="bold">▶ Run Diagnostics</text>
<rect x="376.0" y="152.0" width="42.0" height="38.0" rx="8" fill="transparent" stroke="rgba(239,68,68,0.5)" stroke-width="1"/>
<text x="397.0" y="177.0" font-family="JetBrains Mono, Noto Sans Mono CJK SC, Microsoft YaHei" font-size="11" fill="#EF4444" text-anchor="middle" font-weight="normal">■</text>
<line x1="0.0" y1="293.0" x2="430.0" y2="293.0" stroke="#3A3A5A" stroke-width="1"/>
<rect x="0.0" y="294.0" width="430.0" height="41.0" fill="#1A1A2E"/>
<text x="16.0" y="320.0" font-family="JetBrains Mono, Noto Sans Mono CJK SC, Microsoft YaHei" font-size="15" fill="#E0E0E0" text-anchor="start" font-weight="bold">Results</text>
<text x="414.0" y="320.0" font-family="JetBrains Mono, Noto Sans Mono CJK SC, Microsoft YaHei" font-size="12" fill="#00BCD4" text-anchor="end" font-weight="bold">38 / 38</text>
<rect x="8.0" y="339.0" width="414.0" height="88.0" rx="10" fill="#16213E" stroke="#2A2A4A" stroke-width="1"/>
<rect x="20.0" y="347.0" width="3.0" height="22.0" rx="2" fill="#0078D4"/>
<text x="31.0" y="351.0" font-family="JetBrains Mono, Noto Sans Mono CJK SC, Microsoft YaHei" font-size="13" fill="#E0E0E0" text-anchor="start" font-weight="bold">G1: System &amp; Adapters</text>
<text x="394.0" y="361.0" font-family="JetBrains Mono, Noto Sans Mono CJK SC, Microsoft YaHei" font-size="11" fill="#A0A0B8" text-anchor="end" font-weight="normal">8/8</text>
<rect x="338.0" y="347.0" width="26.0" height="18.0" rx="4" fill="rgba(74,222,128,0.15)"/>
<text x="351.0" y="359.0" font-family="JetBrains Mono, Noto Sans Mono CJK SC, Microsoft YaHei" font-size="10" fill="#4ADE80" text-anchor="middle" font-weight="bold">8</text>
<text x="408.0" y="351.0" font-family="JetBrains Mono, Noto Sans Mono CJK SC, Microsoft YaHei" font-size="10" fill="#A0A0B8" text-anchor="end" font-weight="normal">▼</text>
<rect x="20.0" y="377.0" width="390.0" height="4.0" rx="2" fill="#2A2A4A"/>
<rect x="20.0" y="377.0" width="390.0" height="4.0" rx="2" fill="#4ADE80"/>
<line x1="20.0" y1="385.0" x2="410.0" y2="385.0" stroke="#2A2A4A" stroke-width="1"/>
<rect x="28.0" y="389.0" width="2.0" height="12.0" fill="#2A2A4A"/>
<circle cx="36.0" cy="395.0" r="4.0" fill="#4ADE80"/>
<text x="44.0" y="398.0" font-family="JetBrains Mono, Noto Sans Mono CJK SC, Microsoft YaHei" font-size="12" fill="#A0A0B8" text-anchor="start" font-weight="normal">Test 1.1</text>
<rect x="362.0" y="391.0" width="40.0" height="18.0" rx="4" fill="#2A2A4A"/>
<text x="406.0" y="398.0" font-family="JetBrains Mono, Noto Sans Mono CJK SC, Microsoft YaHei" font-size="10" fill="#A0A0B8" text-anchor="end" font-weight="normal">10ms</text>
<rect x="28.0" y="403.0" width="2.0" height="12.0" fill="#2A2A4A"/>
<circle cx="36.0" cy="409.0" r="4.0" fill="#4ADE80"/>
<text x="44.0" y="412.0" font-family="JetBrains Mono, Noto Sans Mono CJK SC, Microsoft YaHei" font-size="12" fill="#A0A0B8" text-anchor="start" font-weight="normal">Test 1.2</text>
<rect x="362.0" y="405.0" width="40.0" height="18.0" rx="4" fill="#2A2A4A"/>
<text x="406.0" y="412.0" font-family="JetBrains Mono, Noto Sans Mono CJK SC, Microsoft YaHei" font-size="10" fill="#A0A0B8" text-anchor="end" font-weight="normal">15ms</text>
<rect x="8.0" y="431.0" width="414.0" height="88.0" rx="10" fill="#16213E" stroke="#2A2A4A" stroke-width="1"/>
<rect x="20.0" y="439.0" width="3.0" height="22.0" rx="2" fill="#0078D4"/>
<text x="31.0" y="443.0" font-family="JetBrains Mono, Noto Sans Mono CJK SC, Microsoft YaHei" font-size="13" fill="#E0E0E0" text-anchor="start" font-weight="bold">G2: Connectivity &amp; Security</text>
<text x="394.0" y="453.0" font-family="JetBrains Mono, Noto Sans Mono CJK SC, Microsoft YaHei" font-size="11" fill="#A0A0B8" text-anchor="end" font-weight="normal">6/6</text>
<rect x="338.0" y="439.0" width="26.0" height="18.0" rx="4" fill="rgba(74,222,128,0.15)"/>
<text x="351.0" y="451.0" font-family="JetBrains Mono, Noto Sans Mono CJK SC, Microsoft YaHei" font-size="10" fill="#4ADE80" text-anchor="middle" font-weight="bold">6</text>
<text x="408.0" y="443.0" font-family="JetBrains Mono, Noto Sans Mono CJK SC, Microsoft YaHei" font-size="10" fill="#A0A0B8" text-anchor="end" font-weight="normal">▼</text>
<rect x="20.0" y="469.0" width="390.0" height="4.0" rx="2" fill="#2A2A4A"/>
<rect x="20.0" y="469.0" width="390.0" height="4.0" rx="2" fill="#4ADE80"/>
<line x1="20.0" y1="477.0" x2="410.0" y2="477.0" stroke="#2A2A4A" stroke-width="1"/>
<rect x="28.0" y="481.0" width="2.0" height="12.0" fill="#2A2A4A"/>
<circle cx="36.0" cy="487.0" r="4.0" fill="#4ADE80"/>
<text x="44.0" y="490.0" font-family="JetBrains Mono, Noto Sans Mono CJK SC, Microsoft YaHei" font-size="12" fill="#A0A0B8" text-anchor="start" font-weight="normal">Test 2.1</text>
<rect x="362.0" y="483.0" width="40.0" height="18.0" rx="4" fill="#2A2A4A"/>
<text x="406.0" y="490.0" font-family="JetBrains Mono, Noto Sans Mono CJK SC, Microsoft YaHei" font-size="10" fill="#A0A0B8" text-anchor="end" font-weight="normal">10ms</text>
<rect x="28.0" y="495.0" width="2.0" height="12.0" fill="#2A2A4A"/>
<circle cx="36.0" cy="501.0" r="4.0" fill="#4ADE80"/>
<text x="44.0" y="504.0" font-family="JetBrains Mono, Noto Sans Mono CJK SC, Microsoft YaHei" font-size="12" fill="#A0A0B8" text-anchor="start" font-weight="normal">Test 2.2</text>
<rect x="362.0" y="497.0" width="40.0" height="18.0" rx="4" fill="#2A2A4A"/>
<text x="406.0" y="504.0" font-family="JetBrains Mono, Noto Sans Mono CJK SC, Microsoft YaHei" font-size="10" fill="#A0A0B8" text-anchor="end" font-weight="normal">15ms</text>
<rect x="8.0" y="523.0" width="414.0" height="77.0" rx="10" fill="#16213E" stroke="#2A2A4A" stroke-width="1"/>
<rect x="20.0" y="531.0" width="3.0" height="22.0" rx="2" fill="#0078D4"/>
<text x="31.0" y="535.0" font-family="JetBrains Mono, Noto Sans Mono CJK SC, Microsoft YaHei" font-size="13" fill="#E0E0E0" text-anchor="start" font-weight="bold">G3: Internet &amp; DNS</text>
<text x="394.0" y="545.0" font-family="JetBrains Mono, Noto Sans Mono CJK SC, Microsoft YaHei" font-size="11" fill="#A0A0B8" text-anchor="end" font-weight="normal">4/5</text>
<rect x="338.0" y="531.0" width="26.0" height="18.0" rx="4" fill="rgba(250,204,21,0.15)"/>
<text x="351.0" y="543.0" font-family="JetBrains Mono, Noto Sans Mono CJK SC, Microsoft YaHei" font-size="10" fill="#FACC15" text-anchor="middle" font-weight="bold">1</text>
<rect x="310.0" y="531.0" width="26.0" height="18.0" rx="4" fill="rgba(74,222,128,0.15)"/>
<text x="323.0" y="543.0" font-family="JetBrains Mono, Noto Sans Mono CJK SC, Microsoft YaHei" font-size="10" fill="#4ADE80" text-anchor="middle" font-weight="bold">4</text>
<text x="408.0" y="535.0" font-family="JetBrains Mono, Noto Sans Mono CJK SC, Microsoft YaHei" font-size="10" fill="#A0A0B8" text-anchor="end" font-weight="normal">▼</text>
<rect x="20.0" y="561.0" width="390.0" height="4.0" rx="2" fill="#2A2A4A"/>
<rect x="20.0" y="561.0" width="312.0" height="4.0" rx="2" fill="#4ADE80"/>
<line x1="20.0" y1="569.0" x2="410.0" y2="569.0" stroke="#2A2A4A" stroke-width="1"/>
<rect x="28.0" y="573.0" width="2.0" height="12.0" fill="#2A2A4A"/>
<circle cx="36.0" cy="579.0" r="4.0" fill="#4ADE80"/>
<text x="44.0" y="582.0" font-family="JetBrains Mono, Noto Sans Mono CJK SC, Microsoft YaHei" font-size="12" fill="#A0A0B8" text-anchor="start" font-weight="normal">Test 3.1</text>
<rect x="362.0" y="575.0" width="40.0" height="18.0" rx="4" fill="#2A2A4A"/>
<text x="406.0" y="582.0" font-family="JetBrains Mono, Noto Sans Mono CJK SC, Microsoft YaHei" font-size="10" fill="#A0A0B8" text-anchor="end" font-weight="normal">10ms</text>
<rect x="28.0" y="587.0" width="2.0" height="12.0" fill="#2A2A4A"/>
<circle cx="36.0" cy="593.0" r="4.0" fill="#4ADE80"/>
<text x="44.0" y="596.0" font-family="JetBrains Mono, Noto Sans Mono CJK SC, Microsoft YaHei" font-size="12" fill="#A0A0B8" text-anchor="start" font-weight="normal">Test 3.2</text>
<rect x="362.0" y="589.0" width="40.0" height="18.0" rx="4" fill="#2A2A4A"/>
<text x="406.0" y="596.0" font-family="JetBrains Mono, Noto Sans Mono CJK SC, Microsoft YaHei" font-size="10" fill="#A0A0B8" text-anchor="end" font-weight="normal">15ms</text>
<rect x="8.0" y="604.0" width="414.0" height="61.0" rx="10" fill="#16213E" stroke="#2A2A4A" stroke-width="1"/>
<rect x="20.0" y="612.0" width="3.0" height="22.0" rx="2" fill="#0078D4"/>
<text x="31.0" y="616.0" font-family="JetBrains Mono, Noto Sans Mono CJK SC, Microsoft YaHei" font-size="13" fill="#E0E0E0" text-anchor="start" font-weight="bold">G4: Remote Host</text>
<text x="394.0" y="626.0" font-family="JetBrains Mono, Noto Sans Mono CJK SC, Microsoft YaHei" font-size="11" fill="#A0A0B8" text-anchor="end" font-weight="normal">6/6</text>
<rect x="338.0" y="612.0" width="26.0" height="18.0" rx="4" fill="rgba(74,222,128,0.15)"/>
<text x="351.0" y="624.0" font-family="JetBrains Mono, Noto Sans Mono CJK SC, Microsoft YaHei" font-size="10" fill="#4ADE80" text-anchor="middle" font-weight="bold">6</text>
<text x="408.0" y="616.0" font-family="JetBrains Mono, Noto Sans Mono CJK SC, Microsoft YaHei" font-size="10" fill="#A0A0B8" text-anchor="end" font-weight="normal">▼</text>
<rect x="20.0" y="642.0" width="390.0" height="4.0" rx="2" fill="#2A2A4A"/>
<rect x="20.0" y="642.0" width="390.0" height="4.0" rx="2" fill="#4ADE80"/>
<line x1="20.0" y1="650.0" x2="410.0" y2="650.0" stroke="#2A2A4A" stroke-width="1"/>
<rect x="28.0" y="654.0" width="2.0" height="12.0" fill="#2A2A4A"/>
<circle cx="36.0" cy="660.0" r="4.0" fill="#4ADE80"/>
<text x="44.0" y="663.0" font-family="JetBrains Mono, Noto Sans Mono CJK SC, Microsoft YaHei" font-size="12" fill="#A0A0B8" text-anchor="start" font-weight="normal">Test 4.1</text>
<rect x="362.0" y="656.0" width="40.0" height="18.0" rx="4" fill="#2A2A4A"/>
<text x="406.0" y="663.0" font-family="JetBrains Mono, Noto Sans Mono CJK SC, Microsoft YaHei" font-size="10" fill="#A0A0B8" text-anchor="end" font-weight="normal">10ms</text>
<rect x="8.0" y="669.0" width="414.0" height="60.0" rx="10" fill="#16213E" stroke="#2A2A4A" stroke-width="1"/>
<rect x="20.0" y="677.0" width="3.0" height="22.0" rx="2" fill="#0078D4"/>
<text x="31.0" y="681.0" font-family="JetBrains Mono, Noto Sans Mono CJK SC, Microsoft YaHei" font-size="13" fill="#E0E0E0" text-anchor="start" font-weight="bold">G5: Website / URL</text>
<text x="394.0" y="691.0" font-family="JetBrains Mono, Noto Sans Mono CJK SC, Microsoft YaHei" font-size="11" fill="#A0A0B8" text-anchor="end" font-weight="normal">8/13</text>
<rect x="338.0" y="677.0" width="26.0" height="18.0" rx="4" fill="rgba(136,136,136,0.15)"/>
<text x="351.0" y="689.0" font-family="JetBrains Mono, Noto Sans Mono CJK SC, Microsoft YaHei" font-size="10" fill="#888888" text-anchor="middle" font-weight="bold">1</text>
<rect x="310.0" y="677.0" width="26.0" height="18.0" rx="4" fill="rgba(239,68,68,0.15)"/>
<text x="323.0" y="689.0" font-family="JetBrains Mono, Noto Sans Mono CJK SC, Microsoft YaHei" font-size="10" fill="#EF4444" text-anchor="middle" font-weight="bold">1</text>
<rect x="282.0" y="677.0" width="26.0" height="18.0" rx="4" fill="rgba(250,204,21,0.15)"/>
<text x="295.0" y="689.0" font-family="JetBrains Mono, Noto Sans Mono CJK SC, Microsoft YaHei" font-size="10" fill="#FACC15" text-anchor="middle" font-weight="bold">3</text>
<rect x="254.0" y="677.0" width="26.0" height="18.0" rx="4" fill="rgba(74,222,128,0.15)"/>
<text x="267.0" y="689.0" font-family="JetBrains Mono, Noto Sans Mono CJK SC, Microsoft YaHei" font-size="10" fill="#4ADE80" text-anchor="middle" font-weight="bold">8</text>
<text x="408.0" y="681.0" font-family="JetBrains Mono, Noto Sans Mono CJK SC, Microsoft YaHei" font-size="10" fill="#A0A0B8" text-anchor="end" font-weight="normal">▼</text>
<rect x="20.0" y="707.0" width="390.0" height="4.0" rx="2" fill="#2A2A4A"/>
<rect x="20.0" y="707.0" width="240.0" height="4.0" rx="2" fill="#4ADE80"/>
<line x1="20.0" y1="715.0" x2="410.0" y2="715.0" stroke="#2A2A4A" stroke-width="1"/>
<rect x="28.0" y="719.0" width="2.0" height="12.0" fill="#2A2A4A"/>
<circle cx="36.0" cy="725.0" r="4.0" fill="#4ADE80"/>
<text x="44.0" y="728.0" font-family="JetBrains Mono, Noto Sans Mono CJK SC, Microsoft YaHei" font-size="12" fill="#A0A0B8" text-anchor="start" font-weight="normal">Test 5.1</text>
<rect x="362.0" y="721.0" width="40.0" height="18.0" rx="4" fill="#2A2A4A"/>
<text x="406.0" y="728.0" font-family="JetBrains Mono, Noto Sans Mono CJK SC, Microsoft YaHei" font-size="10" fill="#A0A0B8" text-anchor="end" font-weight="normal">10ms</text>
</svg>